{"glyphs":{"0":{"ha":441,"x_min":38,"x_max":401,"o":"m 220 11 l 220 11 q 162 11 122 -23 q 82 -57 60 -137 q 38 -218 38 -357 l 38 -357 q 38 -481 58 -562 q 77 -644 117 -684 q 157 -725 219 -725 l 219 -725 q 281 -725 321 -684 q 361 -643 381 -561 q 401 -480 401 -356 l 401 -356 q 401 -272 392 -204 q 382 -136 361 -88 q 340 -40 305 -14 q 270 11 220 11 z m 220 -78 l 220 -78 q 241 -78 257 -94 q 272 -110 283 -144 q 293 -178 298 -230 q 302 -283 302 -357 l 302 -357 q 302 -430 298 -483 q 293 -536 283 -569 q 272 -603 257 -619 q 241 -636 220 -636 l 220 -636 q 198 -636 183 -619 q 168 -603 158 -569 q 148 -536 143 -483 q 138 -430 138 -357 l 138 -357 q 138 -284 143 -231 q 148 -179 158 -145 q 167 -111 183 -94 q 198 -78 220 -78 z"},"1":{"ha":441,"x_min":57,"x_max":312,"o":"m 312 -714 l 312 0 l 213 0 l 213 -462 q 213 -491 215 -526 q 217 -561 217 -595 l 217 -595 q 213 -588 202 -575 q 190 -562 174 -546 l 174 -546 l 113 -486 l 57 -543 l 229 -714 l 312 -714 z"},"2":{"ha":441,"x_min":32,"x_max":398,"o":"m 398 0 l 32 0 l 32 -71 l 174 -275 q 218 -336 242 -379 q 266 -422 276 -458 q 286 -494 286 -537 l 286 -537 q 286 -567 276 -589 q 265 -612 246 -623 q 227 -635 199 -635 l 199 -635 q 169 -635 139 -623 q 109 -612 82 -591 l 82 -591 l 36 -664 q 59 -680 85 -694 q 111 -708 141 -716 q 171 -725 206 -725 l 206 -725 q 262 -725 302 -701 q 341 -678 363 -637 q 385 -596 385 -542 l 385 -542 q 385 -487 371 -440 q 356 -394 328 -346 q 299 -299 256 -242 l 256 -242 l 149 -93 l 149 -89 l 398 -89 l 398 0 z"},"3":{"ha":441,"x_min":30,"x_max":393,"o":"m 187 11 l 187 11 q 141 11 103 6 q 65 0 33 -13 l 33 -13 l 33 -105 q 68 -90 101 -82 q 134 -75 175 -75 l 175 -75 q 236 -75 263 -110 q 290 -146 290 -205 l 290 -205 q 290 -244 275 -270 q 260 -297 229 -311 q 197 -325 147 -325 l 147 -325 l 110 -325 l 110 -411 l 151 -411 q 195 -411 225 -426 q 254 -442 268 -470 q 282 -499 282 -535 l 282 -535 q 282 -584 260 -611 q 238 -638 192 -638 l 192 -638 q 158 -638 130 -625 q 102 -613 78 -596 l 78 -596 l 30 -668 q 72 -697 112 -711 q 152 -725 202 -725 l 202 -725 q 259 -725 299 -703 q 339 -682 360 -644 q 380 -606 380 -552 l 380 -552 q 380 -510 366 -475 q 351 -440 325 -414 q 298 -389 259 -375 l 259 -375 l 259 -371 q 324 -359 359 -313 q 393 -268 393 -198 l 393 -198 q 393 -137 370 -89 q 347 -42 301 -15 q 255 11 187 11 z"},"4":{"ha":441,"x_min":17,"x_max":426,"o":"m 354 0 l 257 0 l 257 -152 l 17 -152 l 17 -230 l 254 -718 l 354 -718 l 354 -235 l 426 -235 l 426 -152 l 354 -152 l 354 0 z m 223 -506 l 101 -235 l 257 -235 l 257 -477 q 257 -494 258 -517 q 258 -540 259 -561 q 260 -582 260 -590 l 260 -590 l 257 -590 q 249 -567 241 -545 q 232 -524 223 -506 l 223 -506 z"},"5":{"ha":441,"x_min":47,"x_max":397,"o":"m 183 11 l 183 11 q 144 11 108 4 q 72 -3 47 -13 l 47 -13 l 47 -108 q 74 -93 107 -84 q 139 -76 177 -76 l 177 -76 q 217 -76 244 -96 q 271 -116 284 -150 q 297 -185 297 -228 l 297 -228 q 297 -292 268 -325 q 238 -359 182 -359 l 182 -359 q 160 -359 136 -354 q 111 -350 90 -343 l 90 -343 l 53 -378 l 74 -714 l 358 -714 l 358 -624 l 158 -624 l 145 -437 q 163 -441 181 -442 q 199 -444 215 -444 l 215 -444 q 273 -444 314 -417 q 355 -391 376 -343 q 397 -296 397 -234 l 397 -234 q 397 -161 374 -105 q 350 -50 303 -19 q 255 11 183 11 z"},"6":{"ha":441,"x_min":43,"x_max":406,"o":"m 229 11 l 229 11 q 186 11 152 -8 q 118 -28 94 -68 q 69 -108 56 -167 q 43 -226 43 -303 l 43 -303 q 43 -378 51 -442 q 59 -506 76 -558 q 93 -610 122 -647 q 151 -684 193 -704 q 234 -724 290 -724 l 290 -724 q 310 -724 331 -721 q 352 -719 369 -715 l 369 -715 l 369 -626 q 353 -631 335 -634 q 317 -637 298 -637 l 298 -637 q 244 -637 209 -607 q 174 -578 157 -520 q 139 -462 136 -376 l 136 -376 l 140 -376 q 151 -401 167 -419 q 183 -437 205 -446 q 227 -456 254 -456 l 254 -456 q 304 -456 338 -426 q 372 -397 389 -345 q 406 -294 406 -229 l 406 -229 q 406 -160 386 -105 q 366 -51 327 -20 q 288 11 229 11 z m 228 -77 l 228 -77 q 264 -77 286 -113 q 308 -149 308 -228 l 308 -228 q 308 -297 288 -333 q 268 -370 228 -370 l 228 -370 q 200 -370 181 -353 q 162 -337 152 -310 q 142 -284 142 -254 l 142 -254 q 142 -225 147 -193 q 152 -162 162 -136 q 172 -110 188 -93 q 204 -77 228 -77 z"},"7":{"ha":441,"x_min":29,"x_max":407,"o":"m 195 0 l 93 0 l 308 -623 l 29 -623 l 29 -714 l 407 -714 l 407 -642 l 195 0 z"},"8":{"ha":441,"x_min":32,"x_max":409,"o":"m 223 11 l 223 11 q 163 11 120 -12 q 77 -35 55 -77 q 32 -120 32 -176 l 32 -176 q 32 -220 45 -255 q 58 -290 84 -319 q 110 -348 148 -372 l 148 -372 q 115 -398 94 -427 q 72 -456 61 -487 q 50 -519 50 -555 l 50 -555 q 50 -607 72 -645 q 93 -683 132 -703 q 170 -724 221 -724 l 221 -724 q 275 -724 313 -704 q 351 -684 372 -646 q 392 -608 392 -556 l 392 -556 q 392 -516 380 -483 q 368 -450 344 -423 q 320 -396 284 -374 l 284 -374 q 322 -348 350 -319 q 378 -291 394 -257 q 409 -223 409 -181 l 409 -181 q 409 -123 386 -80 q 362 -37 320 -13 q 278 11 223 11 z m 220 -70 l 220 -70 q 268 -70 291 -101 q 314 -132 314 -182 l 314 -182 q 314 -207 304 -230 q 294 -253 276 -274 q 257 -295 231 -314 l 231 -314 l 214 -327 q 184 -306 165 -284 q 145 -262 136 -236 q 127 -211 127 -178 l 127 -178 q 127 -131 151 -100 q 175 -70 220 -70 z m 219 -422 l 219 -422 q 245 -440 263 -459 q 280 -478 289 -500 q 297 -523 297 -552 l 297 -552 q 297 -597 278 -620 q 258 -643 221 -643 l 221 -643 q 188 -643 166 -618 q 144 -594 144 -550 l 144 -550 q 144 -522 153 -499 q 162 -476 179 -457 q 195 -439 219 -422 z"},"9":{"ha":441,"x_min":36,"x_max":399,"o":"m 150 11 l 150 11 q 131 11 108 9 q 84 6 69 2 l 69 2 l 69 -87 q 85 -82 104 -79 q 122 -76 143 -76 l 143 -76 q 188 -76 219 -97 q 249 -118 268 -154 q 286 -191 295 -238 q 304 -285 305 -338 l 305 -338 l 301 -338 q 290 -313 274 -295 q 258 -277 237 -267 q 215 -257 187 -257 l 187 -257 q 137 -257 104 -287 q 70 -317 53 -368 q 36 -419 36 -484 l 36 -484 q 36 -554 56 -608 q 75 -662 116 -693 q 156 -724 216 -724 l 216 -724 q 258 -724 292 -704 q 325 -685 349 -646 q 373 -608 386 -550 q 399 -493 399 -418 l 399 -418 q 399 -341 391 -275 q 382 -210 364 -157 q 345 -104 316 -66 q 287 -28 246 -8 q 204 11 150 11 z m 214 -344 l 214 -344 q 243 -344 262 -362 q 281 -380 291 -408 q 300 -436 300 -465 l 300 -465 q 300 -488 297 -517 q 294 -546 285 -573 q 275 -600 259 -618 q 242 -636 216 -636 l 216 -636 q 177 -636 156 -599 q 134 -563 134 -485 l 134 -485 q 134 -415 155 -379 q 175 -344 214 -344 z"},"\r":{"ha":221,"x_min":0,"x_max":0,"o":""}," ":{"ha":221,"x_min":0,"x_max":0,"o":""},"ഀ":{"ha":0,"x_min":-405,"x_max":-151,"o":"m -405 -719 l -405 -719 q -405 -787 -370 -825 q -336 -864 -279 -864 l -279 -864 q -221 -864 -186 -825 q -151 -787 -151 -719 l -151 -719 q -151 -651 -185 -612 q -220 -573 -279 -573 l -279 -573 q -337 -573 -371 -611 q -405 -650 -405 -719 z m -332 -719 l -332 -719 q -332 -686 -319 -663 q -307 -640 -279 -640 l -279 -640 q -251 -640 -237 -663 q -224 -686 -224 -719 l -224 -719 q -224 -753 -237 -775 q -251 -797 -279 -797 l -279 -797 q -306 -797 -319 -775 q -332 -753 -332 -719 z"},"ഁ":{"ha":0,"x_min":-425,"x_max":-132,"o":"m -278 -650 l -278 -650 q -345 -650 -385 -690 q -425 -730 -425 -809 l -425 -809 q -425 -824 -423 -837 q -421 -851 -418 -863 l -418 -863 l -349 -854 q -351 -844 -352 -832 q -354 -820 -354 -810 l -354 -810 q -354 -777 -344 -756 q -335 -736 -318 -727 q -301 -719 -279 -719 l -279 -719 q -257 -719 -240 -727 q -223 -735 -213 -755 q -203 -775 -203 -812 l -203 -812 q -203 -819 -204 -831 q -205 -844 -208 -855 l -208 -855 l -138 -862 q -136 -850 -134 -836 q -132 -823 -132 -810 l -132 -810 q -132 -731 -171 -690 q -210 -650 -278 -650 z m -279 -758 l -279 -758 q -300 -758 -311 -771 q -322 -785 -322 -808 l -322 -808 q -322 -831 -311 -845 q -300 -859 -279 -859 l -279 -859 q -258 -859 -246 -845 q -235 -832 -235 -809 l -235 -809 q -235 -785 -246 -771 q -258 -758 -279 -758 z"},"ം":{"ha":376,"x_min":31,"x_max":345,"o":"m 188 12 l 188 12 q 139 12 104 -10 q 69 -33 50 -76 q 31 -119 31 -177 l 31 -177 q 31 -238 51 -280 q 71 -322 106 -344 q 141 -366 188 -366 l 188 -366 q 235 -366 270 -344 q 305 -323 325 -281 q 345 -239 345 -177 l 345 -177 q 345 -117 325 -74 q 305 -32 270 -10 q 235 12 188 12 z m 188 -292 l 188 -292 q 157 -292 139 -266 q 120 -240 120 -176 l 120 -176 q 120 -114 139 -88 q 158 -62 188 -62 l 188 -62 q 218 -62 237 -88 q 256 -114 256 -177 l 256 -177 q 256 -240 238 -266 q 219 -292 188 -292 z"},"ഃ":{"ha":286,"x_min":29,"x_max":257,"o":"m 29 -437 l 29 -437 q 29 -498 61 -533 q 92 -568 142 -568 l 142 -568 q 193 -568 225 -533 q 257 -499 257 -437 l 257 -437 q 257 -375 226 -340 q 194 -305 142 -305 l 142 -305 q 91 -305 60 -340 q 29 -375 29 -437 z m 100 -438 l 100 -438 q 100 -407 111 -389 q 121 -372 142 -372 l 142 -372 q 164 -372 175 -389 q 186 -407 186 -437 l 186 -437 q 186 -468 175 -485 q 163 -502 142 -502 l 142 -502 q 122 -502 111 -485 q 100 -468 100 -438 z m 29 -120 l 29 -120 q 29 -182 61 -217 q 92 -252 142 -252 l 142 -252 q 193 -252 225 -217 q 257 -183 257 -120 l 257 -120 q 257 -57 226 -22 q 194 12 142 12 l 142 12 q 91 12 60 -23 q 29 -58 29 -120 z m 100 -120 l 100 -120 q 100 -89 111 -71 q 121 -54 142 -54 l 142 -54 q 164 -54 175 -71 q 186 -89 186 -120 l 186 -120 q 186 -150 175 -167 q 163 -185 142 -185 l 142 -185 q 122 -185 111 -167 q 100 -150 100 -120 z"},"ഄ":{"ha":498,"x_min":35,"x_max":463,"o":"m 50 -324 l 50 -324 l 138 -307 q 132 -285 130 -261 q 127 -238 127 -214 l 127 -214 q 127 -149 154 -109 q 180 -70 248 -70 l 248 -70 q 318 -70 345 -109 q 371 -148 371 -214 l 371 -214 q 371 -238 369 -261 q 366 -285 360 -307 l 360 -307 l 448 -324 q 453 -304 458 -275 q 463 -246 463 -213 l 463 -213 q 463 -149 443 -98 q 422 -48 375 -19 q 328 9 248 9 l 248 9 q 170 9 123 -19 q 76 -48 56 -98 q 35 -149 35 -213 l 35 -213 q 35 -246 40 -275 q 45 -304 50 -324 z m 210 -175 l 210 -407 l 291 -407 l 291 -175 l 210 -175 z"},"അ":{"ha":1176,"x_min":35,"x_max":1141,"o":"m 304 -568 l 304 -568 q 337 -568 376 -561 q 415 -554 452 -535 l 452 -535 q 458 -532 463 -526 q 467 -521 473 -517 l 473 -517 q 499 -503 520 -483 q 541 -463 554 -435 q 566 -408 566 -370 l 566 -370 q 566 -342 558 -319 q 549 -297 531 -279 q 513 -262 484 -250 l 484 -250 l 479 -260 q 523 -248 549 -215 q 575 -183 575 -134 l 575 -134 q 575 -94 560 -60 q 545 -27 511 -7 q 477 12 421 12 l 421 12 q 357 12 317 -18 q 277 -48 258 -103 q 239 -158 239 -236 l 239 -236 q 239 -292 252 -343 q 265 -395 292 -438 q 319 -481 360 -510 l 360 -510 q 365 -514 369 -519 q 373 -524 378 -527 l 378 -527 q 408 -546 446 -557 q 483 -568 526 -568 l 526 -568 q 578 -568 615 -554 q 651 -541 677 -516 q 703 -491 723 -457 l 723 -457 l 747 -252 l 747 0 l 654 0 l 654 -302 q 654 -370 647 -405 q 639 -440 615 -464 l 615 -464 q 600 -480 577 -488 q 554 -496 521 -496 l 521 -496 q 499 -496 479 -490 q 459 -485 443 -478 l 443 -478 q 414 -465 392 -442 q 370 -419 357 -386 q 343 -354 336 -315 q 329 -276 329 -232 l 329 -232 q 329 -140 352 -100 q 375 -61 417 -61 l 417 -61 q 450 -61 467 -79 q 484 -98 484 -135 l 484 -135 q 484 -173 462 -194 q 439 -216 399 -216 l 399 -216 l 394 -216 l 394 -292 l 398 -292 q 433 -292 455 -313 q 476 -335 476 -370 l 476 -370 q 476 -412 454 -440 q 432 -468 386 -481 l 386 -481 q 365 -490 348 -492 q 330 -495 314 -495 l 314 -495 q 251 -495 211 -467 q 171 -440 152 -392 q 132 -345 132 -284 l 132 -284 q 132 -229 143 -186 q 153 -143 172 -109 q 191 -76 216 -49 l 216 -49 l 149 9 q 117 -23 92 -65 q 66 -107 51 -162 q 35 -218 35 -290 l 35 -290 q 35 -344 50 -393 q 65 -443 97 -483 q 128 -523 180 -545 q 231 -568 304 -568 z m 973 12 l 973 12 q 919 12 886 -16 q 852 -44 836 -92 q 819 -140 819 -201 l 819 -201 q 819 -299 857 -351 q 894 -404 961 -404 l 961 -404 q 998 -404 1024 -386 q 1050 -369 1070 -336 q 1090 -304 1107 -258 l 1107 -258 l 1073 -244 q 1068 -261 1056 -281 q 1044 -301 1026 -315 q 1008 -330 983 -330 l 983 -330 q 945 -330 928 -295 q 911 -261 911 -198 l 911 -198 q 911 -155 918 -124 q 924 -94 939 -78 q 954 -63 976 -63 l 976 -63 q 1000 -63 1017 -80 q 1033 -98 1042 -138 q 1051 -178 1051 -243 l 1051 -243 q 1051 -249 1050 -270 q 1048 -291 1046 -310 l 1046 -310 q 1045 -315 1046 -322 q 1046 -330 1044 -333 l 1044 -333 q 1039 -375 1019 -410 q 998 -446 964 -468 q 929 -490 880 -490 l 880 -490 q 850 -490 829 -484 q 807 -478 789 -462 l 789 -462 q 774 -449 765 -429 q 756 -410 752 -380 q 747 -350 747 -304 l 747 -304 l 747 -210 l 685 -461 q 705 -493 731 -517 q 756 -541 792 -554 q 827 -568 877 -568 l 877 -568 q 943 -568 992 -544 q 1041 -521 1075 -477 q 1108 -433 1125 -373 q 1141 -313 1141 -241 l 1141 -241 q 1141 -146 1120 -90 q 1099 -35 1062 -11 q 1024 12 973 12 z"},"ആ":{"ha":1289,"x_min":35,"x_max":1267,"o":"m 304 -568 l 304 -568 q 337 -568 376 -561 q 415 -554 452 -535 l 452 -535 q 458 -532 463 -526 q 467 -521 473 -517 l 473 -517 q 499 -503 520 -483 q 541 -463 554 -435 q 566 -408 566 -370 l 566 -370 q 566 -342 558 -319 q 549 -297 531 -279 q 513 -262 484 -250 l 484 -250 l 479 -260 q 523 -248 549 -215 q 575 -183 575 -134 l 575 -134 q 575 -94 560 -60 q 545 -27 511 -7 q 477 12 421 12 l 421 12 q 357 12 317 -18 q 277 -48 258 -103 q 239 -158 239 -236 l 239 -236 q 239 -292 252 -343 q 265 -395 292 -438 q 319 -481 360 -510 l 360 -510 q 365 -514 369 -519 q 373 -524 378 -527 l 378 -527 q 408 -546 446 -557 q 483 -568 526 -568 l 526 -568 q 578 -568 615 -554 q 651 -541 677 -516 q 703 -491 723 -457 l 723 -457 l 747 -246 l 747 0 l 654 0 l 654 -302 q 654 -370 647 -405 q 639 -440 615 -464 l 615 -464 q 600 -480 577 -488 q 554 -496 521 -496 l 521 -496 q 499 -496 479 -490 q 459 -485 443 -478 l 443 -478 q 414 -465 392 -442 q 370 -419 357 -386 q 343 -354 336 -315 q 329 -276 329 -232 l 329 -232 q 329 -140 352 -100 q 375 -61 417 -61 l 417 -61 q 450 -61 467 -79 q 484 -98 484 -135 l 484 -135 q 484 -173 462 -194 q 439 -216 399 -216 l 399 -216 l 394 -216 l 394 -292 l 398 -292 q 433 -292 455 -313 q 476 -335 476 -370 l 476 -370 q 476 -412 454 -440 q 432 -468 386 -481 l 386 -481 q 365 -490 348 -492 q 330 -495 314 -495 l 314 -495 q 251 -495 211 -467 q 171 -440 152 -392 q 132 -345 132 -284 l 132 -284 q 132 -229 143 -186 q 153 -143 172 -109 q 191 -76 216 -49 l 216 -49 l 149 9 q 117 -23 92 -65 q 66 -107 51 -162 q 35 -218 35 -290 l 35 -290 q 35 -344 50 -393 q 65 -443 97 -483 q 128 -523 180 -545 q 231 -568 304 -568 z m 870 -568 l 870 -568 q 949 -568 1000 -536 q 1051 -504 1079 -451 q 1107 -398 1114 -335 l 1114 -335 q 1119 -310 1121 -283 q 1122 -256 1122 -229 l 1122 -229 q 1122 -141 1103 -88 q 1084 -35 1048 -11 q 1012 12 959 12 l 959 12 q 907 12 874 -12 q 840 -36 824 -77 q 808 -119 808 -172 l 808 -172 q 808 -277 867 -331 q 926 -386 1020 -386 l 1020 -386 q 1033 -386 1045 -385 q 1056 -385 1064 -383 l 1064 -383 l 1081 -382 q 1139 -370 1181 -331 q 1222 -292 1245 -231 q 1267 -170 1267 -91 l 1267 -91 q 1267 -27 1253 27 q 1239 80 1208 119 q 1177 158 1128 180 q 1079 201 1011 201 l 1011 201 q 980 201 954 197 q 928 192 902 184 l 902 184 l 928 110 q 950 117 970 120 q 990 122 1012 122 l 1012 122 q 1062 122 1094 104 q 1126 86 1145 56 q 1163 25 1171 -14 q 1178 -54 1178 -97 l 1178 -97 q 1178 -147 1169 -185 q 1160 -223 1143 -251 q 1126 -279 1100 -296 l 1100 -296 l 1072 -301 q 1060 -307 1047 -309 q 1033 -311 1024 -311 l 1024 -311 q 986 -311 958 -296 q 930 -281 915 -251 q 900 -221 900 -174 l 900 -174 q 900 -141 906 -116 q 912 -92 926 -78 q 939 -64 961 -64 l 961 -64 q 997 -64 1015 -100 q 1033 -137 1033 -234 l 1033 -234 q 1033 -263 1030 -293 q 1026 -323 1020 -352 l 1020 -352 l 1017 -372 q 1007 -406 988 -433 q 968 -460 940 -475 q 912 -490 872 -490 l 872 -490 q 848 -490 827 -484 q 806 -478 789 -462 l 789 -462 q 773 -449 765 -429 q 756 -409 752 -379 q 747 -349 747 -303 l 747 -303 l 747 -209 l 685 -461 q 704 -492 729 -516 q 753 -541 788 -554 q 823 -568 870 -568 z"},"ഇ":{"ha":762,"x_min":34,"x_max":727,"o":"m 256 -568 l 256 -568 q 304 -568 336 -556 q 367 -544 390 -523 q 413 -503 433 -476 l 433 -476 l 406 -482 q 433 -530 469 -549 q 505 -568 543 -568 l 543 -568 q 591 -568 626 -549 q 660 -530 683 -495 q 705 -460 716 -413 q 727 -367 727 -311 l 727 -311 q 727 -220 709 -161 q 690 -102 644 -63 l 644 -63 q 620 -42 588 -27 q 555 -13 510 -6 q 465 0 398 0 l 398 0 l 251 0 q 212 0 194 3 q 176 5 163 11 l 163 11 q 148 18 141 31 q 133 43 133 59 l 133 59 q 133 75 139 87 q 145 98 156 106 l 156 106 q 169 115 192 119 q 214 123 253 123 l 253 123 l 713 123 l 713 201 l 248 201 q 196 201 159 194 q 121 186 95 170 l 95 170 q 69 153 54 127 q 39 100 39 64 l 39 64 q 39 29 53 1 q 67 -28 95 -46 l 95 -46 q 110 -56 129 -62 q 148 -69 176 -72 q 203 -76 242 -76 l 242 -76 l 376 -76 q 436 -76 474 -81 q 511 -86 534 -95 q 557 -105 573 -118 l 573 -118 q 611 -148 622 -197 q 632 -247 632 -310 l 632 -310 q 632 -354 623 -395 q 613 -437 592 -464 q 571 -492 536 -492 l 536 -492 q 523 -492 512 -487 q 501 -482 493 -473 l 493 -473 q 477 -456 471 -425 q 464 -394 464 -339 l 464 -339 l 464 -136 l 371 -136 l 371 -335 q 371 -385 364 -414 q 356 -443 340 -460 l 340 -460 q 325 -477 306 -484 q 286 -492 255 -492 l 255 -492 q 228 -492 206 -484 q 184 -476 167 -461 q 150 -446 138 -424 q 125 -403 117 -378 l 117 -378 q 116 -372 117 -365 q 118 -358 117 -352 l 117 -352 q 116 -342 115 -331 q 113 -320 113 -306 l 113 -306 q 113 -248 127 -219 q 140 -190 170 -190 l 170 -190 q 194 -190 204 -212 q 214 -235 214 -269 l 214 -269 q 214 -294 210 -311 q 205 -329 194 -339 q 183 -349 165 -349 l 165 -349 q 139 -349 122 -335 q 105 -322 89 -305 l 89 -305 l 49 -337 q 64 -359 86 -377 q 107 -396 133 -407 q 158 -419 186 -419 l 186 -419 q 228 -419 254 -399 q 280 -379 292 -346 q 304 -313 304 -270 l 304 -270 q 304 -226 290 -191 q 276 -157 247 -137 q 217 -118 171 -118 l 171 -118 q 131 -118 100 -139 q 68 -161 51 -205 q 34 -249 34 -319 l 34 -319 q 34 -396 63 -451 q 91 -507 142 -537 q 192 -568 256 -568 z"},"ഈ":{"ha":1364,"x_min":34,"x_max":1327,"o":"m 256 -568 l 256 -568 q 304 -568 336 -556 q 367 -544 390 -523 q 413 -503 433 -476 l 433 -476 l 406 -482 q 433 -530 469 -549 q 505 -568 543 -568 l 543 -568 q 591 -568 626 -549 q 660 -530 683 -495 q 705 -460 716 -413 q 727 -367 727 -311 l 727 -311 q 727 -220 709 -161 q 690 -102 644 -63 l 644 -63 q 620 -42 588 -27 q 555 -13 510 -6 q 465 0 398 0 l 398 0 l 251 0 q 212 0 194 3 q 176 5 163 11 l 163 11 q 148 18 141 31 q 133 43 133 59 l 133 59 q 133 75 139 87 q 145 98 156 106 l 156 106 q 169 115 192 119 q 214 123 253 123 l 253 123 l 713 123 l 713 201 l 248 201 q 196 201 159 194 q 121 186 95 170 l 95 170 q 69 153 54 127 q 39 100 39 64 l 39 64 q 39 29 53 1 q 67 -28 95 -46 l 95 -46 q 110 -56 129 -62 q 148 -69 176 -72 q 203 -76 242 -76 l 242 -76 l 376 -76 q 436 -76 474 -81 q 511 -86 534 -95 q 557 -105 573 -118 l 573 -118 q 611 -148 622 -197 q 632 -247 632 -310 l 632 -310 q 632 -354 623 -395 q 613 -437 592 -464 q 571 -492 536 -492 l 536 -492 q 523 -492 512 -487 q 501 -482 493 -473 l 493 -473 q 477 -456 471 -425 q 464 -394 464 -339 l 464 -339 l 464 -136 l 371 -136 l 371 -335 q 371 -385 364 -414 q 356 -443 340 -460 l 340 -460 q 325 -477 306 -484 q 286 -492 255 -492 l 255 -492 q 228 -492 206 -484 q 184 -476 167 -461 q 150 -446 138 -424 q 125 -403 117 -378 l 117 -378 q 116 -372 117 -365 q 118 -358 117 -352 l 117 -352 q 116 -342 115 -331 q 113 -320 113 -306 l 113 -306 q 113 -248 127 -219 q 140 -190 170 -190 l 170 -190 q 194 -190 204 -212 q 214 -235 214 -269 l 214 -269 q 214 -294 210 -311 q 205 -329 194 -339 q 183 -349 165 -349 l 165 -349 q 139 -349 122 -335 q 105 -322 89 -305 l 89 -305 l 49 -337 q 64 -359 86 -377 q 107 -396 133 -407 q 158 -419 186 -419 l 186 -419 q 228 -419 254 -399 q 280 -379 292 -346 q 304 -313 304 -270 l 304 -270 q 304 -226 290 -191 q 276 -157 247 -137 q 217 -118 171 -118 l 171 -118 q 131 -118 100 -139 q 68 -161 51 -205 q 34 -249 34 -319 l 34 -319 q 34 -396 63 -451 q 91 -507 142 -537 q 192 -568 256 -568 z m 1164 -568 l 1164 -568 q 1216 -568 1253 -538 q 1289 -509 1308 -451 q 1327 -394 1327 -307 l 1327 -307 q 1327 -196 1300 -125 q 1272 -54 1219 -21 q 1165 12 1087 12 l 1087 12 q 1046 12 1002 4 q 958 -5 917 -28 l 917 -28 l 958 -101 q 984 -88 1015 -78 q 1046 -69 1080 -69 l 1080 -69 q 1136 -69 1170 -94 q 1203 -120 1218 -172 q 1232 -225 1232 -306 l 1232 -306 q 1232 -399 1211 -445 q 1190 -491 1155 -491 l 1155 -491 q 1143 -491 1135 -487 q 1127 -483 1121 -474 l 1121 -474 q 1110 -461 1106 -437 q 1101 -414 1101 -362 l 1101 -362 l 1101 -262 l 1009 -262 l 1009 -355 q 1009 -403 1006 -427 q 1002 -452 993 -467 l 993 -467 q 987 -479 976 -485 q 964 -491 951 -491 l 951 -491 q 919 -491 903 -462 q 887 -434 887 -393 l 887 -393 q 887 -359 891 -330 q 895 -301 901 -277 l 901 -277 l 813 -257 q 805 -288 799 -323 q 793 -359 793 -396 l 793 -396 q 793 -442 809 -481 q 825 -520 858 -544 q 890 -568 941 -568 l 941 -568 q 983 -568 1012 -550 q 1040 -533 1059 -499 l 1059 -499 l 1046 -500 q 1067 -538 1096 -553 q 1124 -568 1164 -568 z"},"ഉ":{"ha":549,"x_min":34,"x_max":514,"o":"m 274 -568 l 274 -568 q 341 -568 387 -544 q 432 -521 461 -481 q 489 -442 502 -393 q 514 -344 514 -293 l 514 -293 q 514 -211 496 -152 q 478 -93 437 -57 l 437 -57 q 411 -34 381 -22 q 351 -10 317 -5 q 282 0 244 0 l 244 0 l 230 0 q 208 0 192 2 q 176 4 163 10 l 163 10 q 148 17 141 30 q 133 43 133 59 l 133 59 q 133 75 139 87 q 145 98 156 106 l 156 106 q 169 115 192 119 q 214 123 253 123 l 253 123 l 499 123 l 499 201 l 248 201 q 196 201 159 194 q 121 186 95 170 l 95 170 q 69 153 54 127 q 39 100 39 64 l 39 64 q 39 28 53 0 q 67 -29 95 -47 l 95 -47 q 117 -62 149 -69 q 181 -76 223 -76 l 223 -76 l 223 -76 q 265 -76 293 -81 q 321 -86 340 -95 q 358 -104 371 -117 l 371 -117 q 401 -146 410 -191 q 419 -237 419 -291 l 419 -291 q 419 -326 412 -361 q 404 -396 387 -426 q 370 -456 341 -473 q 311 -491 267 -491 l 267 -491 q 236 -491 212 -482 q 187 -474 168 -458 q 149 -442 136 -420 q 123 -398 115 -372 l 115 -372 q 115 -367 117 -362 q 118 -357 117 -353 l 117 -353 q 116 -343 115 -332 q 113 -321 113 -306 l 113 -306 q 113 -248 127 -219 q 140 -190 170 -190 l 170 -190 q 194 -190 204 -212 q 214 -235 214 -269 l 214 -269 q 214 -294 210 -311 q 205 -329 194 -339 q 183 -349 165 -349 l 165 -349 q 139 -349 122 -335 q 104 -322 88 -305 l 88 -305 l 49 -337 q 64 -359 86 -377 q 107 -396 133 -407 q 158 -419 186 -419 l 186 -419 q 228 -419 254 -399 q 280 -379 292 -346 q 304 -313 304 -270 l 304 -270 q 304 -226 290 -191 q 276 -157 247 -137 q 217 -118 171 -118 l 171 -118 q 131 -118 100 -139 q 68 -160 51 -204 q 34 -249 34 -318 l 34 -318 q 34 -376 51 -422 q 68 -469 100 -501 q 131 -534 175 -551 q 219 -568 274 -568 z"},"ഊ":{"ha":1149,"x_min":34,"x_max":1112,"o":"m 274 -568 l 274 -568 q 341 -568 387 -544 q 432 -521 461 -481 q 489 -442 502 -393 q 514 -344 514 -293 l 514 -293 q 514 -211 496 -152 q 478 -93 437 -57 l 437 -57 q 411 -34 381 -22 q 351 -10 317 -5 q 282 0 244 0 l 244 0 l 230 0 q 208 0 192 2 q 176 4 163 10 l 163 10 q 148 17 141 30 q 133 43 133 59 l 133 59 q 133 75 139 87 q 145 98 156 106 l 156 106 q 169 115 192 119 q 214 123 253 123 l 253 123 l 499 123 l 499 201 l 248 201 q 196 201 159 194 q 121 186 95 170 l 95 170 q 69 153 54 127 q 39 100 39 64 l 39 64 q 39 28 53 0 q 67 -29 95 -47 l 95 -47 q 117 -62 149 -69 q 181 -76 223 -76 l 223 -76 l 223 -76 q 265 -76 293 -81 q 321 -86 340 -95 q 358 -104 371 -117 l 371 -117 q 401 -146 410 -191 q 419 -237 419 -291 l 419 -291 q 419 -326 412 -361 q 404 -396 387 -426 q 370 -456 341 -473 q 311 -491 267 -491 l 267 -491 q 236 -491 212 -482 q 187 -474 168 -458 q 149 -442 136 -420 q 123 -398 115 -372 l 115 -372 q 115 -367 117 -362 q 118 -357 117 -353 l 117 -353 q 116 -343 115 -332 q 113 -321 113 -306 l 113 -306 q 113 -248 127 -219 q 140 -190 170 -190 l 170 -190 q 194 -190 204 -212 q 214 -235 214 -269 l 214 -269 q 214 -294 210 -311 q 205 -329 194 -339 q 183 -349 165 -349 l 165 -349 q 139 -349 122 -335 q 104 -322 88 -305 l 88 -305 l 49 -337 q 64 -359 86 -377 q 107 -396 133 -407 q 158 -419 186 -419 l 186 -419 q 228 -419 254 -399 q 280 -379 292 -346 q 304 -313 304 -270 l 304 -270 q 304 -226 290 -191 q 276 -157 247 -137 q 217 -118 171 -118 l 171 -118 q 131 -118 100 -139 q 68 -160 51 -204 q 34 -249 34 -318 l 34 -318 q 34 -376 51 -422 q 68 -469 100 -501 q 131 -534 175 -551 q 219 -568 274 -568 z m 949 -568 l 949 -568 q 1001 -568 1038 -538 q 1074 -509 1093 -451 q 1112 -394 1112 -307 l 1112 -307 q 1112 -196 1085 -125 q 1057 -54 1004 -21 q 950 12 872 12 l 872 12 q 831 12 787 4 q 743 -5 702 -28 l 702 -28 l 743 -101 q 769 -88 800 -78 q 831 -69 865 -69 l 865 -69 q 921 -69 955 -94 q 988 -120 1003 -172 q 1017 -225 1017 -306 l 1017 -306 q 1017 -399 996 -445 q 975 -491 940 -491 l 940 -491 q 928 -491 920 -487 q 912 -483 906 -474 l 906 -474 q 895 -461 891 -437 q 886 -414 886 -362 l 886 -362 l 886 -262 l 794 -262 l 794 -355 q 794 -403 791 -427 q 787 -452 778 -467 l 778 -467 q 772 -479 761 -485 q 749 -491 736 -491 l 736 -491 q 704 -491 688 -462 q 672 -434 672 -393 l 672 -393 q 672 -359 676 -330 q 680 -301 686 -277 l 686 -277 l 598 -257 q 590 -288 584 -323 q 578 -359 578 -396 l 578 -396 q 578 -442 594 -481 q 610 -520 643 -544 q 675 -568 726 -568 l 726 -568 q 768 -568 797 -550 q 825 -533 844 -499 l 844 -499 l 831 -500 q 852 -538 881 -553 q 909 -568 949 -568 z"},"ഋ":{"ha":714,"x_min":33,"x_max":681,"o":"m 530 -568 l 530 -568 q 600 -568 641 -513 q 681 -459 681 -360 l 681 -360 q 681 -296 665 -248 q 648 -201 615 -167 l 615 -167 q 577 -127 524 -106 q 471 -86 398 -86 l 398 -86 l 322 -86 q 273 -86 231 -94 q 189 -103 157 -121 q 125 -139 100 -166 l 100 -166 q 67 -201 50 -248 q 33 -295 33 -358 l 33 -358 q 33 -420 52 -467 q 71 -515 108 -541 q 144 -568 195 -568 l 195 -568 q 241 -568 271 -547 q 301 -526 316 -490 q 330 -454 330 -409 l 330 -409 q 330 -355 315 -319 q 300 -283 271 -264 q 242 -246 198 -246 l 198 -246 q 171 -246 147 -256 q 122 -266 101 -282 q 79 -298 61 -317 l 61 -317 l 88 -381 q 103 -361 116 -347 q 129 -333 144 -326 q 158 -319 176 -319 l 176 -319 q 210 -319 226 -341 q 241 -364 241 -411 l 241 -411 q 241 -448 228 -471 q 215 -494 190 -494 l 190 -494 q 167 -494 152 -479 q 136 -464 128 -435 q 120 -407 120 -366 l 120 -366 q 120 -349 122 -331 q 124 -314 127 -299 l 127 -299 l 125 -277 q 134 -246 155 -223 q 175 -201 204 -186 q 232 -172 265 -164 q 298 -157 332 -157 l 332 -157 l 383 -157 q 416 -157 449 -164 q 481 -171 510 -185 q 539 -200 560 -223 q 580 -247 590 -279 l 590 -279 l 587 -300 q 590 -313 592 -331 q 594 -350 594 -367 l 594 -367 q 594 -409 587 -437 q 580 -466 567 -480 q 553 -494 531 -494 l 531 -494 q 503 -494 489 -470 q 474 -447 474 -404 l 474 -404 q 474 -362 488 -340 q 502 -319 536 -319 l 536 -319 q 555 -319 570 -326 q 584 -333 598 -347 q 611 -361 626 -380 l 626 -380 l 653 -315 q 636 -298 615 -282 q 593 -266 569 -256 q 544 -246 516 -246 l 516 -246 q 473 -246 444 -264 q 414 -283 399 -318 q 384 -354 384 -405 l 384 -405 q 384 -452 400 -489 q 416 -526 449 -547 q 481 -568 530 -568 z m 357 224 l 357 224 q 266 224 203 204 q 139 183 106 142 q 72 100 72 37 l 72 37 q 72 -7 90 -39 q 108 -71 141 -91 q 173 -112 217 -122 q 260 -133 309 -133 l 309 -133 l 404 -133 q 455 -133 498 -122 q 541 -112 574 -91 q 606 -71 624 -39 q 642 -7 642 37 l 642 37 q 642 99 610 140 q 578 181 514 203 q 450 224 357 224 z m 358 145 l 358 145 q 425 145 467 133 q 508 120 528 95 q 547 70 547 33 l 547 33 q 547 1 533 -20 q 519 -42 494 -55 q 469 -68 437 -73 q 405 -79 368 -79 l 368 -79 l 347 -79 q 296 -79 256 -68 q 215 -57 191 -32 q 167 -8 167 33 l 167 33 q 167 70 187 95 q 206 120 249 133 q 291 145 358 145 z"},"ഌ":{"ha":924,"x_min":37,"x_max":889,"o":"m 288 -568 l 288 -568 q 351 -568 391 -544 q 430 -521 462 -475 l 462 -475 l 479 -409 l 495 -239 l 495 0 l 402 0 l 402 -316 q 402 -375 395 -407 q 388 -439 370 -459 l 370 -459 q 358 -473 339 -482 q 319 -491 289 -491 l 289 -491 q 240 -491 203 -461 q 166 -431 145 -376 q 124 -322 124 -248 l 124 -248 l 124 -225 q 124 -164 133 -128 q 142 -93 158 -78 q 173 -64 193 -64 l 193 -64 q 209 -64 221 -74 q 232 -84 238 -104 q 244 -125 244 -160 l 244 -160 q 244 -213 229 -235 q 214 -257 184 -257 l 184 -257 q 158 -257 137 -242 q 115 -228 91 -197 l 91 -197 l 72 -261 q 94 -287 130 -309 q 165 -331 206 -331 l 206 -331 q 248 -331 277 -312 q 305 -294 320 -256 q 335 -219 335 -164 l 335 -164 q 335 -104 319 -65 q 302 -27 271 -7 q 240 12 195 12 l 195 12 q 152 12 117 -12 q 81 -37 59 -92 q 37 -148 37 -242 l 37 -242 q 37 -353 70 -425 q 103 -498 160 -533 q 216 -568 288 -568 z m 721 12 l 721 12 q 667 12 633 -16 q 599 -44 583 -92 q 567 -140 567 -201 l 567 -201 q 567 -299 604 -351 q 641 -404 709 -404 l 709 -404 q 746 -404 772 -386 q 797 -369 818 -336 q 838 -304 854 -258 l 854 -258 l 821 -244 q 815 -261 804 -281 q 792 -301 774 -315 q 756 -330 731 -330 l 731 -330 q 693 -330 676 -295 q 659 -261 659 -198 l 659 -198 q 659 -155 666 -124 q 672 -94 687 -78 q 702 -63 724 -63 l 724 -63 q 747 -63 764 -80 q 780 -98 789 -138 q 798 -178 798 -243 l 798 -243 q 798 -249 797 -270 q 796 -291 793 -310 l 793 -310 q 792 -315 793 -322 q 794 -330 792 -333 l 792 -333 q 786 -375 766 -410 q 746 -446 712 -468 q 677 -490 627 -490 l 627 -490 q 598 -490 577 -484 q 555 -478 537 -462 l 537 -462 q 522 -449 513 -429 q 503 -410 499 -380 q 495 -350 495 -304 l 495 -304 l 495 -210 l 433 -461 q 453 -493 479 -517 q 504 -541 539 -554 q 574 -568 625 -568 l 625 -568 q 691 -568 740 -544 q 789 -521 823 -477 q 856 -433 873 -373 q 889 -313 889 -241 l 889 -241 q 889 -146 868 -90 q 847 -35 810 -11 q 772 12 721 12 z"},"എ":{"ha":995,"x_min":30,"x_max":957,"o":"m 191 -351 l 191 -351 q 247 -351 283 -326 q 318 -301 335 -262 q 352 -223 352 -179 l 352 -179 q 352 -137 339 -106 q 326 -76 316 -61 l 316 -61 l 302 -76 l 674 -76 l 669 0 l 262 0 l 228 -54 q 240 -75 251 -102 q 261 -130 261 -169 l 261 -169 q 261 -218 244 -246 q 226 -275 193 -275 l 193 -275 q 170 -275 154 -262 q 138 -250 130 -227 q 122 -205 122 -175 l 122 -175 q 122 -129 136 -98 q 149 -68 168 -37 l 168 -37 l 97 8 q 69 -29 50 -73 q 30 -118 30 -176 l 30 -176 q 30 -229 50 -268 q 70 -307 107 -329 q 143 -351 191 -351 z m 703 -568 l 703 -568 q 766 -568 814 -544 q 861 -520 893 -472 q 925 -424 941 -351 q 957 -279 957 -184 l 957 -184 q 957 -109 944 -35 q 931 38 906 105 q 881 171 844 228 l 844 228 l 769 183 q 798 135 819 80 q 839 24 850 -41 q 861 -106 861 -183 l 861 -183 q 861 -246 853 -301 q 844 -357 826 -400 q 807 -443 777 -467 q 746 -491 701 -491 l 701 -491 q 644 -491 607 -449 q 570 -407 552 -330 q 533 -254 533 -150 l 533 -150 q 533 -118 534 -94 q 535 -70 536 -50 l 536 -50 q 537 -44 537 -38 q 536 -33 536 -27 l 536 -27 q 540 43 551 82 q 562 121 579 137 q 595 153 613 153 l 613 153 q 628 153 636 145 l 636 145 q 642 138 645 126 q 647 113 647 89 l 647 89 l 647 -400 l 739 -400 l 739 56 q 739 102 734 134 q 729 165 713 187 l 713 187 q 700 205 677 217 q 654 228 620 228 l 620 228 q 564 228 523 192 q 482 155 461 73 q 440 -10 440 -148 l 440 -148 q 440 -247 457 -324 q 473 -402 506 -456 q 539 -511 589 -539 q 638 -568 703 -568 z"},"ഏ":{"ha":1006,"x_min":30,"x_max":977,"o":"m 191 -351 l 191 -351 q 247 -351 282 -326 q 317 -301 334 -262 q 351 -223 351 -179 l 351 -179 q 351 -137 339 -106 q 326 -76 316 -61 l 316 -61 l 299 -76 l 672 -76 l 669 0 l 262 0 l 228 -54 q 240 -75 251 -102 q 261 -130 261 -169 l 261 -169 q 261 -218 244 -246 q 226 -275 192 -275 l 192 -275 q 170 -275 154 -262 q 138 -250 130 -227 q 121 -205 121 -175 l 121 -175 q 121 -129 135 -98 q 149 -68 168 -37 l 168 -37 l 97 8 q 69 -29 50 -73 q 30 -118 30 -176 l 30 -176 q 30 -229 50 -268 q 70 -307 107 -329 q 143 -351 191 -351 z m 737 -568 l 737 -568 q 802 -568 847 -548 q 891 -529 919 -495 q 946 -462 958 -421 q 970 -381 970 -339 l 970 -339 q 970 -284 955 -245 q 940 -206 917 -181 q 893 -156 867 -139 l 867 -139 l 867 -151 q 915 -129 946 -84 q 977 -40 977 31 l 977 31 q 977 102 957 146 q 937 189 902 209 q 866 228 821 228 l 821 228 q 800 228 783 226 q 765 224 753 221 l 753 221 l 769 146 q 778 149 787 150 q 795 151 804 151 l 804 151 q 831 151 848 139 q 865 127 874 100 q 883 73 883 30 l 883 30 q 883 -27 859 -63 q 834 -100 784 -101 l 784 -101 l 784 -178 q 811 -186 831 -205 q 851 -224 863 -255 q 875 -287 875 -334 l 875 -334 q 875 -379 860 -414 q 845 -450 814 -470 q 782 -490 734 -490 l 734 -490 q 663 -490 619 -446 q 574 -402 554 -325 q 533 -248 533 -150 l 533 -150 q 533 -118 534 -94 q 535 -70 536 -50 l 536 -50 q 536 -45 536 -38 q 535 -32 535 -27 l 535 -27 q 539 43 550 82 q 561 121 578 137 q 595 153 613 153 l 613 153 q 627 153 635 145 l 635 145 q 642 138 644 126 q 646 113 646 89 l 646 89 l 646 -400 l 739 -400 l 739 56 q 739 102 734 134 q 729 165 712 187 l 712 187 q 699 205 677 217 q 654 228 620 228 l 620 228 q 564 228 524 192 q 483 155 461 73 q 439 -10 439 -149 l 439 -149 q 439 -247 458 -325 q 477 -403 516 -457 q 554 -512 609 -540 q 664 -568 737 -568 z"},"ഐ":{"ha":1563,"x_min":36,"x_max":1526,"o":"m 194 12 l 194 12 q 151 12 115 -12 q 79 -36 58 -90 q 36 -145 36 -235 l 36 -235 q 36 -315 55 -376 q 74 -438 109 -481 q 143 -524 191 -546 q 239 -568 297 -568 l 297 -568 q 357 -568 402 -547 q 447 -527 476 -489 q 505 -451 519 -400 q 533 -349 533 -289 l 533 -289 q 533 -218 519 -163 q 504 -109 478 -67 q 452 -26 419 10 l 419 10 l 352 -48 q 374 -73 394 -105 q 413 -138 425 -181 q 437 -224 437 -281 l 437 -281 q 437 -349 421 -395 q 404 -442 372 -466 q 339 -490 293 -490 l 293 -490 q 243 -490 204 -458 q 165 -426 144 -368 q 123 -310 123 -232 l 123 -232 q 123 -167 132 -130 q 140 -94 156 -79 q 171 -64 191 -64 l 191 -64 q 207 -64 219 -74 q 230 -84 237 -104 q 243 -125 243 -160 l 243 -160 q 243 -213 228 -235 q 213 -257 182 -257 l 182 -257 q 157 -257 136 -242 q 114 -228 90 -197 l 90 -197 l 70 -261 q 92 -287 128 -309 q 163 -331 205 -331 l 205 -331 q 246 -331 275 -312 q 303 -294 319 -256 q 334 -219 334 -164 l 334 -164 q 334 -105 318 -66 q 301 -27 270 -7 q 239 12 194 12 z m 759 -351 l 759 -351 q 815 -351 851 -326 q 886 -301 903 -262 q 920 -223 920 -179 l 920 -179 q 920 -137 907 -106 q 894 -76 884 -61 l 884 -61 l 870 -76 l 1242 -76 l 1237 0 l 830 0 l 796 -54 q 808 -75 819 -102 q 829 -130 829 -169 l 829 -169 q 829 -218 812 -246 q 794 -275 761 -275 l 761 -275 q 738 -275 722 -262 q 706 -250 698 -227 q 690 -205 690 -175 l 690 -175 q 690 -129 704 -98 q 717 -68 736 -37 l 736 -37 l 665 8 q 637 -29 618 -73 q 598 -118 598 -176 l 598 -176 q 598 -229 618 -268 q 638 -307 675 -329 q 711 -351 759 -351 z m 1271 -568 l 1271 -568 q 1334 -568 1382 -544 q 1429 -520 1461 -472 q 1493 -424 1509 -351 q 1525 -279 1525 -184 l 1525 -184 q 1525 -109 1512 -35 q 1499 38 1474 105 q 1449 171 1412 228 l 1412 228 l 1337 183 q 1366 135 1387 80 q 1407 24 1418 -41 q 1429 -106 1429 -183 l 1429 -183 q 1429 -246 1421 -301 q 1412 -357 1394 -400 q 1375 -443 1345 -467 q 1314 -491 1269 -491 l 1269 -491 q 1212 -491 1175 -449 q 1138 -407 1120 -330 q 1101 -254 1101 -150 l 1101 -150 q 1101 -118 1102 -94 q 1103 -70 1104 -50 l 1104 -50 q 1105 -44 1105 -38 q 1104 -33 1104 -27 l 1104 -27 q 1108 43 1119 82 q 1130 121 1147 137 q 1163 153 1181 153 l 1181 153 q 1196 153 1204 145 l 1204 145 q 1210 138 1213 126 q 1215 113 1215 89 l 1215 89 l 1215 -400 l 1307 -400 l 1307 56 q 1307 102 1302 134 q 1297 165 1281 187 l 1281 187 q 1268 205 1245 217 q 1222 228 1188 228 l 1188 228 q 1132 228 1091 192 q 1050 155 1029 73 q 1008 -10 1008 -148 l 1008 -148 q 1008 -247 1025 -324 q 1041 -402 1074 -456 q 1107 -511 1157 -539 q 1206 -568 1271 -568 z"},"ഒ":{"ha":610,"x_min":35,"x_max":579,"o":"m 364 -568 l 364 -568 q 438 -568 485 -545 q 531 -523 552 -485 q 573 -448 573 -404 l 573 -404 q 573 -375 564 -351 q 555 -327 535 -308 q 515 -289 481 -275 l 481 -275 l 480 -281 q 525 -268 552 -229 q 579 -191 579 -142 l 579 -142 q 579 -70 541 -29 q 502 11 430 11 l 430 11 q 408 11 386 8 q 364 5 349 1 l 349 1 l 365 -72 q 377 -68 390 -66 q 402 -65 414 -65 l 414 -65 q 450 -65 467 -85 q 484 -106 484 -144 l 484 -144 q 484 -165 478 -182 q 471 -200 459 -213 l 459 -213 q 446 -226 425 -233 q 404 -240 375 -240 l 375 -240 l 372 -240 l 372 -316 l 374 -316 q 407 -316 426 -321 q 444 -327 457 -340 l 457 -340 q 468 -351 473 -365 q 478 -379 478 -397 l 478 -397 q 478 -443 447 -466 q 416 -490 359 -490 l 359 -490 q 307 -490 264 -473 q 221 -456 189 -423 q 157 -391 140 -344 q 122 -297 122 -239 l 122 -239 l 122 -218 q 122 -161 131 -127 q 139 -93 155 -78 q 171 -64 191 -64 l 191 -64 q 207 -64 219 -73 q 230 -83 236 -104 q 242 -125 242 -160 l 242 -160 q 242 -213 228 -235 q 213 -257 182 -257 l 182 -257 q 156 -257 134 -242 q 112 -227 88 -195 l 88 -195 l 66 -257 q 88 -285 125 -308 q 161 -331 204 -331 l 204 -331 q 246 -331 275 -312 q 303 -294 318 -256 q 333 -219 333 -163 l 333 -163 q 333 -104 317 -65 q 300 -27 269 -7 q 238 12 193 12 l 193 12 q 150 12 114 -12 q 78 -37 57 -89 q 35 -141 35 -226 l 35 -226 q 35 -306 58 -369 q 80 -433 123 -477 q 165 -522 226 -545 q 287 -568 364 -568 z"},"ഓ":{"ha":1027,"x_min":35,"x_max":989,"o":"m 364 -568 l 364 -568 q 438 -568 485 -545 q 531 -523 552 -485 q 573 -448 573 -404 l 573 -404 q 573 -375 564 -351 q 555 -327 535 -308 q 515 -289 481 -275 l 481 -275 l 480 -281 q 525 -268 552 -229 q 579 -191 579 -142 l 579 -142 q 579 -70 541 -29 q 502 11 430 11 l 430 11 q 408 11 386 8 q 364 5 349 1 l 349 1 l 365 -72 q 377 -68 390 -66 q 402 -65 414 -65 l 414 -65 q 450 -65 467 -85 q 484 -106 484 -144 l 484 -144 q 484 -165 478 -182 q 471 -200 459 -213 l 459 -213 q 446 -226 425 -233 q 404 -240 375 -240 l 375 -240 l 372 -240 l 372 -316 l 374 -316 q 407 -316 426 -321 q 444 -327 457 -340 l 457 -340 q 468 -351 473 -365 q 478 -379 478 -397 l 478 -397 q 478 -443 447 -466 q 416 -490 359 -490 l 359 -490 q 307 -490 264 -473 q 221 -456 189 -423 q 157 -391 140 -344 q 122 -297 122 -239 l 122 -239 l 122 -218 q 122 -161 131 -127 q 139 -93 155 -78 q 171 -64 191 -64 l 191 -64 q 207 -64 219 -73 q 230 -83 236 -104 q 242 -125 242 -160 l 242 -160 q 242 -213 228 -235 q 213 -257 182 -257 l 182 -257 q 156 -257 134 -242 q 112 -227 88 -195 l 88 -195 l 66 -257 q 88 -285 125 -308 q 161 -331 204 -331 l 204 -331 q 246 -331 275 -312 q 303 -294 318 -256 q 333 -219 333 -163 l 333 -163 q 333 -104 317 -65 q 300 -27 269 -7 q 238 12 193 12 l 193 12 q 150 12 114 -12 q 78 -37 57 -89 q 35 -141 35 -226 l 35 -226 q 35 -306 58 -369 q 80 -433 123 -477 q 165 -522 226 -545 q 287 -568 364 -568 z m 989 -280 l 989 -280 q 989 -214 980 -160 q 971 -106 951 -67 q 930 -29 896 -8 q 862 12 810 12 l 810 12 q 765 12 733 -4 q 700 -20 679 -47 q 658 -74 647 -107 q 635 -140 630 -174 l 630 -174 l 724 -192 q 729 -165 738 -135 q 747 -105 764 -84 q 780 -64 807 -64 l 807 -64 q 839 -64 858 -88 q 876 -112 885 -160 q 894 -209 894 -280 l 894 -280 q 894 -349 885 -396 q 876 -444 858 -468 q 839 -493 810 -493 l 810 -493 q 785 -493 768 -475 q 751 -457 742 -428 q 732 -399 726 -366 l 726 -366 l 633 -384 q 641 -419 654 -452 q 667 -485 688 -511 q 709 -538 741 -553 q 772 -568 817 -568 l 817 -568 q 866 -568 899 -547 q 932 -527 952 -489 q 972 -451 981 -397 q 989 -344 989 -280 z"},"ഔ":{"ha":1210,"x_min":35,"x_max":1173,"o":"m 364 -568 l 364 -568 q 438 -568 485 -545 q 531 -523 552 -485 q 573 -448 573 -404 l 573 -404 q 573 -375 564 -351 q 555 -327 535 -308 q 515 -289 481 -275 l 481 -275 l 480 -281 q 525 -268 552 -229 q 579 -191 579 -142 l 579 -142 q 579 -70 541 -29 q 502 11 430 11 l 430 11 q 408 11 386 8 q 364 5 349 1 l 349 1 l 365 -72 q 377 -68 390 -66 q 402 -65 414 -65 l 414 -65 q 450 -65 467 -85 q 484 -106 484 -144 l 484 -144 q 484 -165 478 -182 q 471 -200 459 -213 l 459 -213 q 446 -226 425 -233 q 404 -240 375 -240 l 375 -240 l 372 -240 l 372 -316 l 374 -316 q 407 -316 426 -321 q 444 -327 457 -340 l 457 -340 q 468 -351 473 -365 q 478 -379 478 -397 l 478 -397 q 478 -443 447 -466 q 416 -490 359 -490 l 359 -490 q 307 -490 264 -473 q 221 -456 189 -423 q 157 -391 140 -344 q 122 -297 122 -239 l 122 -239 l 122 -218 q 122 -161 131 -127 q 139 -93 155 -78 q 171 -64 191 -64 l 191 -64 q 207 -64 219 -73 q 230 -83 236 -104 q 242 -125 242 -160 l 242 -160 q 242 -213 228 -235 q 213 -257 182 -257 l 182 -257 q 156 -257 134 -242 q 112 -227 88 -195 l 88 -195 l 66 -257 q 88 -285 125 -308 q 161 -331 204 -331 l 204 -331 q 246 -331 275 -312 q 303 -294 318 -256 q 333 -219 333 -163 l 333 -163 q 333 -104 317 -65 q 300 -27 269 -7 q 238 12 193 12 l 193 12 q 150 12 114 -12 q 78 -37 57 -89 q 35 -141 35 -226 l 35 -226 q 35 -306 58 -369 q 80 -433 123 -477 q 165 -522 226 -545 q 287 -568 364 -568 z m 1010 -568 l 1010 -568 q 1062 -568 1099 -538 q 1135 -509 1154 -451 q 1173 -394 1173 -307 l 1173 -307 q 1173 -196 1146 -125 q 1118 -54 1065 -21 q 1011 12 933 12 l 933 12 q 892 12 848 4 q 804 -5 763 -28 l 763 -28 l 804 -101 q 830 -88 861 -78 q 892 -69 926 -69 l 926 -69 q 982 -69 1016 -94 q 1049 -120 1064 -172 q 1078 -225 1078 -306 l 1078 -306 q 1078 -399 1057 -445 q 1036 -491 1001 -491 l 1001 -491 q 989 -491 981 -487 q 973 -483 967 -474 l 967 -474 q 956 -461 952 -437 q 947 -414 947 -362 l 947 -362 l 947 -262 l 855 -262 l 855 -355 q 855 -403 852 -427 q 848 -452 839 -467 l 839 -467 q 833 -479 822 -485 q 810 -491 797 -491 l 797 -491 q 765 -491 749 -462 q 733 -434 733 -393 l 733 -393 q 733 -359 737 -330 q 741 -301 747 -277 l 747 -277 l 659 -257 q 651 -288 645 -323 q 639 -359 639 -396 l 639 -396 q 639 -442 655 -481 q 671 -520 704 -544 q 736 -568 787 -568 l 787 -568 q 829 -568 858 -550 q 886 -533 905 -499 l 905 -499 l 892 -500 q 913 -538 942 -553 q 970 -568 1010 -568 z"},"ക":{"ha":824,"x_min":29,"x_max":795,"o":"m 181 12 l 181 12 q 109 12 69 -32 q 29 -77 29 -154 l 29 -154 q 29 -208 51 -241 q 72 -275 107 -295 l 107 -295 q 128 -308 154 -316 q 179 -324 216 -327 q 252 -331 307 -331 l 307 -331 l 530 -331 q 612 -331 657 -321 q 701 -312 730 -290 l 730 -290 q 760 -270 778 -235 q 795 -201 795 -151 l 795 -151 q 795 -75 754 -31 q 712 12 647 12 l 647 12 q 628 12 614 10 q 599 7 581 3 l 581 3 l 598 -71 q 607 -69 616 -67 q 624 -66 635 -66 l 635 -66 q 668 -66 686 -87 q 704 -109 704 -151 l 704 -151 q 704 -176 697 -195 q 689 -214 674 -226 l 674 -226 q 656 -241 628 -248 q 600 -255 538 -255 l 538 -255 l 281 -255 q 233 -255 204 -250 q 175 -245 154 -230 l 154 -230 q 139 -218 129 -200 q 119 -182 119 -154 l 119 -154 q 119 -127 128 -106 q 136 -86 153 -75 q 170 -65 194 -65 l 194 -65 q 221 -65 241 -74 q 261 -84 285 -103 l 285 -103 l 328 -40 q 301 -19 278 -7 q 254 4 231 8 q 207 12 181 12 z m 413 -568 l 413 -568 q 478 -568 519 -534 q 560 -500 580 -435 q 600 -371 600 -280 l 600 -280 q 600 -179 578 -114 q 555 -49 513 -18 q 471 12 412 12 l 412 12 q 362 12 329 -8 q 295 -28 273 -61 l 273 -61 q 246 -102 235 -160 q 224 -218 224 -281 l 224 -281 q 224 -427 274 -497 q 323 -568 413 -568 z m 413 -492 l 413 -492 q 364 -492 340 -442 q 316 -392 316 -279 l 316 -279 q 316 -202 327 -154 q 337 -107 359 -85 q 380 -64 412 -64 l 412 -64 q 443 -64 465 -85 q 486 -106 497 -153 q 508 -201 508 -279 l 508 -279 q 508 -356 497 -403 q 486 -450 465 -471 q 444 -492 413 -492 z"},"ഖ":{"ha":793,"x_min":37,"x_max":735,"o":"m 300 -568 l 300 -568 q 361 -568 405 -547 q 449 -527 478 -489 q 506 -452 520 -402 q 534 -352 534 -293 l 534 -293 q 534 -237 523 -192 q 512 -147 494 -110 q 476 -73 452 -42 l 452 -42 l 451 0 l 409 0 l 360 -56 q 380 -78 398 -110 q 415 -142 427 -185 q 438 -229 438 -284 l 438 -284 q 438 -351 421 -397 q 404 -443 373 -466 q 341 -490 296 -490 l 296 -490 q 242 -490 204 -458 q 165 -426 144 -370 q 123 -314 123 -243 l 123 -243 l 123 -223 q 123 -163 132 -128 q 141 -93 157 -78 q 172 -64 192 -64 l 192 -64 q 208 -64 220 -74 q 231 -84 238 -104 q 244 -125 244 -160 l 244 -160 q 244 -213 229 -235 q 214 -257 183 -257 l 183 -257 q 157 -257 135 -242 q 113 -227 89 -195 l 89 -195 l 67 -257 q 89 -285 126 -308 q 162 -331 205 -331 l 205 -331 q 247 -331 276 -312 q 304 -294 320 -256 q 335 -219 335 -164 l 335 -164 q 335 -104 319 -65 q 302 -27 272 -7 q 241 12 196 12 l 196 12 q 153 12 117 -12 q 80 -37 59 -92 q 37 -148 37 -240 l 37 -240 q 37 -349 71 -422 q 105 -495 165 -531 q 225 -568 300 -568 z m 642 -556 l 735 -556 l 735 0 l 429 0 l 458 -76 l 642 -76 l 642 -556 z"},"ഗ":{"ha":703,"x_min":35,"x_max":667,"o":"m 475 -568 l 475 -568 q 536 -568 579 -538 q 622 -508 645 -449 q 667 -390 667 -306 l 667 -306 q 667 -233 654 -175 q 640 -117 617 -72 q 593 -27 564 11 l 564 11 l 490 -44 q 512 -75 531 -111 q 549 -148 561 -195 q 572 -242 572 -302 l 572 -302 q 572 -363 560 -405 q 547 -447 526 -468 q 504 -490 475 -490 l 475 -490 q 455 -490 442 -484 q 428 -478 420 -465 l 420 -465 q 407 -446 403 -418 q 398 -390 398 -339 l 398 -339 l 398 -200 q 398 -163 394 -132 q 390 -102 381 -78 q 371 -54 352 -34 l 352 -34 q 330 -12 300 0 q 270 12 228 12 l 228 12 q 167 12 124 -19 q 81 -50 58 -108 q 35 -167 35 -251 l 35 -251 q 35 -325 50 -383 q 64 -441 88 -486 q 111 -531 140 -569 l 140 -569 l 214 -514 q 191 -484 173 -446 q 154 -409 143 -362 q 131 -315 131 -255 l 131 -255 q 131 -194 143 -151 q 155 -109 177 -87 q 199 -66 227 -66 l 227 -66 q 247 -66 261 -72 q 275 -79 283 -91 l 283 -91 q 296 -110 300 -140 q 304 -171 304 -229 l 304 -229 l 304 -354 q 304 -413 315 -453 q 325 -494 353 -523 l 353 -523 q 374 -545 403 -556 q 432 -568 475 -568 z"},"ഘ":{"ha":1044,"x_min":30,"x_max":987,"o":"m 191 -568 l 191 -568 q 248 -568 284 -544 q 319 -520 336 -481 q 352 -442 352 -399 l 352 -399 q 352 -358 340 -327 q 328 -297 318 -282 l 318 -282 l 306 -297 l 470 -297 l 479 -221 l 264 -221 l 229 -275 q 241 -295 251 -323 q 261 -351 261 -390 l 261 -390 q 261 -437 244 -465 q 226 -493 193 -493 l 193 -493 q 170 -493 154 -480 q 138 -468 130 -446 q 122 -424 122 -394 l 122 -394 q 122 -349 135 -318 q 147 -288 166 -258 l 166 -258 l 95 -213 q 67 -250 49 -294 q 30 -338 30 -394 l 30 -394 q 30 -448 50 -487 q 70 -526 107 -547 q 143 -568 191 -568 z m 893 -556 l 987 -556 l 987 0 l 420 0 l 420 -326 q 420 -399 432 -439 q 444 -480 466 -508 l 466 -508 q 489 -538 525 -553 q 560 -568 608 -568 l 608 -568 q 656 -568 692 -553 q 727 -539 749 -511 l 749 -511 q 775 -479 786 -438 q 796 -397 796 -333 l 796 -333 l 796 -221 l 513 -221 l 513 -76 l 893 -76 l 893 -556 z m 607 -492 l 607 -492 q 556 -492 535 -452 q 513 -412 513 -331 l 513 -331 l 513 -297 l 703 -297 l 703 -331 q 703 -414 680 -453 q 657 -492 607 -492 z"},"ങ":{"ha":834,"x_min":37,"x_max":802,"o":"m 288 -568 l 288 -568 q 351 -568 392 -544 q 432 -520 463 -470 l 463 -470 l 481 -411 l 495 -257 l 495 0 l 402 0 l 402 -316 q 402 -375 395 -407 q 388 -439 370 -459 l 370 -459 q 358 -473 339 -482 q 319 -491 289 -491 l 289 -491 q 240 -491 203 -461 q 166 -431 145 -376 q 124 -322 124 -248 l 124 -248 l 124 -225 q 124 -164 133 -128 q 142 -93 158 -78 q 173 -64 193 -64 l 193 -64 q 209 -64 221 -74 q 232 -84 238 -104 q 244 -125 244 -160 l 244 -160 q 244 -213 229 -235 q 214 -257 184 -257 l 184 -257 q 158 -257 137 -242 q 115 -228 91 -197 l 91 -197 l 72 -261 q 94 -287 130 -309 q 165 -331 206 -331 l 206 -331 q 248 -331 277 -312 q 305 -294 320 -256 q 335 -219 335 -164 l 335 -164 q 335 -104 319 -65 q 302 -27 271 -7 q 240 12 195 12 l 195 12 q 152 12 117 -12 q 81 -37 59 -92 q 37 -148 37 -242 l 37 -242 q 37 -353 70 -425 q 103 -498 160 -533 q 216 -568 288 -568 z m 629 -568 l 629 -568 q 684 -568 721 -547 q 758 -527 778 -491 q 797 -456 797 -413 l 797 -413 q 797 -381 788 -355 q 779 -329 759 -309 q 739 -290 706 -275 l 706 -275 l 704 -281 q 748 -268 775 -229 q 802 -191 802 -142 l 802 -142 q 802 -69 763 -29 q 724 11 654 11 l 654 11 q 632 11 611 8 q 589 5 575 1 l 575 1 l 590 -71 q 602 -68 614 -66 q 626 -65 637 -65 l 637 -65 q 669 -65 688 -82 q 707 -100 707 -144 l 707 -144 q 707 -165 701 -182 q 695 -200 682 -213 l 682 -213 q 670 -226 649 -233 q 628 -240 600 -240 l 600 -240 l 593 -240 l 593 -316 l 602 -316 q 629 -316 648 -322 q 667 -328 680 -341 l 680 -341 q 691 -352 697 -368 q 702 -384 702 -405 l 702 -405 q 702 -449 680 -470 q 657 -491 624 -491 l 624 -491 q 600 -491 581 -484 q 561 -478 545 -464 l 545 -464 q 529 -449 518 -427 q 506 -406 501 -374 q 495 -343 495 -298 l 495 -298 l 495 -206 l 434 -211 l 422 -300 l 427 -424 q 442 -465 469 -497 q 495 -529 535 -548 q 575 -568 629 -568 z"},"ച":{"ha":730,"x_min":17,"x_max":672,"o":"m 579 -556 l 672 -556 l 672 0 l 17 0 l 17 -76 l 327 -76 l 277 -60 q 299 -81 318 -117 q 336 -153 336 -202 l 336 -202 q 336 -245 320 -270 q 303 -295 272 -295 l 272 -295 q 241 -295 224 -271 q 206 -248 206 -204 l 206 -204 q 206 -193 208 -180 q 209 -168 210 -161 l 210 -161 l 121 -150 q 119 -161 117 -176 q 114 -191 114 -210 l 114 -210 q 114 -286 156 -328 q 198 -371 271 -371 l 271 -371 q 316 -371 346 -357 q 375 -343 394 -319 q 412 -295 419 -265 q 426 -235 426 -205 l 426 -205 q 426 -172 420 -145 q 413 -119 401 -97 q 388 -76 374 -57 l 374 -57 l 356 -76 l 579 -76 l 579 -556 z"},"ഛ":{"ha":1051,"x_min":17,"x_max":1016,"o":"m 271 -371 l 271 -371 q 316 -371 346 -357 q 375 -343 394 -319 q 412 -295 419 -265 q 426 -235 426 -205 l 426 -205 q 426 -172 420 -145 q 413 -119 401 -97 q 388 -76 374 -57 l 374 -57 l 356 -76 l 582 -76 l 613 0 l 17 0 l 17 -76 l 327 -76 l 277 -60 q 299 -81 318 -117 q 336 -153 336 -202 l 336 -202 q 336 -245 320 -270 q 303 -295 272 -295 l 272 -295 q 241 -295 224 -271 q 206 -248 206 -204 l 206 -204 q 206 -193 208 -180 q 209 -168 210 -161 l 210 -161 l 121 -150 q 119 -161 117 -176 q 114 -191 114 -210 l 114 -210 q 114 -286 156 -328 q 198 -371 271 -371 z m 749 -568 l 749 -568 q 817 -568 867 -544 q 916 -521 949 -477 q 982 -433 999 -373 q 1016 -313 1016 -240 l 1016 -240 q 1016 -146 995 -90 q 974 -35 937 -11 q 899 12 848 12 l 848 12 q 794 12 760 -16 q 726 -44 710 -92 q 694 -140 694 -201 l 694 -201 q 694 -299 732 -351 q 769 -404 837 -404 l 837 -404 q 873 -404 899 -386 q 925 -369 945 -336 q 964 -304 981 -258 l 981 -258 l 948 -244 q 942 -261 931 -281 q 919 -301 901 -315 q 883 -330 858 -330 l 858 -330 q 820 -330 803 -295 q 785 -261 785 -198 l 785 -198 q 785 -155 792 -124 q 799 -94 814 -78 q 829 -63 851 -63 l 851 -63 q 874 -63 891 -80 q 907 -98 916 -138 q 925 -178 925 -243 l 925 -243 q 925 -250 924 -270 q 922 -290 920 -309 l 920 -309 q 920 -314 920 -322 q 919 -330 918 -334 l 918 -334 q 912 -375 892 -410 q 871 -446 837 -468 q 803 -490 756 -490 l 756 -490 q 703 -490 667 -465 q 630 -440 612 -393 q 593 -347 593 -283 l 593 -283 q 593 -236 603 -195 q 612 -154 630 -119 q 647 -84 670 -56 l 670 -56 l 626 0 l 588 0 l 579 -46 q 556 -76 538 -112 q 519 -149 508 -194 q 497 -239 497 -293 l 497 -293 q 497 -350 513 -400 q 528 -450 560 -487 q 592 -525 639 -546 q 686 -568 749 -568 z"},"ജ":{"ha":732,"x_min":30,"x_max":695,"o":"m 238 -568 l 238 -568 q 282 -568 313 -557 q 344 -547 367 -528 q 390 -509 410 -482 l 410 -482 l 377 -476 q 407 -528 444 -548 q 481 -568 526 -568 l 526 -568 q 586 -568 623 -540 q 660 -513 678 -469 q 695 -425 695 -374 l 695 -374 q 695 -330 683 -296 q 670 -263 647 -239 q 624 -216 593 -200 l 593 -200 l 514 -184 l 452 -172 q 429 -168 394 -165 q 358 -162 319 -162 l 319 -162 l 228 -162 q 187 -162 170 -158 q 152 -155 142 -149 l 142 -149 q 132 -142 127 -133 q 121 -124 121 -111 l 121 -111 q 121 -96 128 -84 q 134 -73 147 -66 q 159 -60 176 -60 l 176 -60 q 198 -60 216 -64 q 233 -68 258 -81 q 282 -94 324 -119 l 324 -119 q 345 -131 364 -140 q 382 -150 397 -157 q 412 -164 426 -170 q 440 -176 450 -180 l 450 -180 q 463 -185 478 -193 q 493 -202 509 -210 q 524 -218 539 -223 q 553 -229 565 -229 l 565 -229 q 594 -229 619 -218 q 644 -208 661 -182 q 677 -156 677 -110 l 677 -110 q 677 -54 645 -21 q 613 12 555 12 l 555 12 q 510 12 484 -6 q 457 -25 446 -54 q 434 -83 434 -114 l 434 -114 q 434 -151 447 -177 q 459 -203 482 -220 l 482 -220 l 549 -215 q 540 -204 531 -190 q 522 -176 516 -158 q 509 -141 509 -117 l 509 -117 q 509 -83 521 -68 q 532 -53 551 -53 l 551 -53 q 577 -53 587 -70 q 597 -88 597 -114 l 597 -114 q 597 -133 592 -146 q 587 -159 577 -166 q 567 -173 551 -173 l 551 -173 q 535 -173 521 -163 q 506 -154 486 -137 l 486 -137 l 474 -146 q 464 -135 448 -121 q 432 -108 412 -93 q 392 -78 368 -63 l 368 -63 q 327 -36 296 -19 q 264 -2 235 5 q 206 12 171 12 l 171 12 q 132 12 100 0 q 68 -13 49 -39 q 30 -65 30 -108 l 30 -108 q 30 -143 44 -168 q 58 -193 85 -209 l 85 -209 q 106 -220 133 -226 q 160 -232 217 -232 l 217 -232 l 410 -232 q 443 -232 470 -234 q 497 -237 519 -243 q 540 -250 556 -261 l 556 -261 q 579 -278 592 -304 q 604 -331 604 -371 l 604 -371 q 604 -403 596 -430 q 587 -458 568 -476 q 549 -494 518 -494 l 518 -494 q 500 -494 489 -489 q 477 -484 469 -476 l 469 -476 q 449 -456 444 -421 q 438 -386 438 -342 l 438 -342 l 438 -262 l 351 -262 l 351 -328 q 351 -375 346 -408 q 341 -441 321 -465 l 321 -465 q 309 -480 288 -489 q 266 -498 234 -498 l 234 -498 q 205 -498 175 -488 q 145 -478 128 -456 l 128 -456 q 125 -452 125 -445 q 124 -439 123 -434 l 123 -434 q 117 -424 115 -410 q 113 -396 113 -379 l 113 -379 q 113 -337 126 -320 q 138 -304 158 -304 l 158 -304 q 174 -304 184 -313 q 193 -323 197 -338 q 200 -353 200 -370 l 200 -370 q 200 -402 189 -416 q 178 -430 155 -430 l 155 -430 q 136 -430 119 -420 q 102 -411 91 -399 l 91 -399 l 66 -426 q 85 -452 116 -465 q 147 -479 181 -479 l 181 -479 q 212 -479 234 -466 q 256 -453 268 -428 q 280 -403 280 -366 l 280 -366 q 280 -330 268 -301 q 255 -273 229 -257 q 203 -241 160 -241 l 160 -241 q 104 -241 71 -278 q 38 -315 38 -384 l 38 -384 q 38 -437 61 -478 q 84 -520 129 -544 q 173 -568 238 -568 z"},"ഝ":{"ha":1295,"x_min":35,"x_max":1260,"o":"m 535 -568 l 535 -568 q 580 -568 615 -556 q 649 -544 674 -521 l 674 -521 q 713 -487 727 -435 q 740 -383 740 -304 l 740 -304 l 740 -199 q 740 -165 744 -137 q 748 -110 761 -92 l 761 -92 q 770 -80 784 -73 q 798 -66 817 -66 l 817 -66 q 836 -66 850 -73 q 864 -81 872 -94 l 872 -94 q 884 -112 889 -140 q 893 -169 893 -221 l 893 -221 l 893 -557 l 986 -557 l 986 -224 q 986 -166 993 -134 q 999 -102 1015 -86 l 1015 -86 q 1025 -75 1039 -70 q 1052 -66 1065 -66 l 1065 -66 q 1094 -66 1117 -89 q 1139 -113 1152 -155 q 1164 -198 1164 -256 l 1164 -256 q 1164 -313 1153 -359 q 1142 -406 1123 -443 q 1104 -481 1081 -511 l 1081 -511 l 1155 -566 q 1185 -528 1209 -483 q 1232 -438 1246 -381 q 1260 -325 1260 -250 l 1260 -250 q 1260 -174 1238 -114 q 1215 -55 1173 -21 q 1131 12 1070 12 l 1070 12 q 1026 12 993 -7 q 960 -26 932 -71 l 932 -71 l 946 -71 q 933 -48 915 -29 q 897 -10 873 1 q 848 12 813 12 l 813 12 q 771 12 743 0 q 714 -12 694 -33 l 694 -33 q 678 -51 668 -73 q 657 -95 652 -126 q 647 -157 647 -200 l 647 -200 l 647 -302 q 647 -344 643 -373 q 639 -403 631 -423 q 623 -444 611 -458 l 611 -458 q 597 -474 576 -484 q 554 -494 522 -494 l 522 -494 q 503 -494 487 -490 q 470 -486 454 -478 l 454 -478 l 439 -467 q 405 -449 382 -411 q 358 -373 346 -322 q 333 -272 333 -214 l 333 -214 q 333 -153 343 -120 q 353 -88 369 -76 q 384 -64 403 -64 l 403 -64 q 423 -64 439 -76 q 455 -88 464 -120 q 473 -152 473 -213 l 473 -213 q 473 -273 460 -324 q 447 -375 424 -412 q 401 -449 370 -469 l 370 -469 l 354 -478 q 340 -487 324 -490 q 308 -494 292 -494 l 292 -494 q 240 -494 204 -467 q 168 -441 150 -394 q 132 -347 132 -284 l 132 -284 q 132 -229 143 -186 q 153 -143 172 -109 q 191 -76 216 -49 l 216 -49 l 149 9 q 117 -23 92 -65 q 66 -107 51 -162 q 35 -218 35 -290 l 35 -290 q 35 -344 49 -394 q 63 -445 93 -484 q 122 -523 169 -545 q 216 -568 282 -568 l 282 -568 q 322 -568 354 -558 q 386 -548 416 -525 l 416 -525 l 434 -510 q 495 -467 532 -394 q 568 -322 568 -215 l 568 -215 q 568 -140 549 -89 q 530 -39 493 -13 q 456 12 402 12 l 402 12 q 349 12 313 -15 q 277 -42 258 -93 q 239 -144 239 -215 l 239 -215 q 239 -284 255 -339 q 270 -394 300 -436 q 330 -478 372 -508 l 372 -508 l 392 -525 q 422 -547 459 -557 q 495 -568 535 -568 z"},"ഞ":{"ha":1143,"x_min":37,"x_max":1108,"o":"m 288 -568 l 288 -568 q 351 -568 392 -544 q 432 -520 463 -470 l 463 -470 l 468 -425 l 495 -245 l 495 0 l 402 0 l 402 -316 q 402 -375 395 -407 q 388 -439 370 -459 l 370 -459 q 358 -473 338 -482 q 318 -491 289 -491 l 289 -491 q 240 -491 203 -461 q 166 -431 145 -376 q 124 -322 124 -248 l 124 -248 l 124 -225 q 124 -164 133 -128 q 142 -93 158 -78 q 173 -64 193 -64 l 193 -64 q 209 -64 221 -74 q 232 -84 238 -104 q 244 -125 244 -160 l 244 -160 q 244 -213 229 -235 q 214 -257 184 -257 l 184 -257 q 158 -257 137 -242 q 115 -228 91 -197 l 91 -197 l 72 -261 q 94 -287 130 -309 q 165 -331 206 -331 l 206 -331 q 248 -331 277 -312 q 305 -294 320 -256 q 335 -219 335 -164 l 335 -164 q 335 -104 319 -65 q 302 -27 271 -7 q 240 12 195 12 l 195 12 q 152 12 117 -12 q 81 -37 59 -92 q 37 -148 37 -242 l 37 -242 q 37 -353 70 -425 q 103 -498 160 -533 q 216 -568 288 -568 z m 617 -568 l 617 -568 q 653 -568 687 -557 q 721 -547 750 -526 l 750 -526 l 769 -510 q 830 -467 867 -394 q 903 -322 903 -215 l 903 -215 q 903 -140 884 -89 q 865 -39 828 -13 q 791 12 738 12 l 738 12 q 685 12 649 -15 q 612 -42 593 -93 q 574 -144 574 -215 l 574 -215 q 574 -284 591 -338 q 607 -393 637 -435 q 667 -477 709 -507 l 709 -507 l 729 -524 q 757 -546 793 -557 q 828 -568 871 -568 l 871 -568 q 933 -568 978 -546 q 1023 -524 1052 -484 q 1080 -444 1094 -392 q 1108 -341 1108 -283 l 1108 -283 q 1108 -216 1094 -162 q 1079 -109 1053 -67 q 1027 -26 994 9 l 994 9 l 927 -48 q 949 -73 968 -105 q 987 -137 999 -180 q 1011 -224 1011 -278 l 1011 -278 q 1011 -340 995 -388 q 978 -437 945 -465 q 912 -494 863 -494 l 863 -494 q 842 -494 825 -490 q 807 -486 791 -477 l 791 -477 l 776 -466 q 741 -448 717 -410 q 693 -372 681 -321 q 669 -271 669 -214 l 669 -214 q 669 -153 679 -120 q 688 -88 704 -76 q 720 -64 739 -64 l 739 -64 q 758 -64 774 -76 q 790 -88 800 -120 q 809 -152 809 -213 l 809 -213 q 809 -273 796 -324 q 783 -375 760 -412 q 736 -449 704 -469 l 704 -469 l 690 -477 q 680 -483 671 -486 q 661 -490 649 -492 q 636 -494 619 -494 l 619 -494 q 588 -494 567 -484 q 546 -475 532 -460 l 532 -460 q 511 -436 503 -401 q 495 -366 495 -309 l 495 -309 l 495 -32 l 410 -32 l 410 -257 l 432 -457 q 451 -490 476 -515 q 500 -541 535 -554 q 569 -568 617 -568 z"},"ട":{"ha":438,"x_min":14,"x_max":418,"o":"m 229 -568 l 229 -568 q 281 -568 326 -558 q 371 -548 418 -527 l 418 -527 l 375 -455 q 337 -473 304 -481 q 271 -490 231 -490 l 231 -490 q 189 -490 164 -477 q 139 -464 129 -443 q 119 -423 119 -404 l 119 -404 q 119 -381 125 -366 q 130 -352 141 -342 l 141 -342 q 155 -330 174 -325 q 193 -321 219 -321 l 219 -321 l 227 -321 q 273 -321 310 -309 q 347 -297 371 -272 l 371 -272 q 391 -252 402 -225 q 412 -199 412 -162 l 412 -162 q 412 -111 388 -71 q 364 -32 319 -10 q 273 12 206 12 l 206 12 q 157 12 105 1 q 53 -11 14 -31 l 14 -31 l 57 -103 q 81 -90 104 -82 q 126 -74 151 -70 q 175 -66 204 -66 l 204 -66 q 247 -66 272 -79 q 297 -93 308 -113 q 318 -134 318 -157 l 318 -157 q 318 -178 312 -195 q 306 -212 292 -222 l 292 -222 q 279 -233 264 -237 q 249 -242 223 -242 l 223 -242 l 217 -242 q 170 -242 132 -253 q 93 -265 69 -287 l 69 -287 q 48 -306 37 -334 q 25 -363 25 -400 l 25 -400 q 25 -448 49 -486 q 73 -524 119 -546 q 165 -568 229 -568 z"},"ഠ":{"ha":524,"x_min":35,"x_max":489,"o":"m 264 -568 l 264 -568 q 335 -568 385 -534 q 435 -501 462 -436 q 489 -371 489 -278 l 489 -278 q 489 -185 462 -120 q 435 -55 384 -21 q 333 12 260 12 l 260 12 q 184 12 134 -25 q 84 -62 60 -128 q 35 -194 35 -280 l 35 -280 q 35 -372 62 -436 q 89 -501 141 -534 q 192 -568 264 -568 z m 261 -66 l 261 -66 q 304 -66 333 -91 q 362 -117 377 -165 q 392 -213 392 -280 l 392 -280 q 392 -347 377 -394 q 361 -441 333 -465 q 304 -490 263 -490 l 263 -490 q 202 -490 167 -437 q 132 -385 132 -280 l 132 -280 q 132 -173 166 -119 q 200 -66 261 -66 z"},"ഡ":{"ha":954,"x_min":35,"x_max":918,"o":"m 470 12 l 470 12 q 430 12 402 0 q 373 -12 352 -33 l 352 -33 q 336 -51 326 -72 q 315 -94 310 -125 q 304 -156 304 -200 l 304 -200 l 304 -323 q 304 -385 300 -415 q 296 -446 283 -465 l 283 -465 q 274 -478 262 -484 q 249 -490 227 -490 l 227 -490 q 199 -490 177 -468 q 155 -447 143 -405 q 131 -363 131 -301 l 131 -301 q 131 -242 143 -194 q 154 -147 173 -110 q 192 -73 214 -42 l 214 -42 l 140 13 q 111 -25 88 -70 q 64 -116 50 -174 q 35 -232 35 -306 l 35 -306 q 35 -387 58 -445 q 81 -504 125 -536 q 169 -568 232 -568 l 232 -568 q 271 -568 300 -557 q 329 -546 350 -524 l 350 -524 q 370 -504 380 -479 q 390 -454 394 -424 q 397 -394 397 -357 l 397 -357 l 397 -206 q 397 -164 401 -137 q 405 -110 418 -92 l 418 -92 q 427 -79 441 -72 q 455 -66 475 -66 l 475 -66 q 493 -66 508 -73 q 523 -81 531 -94 l 531 -94 q 543 -113 547 -141 q 551 -169 551 -221 l 551 -221 l 551 -556 l 644 -556 l 644 -224 q 644 -165 651 -133 q 657 -102 673 -86 l 673 -86 q 684 -75 697 -70 q 710 -66 723 -66 l 723 -66 q 752 -66 775 -89 q 797 -113 810 -155 q 822 -198 822 -256 l 822 -256 q 822 -313 811 -359 q 800 -406 781 -443 q 762 -481 740 -510 l 740 -510 l 813 -565 q 843 -528 867 -482 q 891 -437 905 -380 q 918 -324 918 -250 l 918 -250 q 918 -173 896 -114 q 874 -55 832 -21 q 789 12 729 12 l 729 12 q 684 12 652 -7 q 619 -26 591 -71 l 591 -71 l 604 -71 q 582 -33 552 -10 q 522 12 470 12 z"},"ഢ":{"ha":1046,"x_min":35,"x_max":1009,"o":"m 470 12 l 470 12 q 430 12 402 0 q 373 -12 352 -33 l 352 -33 q 336 -51 326 -72 q 315 -94 310 -125 q 304 -156 304 -201 l 304 -201 l 304 -324 q 304 -385 300 -415 q 296 -446 283 -465 l 283 -465 q 274 -478 262 -484 q 249 -491 227 -491 l 227 -491 q 199 -491 177 -469 q 155 -448 143 -406 q 131 -364 131 -302 l 131 -302 q 131 -242 143 -194 q 154 -147 173 -110 q 191 -73 214 -42 l 214 -42 l 140 12 q 112 -25 88 -70 q 64 -116 50 -174 q 35 -232 35 -306 l 35 -306 q 35 -387 58 -446 q 81 -505 125 -537 q 169 -569 232 -569 l 232 -569 q 271 -569 300 -557 q 329 -546 350 -525 l 350 -525 q 370 -504 380 -479 q 390 -454 394 -424 q 397 -394 397 -357 l 397 -357 l 397 -207 q 397 -164 401 -137 q 405 -110 418 -92 l 418 -92 q 427 -79 441 -72 q 455 -66 475 -66 l 475 -66 q 493 -66 508 -73 q 522 -81 531 -94 l 531 -94 q 543 -113 547 -141 q 551 -169 551 -221 l 551 -221 l 551 -557 l 644 -557 l 644 -280 l 604 -71 q 583 -34 553 -11 q 522 12 470 12 z m 851 -568 l 851 -568 q 894 -568 930 -544 q 966 -520 988 -464 q 1009 -409 1009 -315 l 1009 -315 q 1009 -205 976 -132 q 943 -59 887 -23 q 830 12 759 12 l 759 12 q 696 12 656 -12 q 616 -36 583 -83 l 583 -83 l 573 -272 l 573 -516 l 644 -516 l 644 -240 q 644 -182 652 -149 q 659 -117 676 -98 l 676 -98 q 689 -83 709 -74 q 728 -66 757 -66 l 757 -66 q 807 -66 844 -95 q 881 -125 902 -179 q 922 -234 922 -308 l 922 -308 l 922 -332 q 922 -393 914 -428 q 905 -463 890 -477 q 874 -492 853 -492 l 853 -492 q 838 -492 827 -482 q 815 -473 809 -452 q 802 -431 802 -396 l 802 -396 q 802 -345 817 -322 q 832 -299 862 -299 l 862 -299 q 887 -299 909 -314 q 931 -329 955 -359 l 955 -359 l 975 -295 q 953 -270 917 -247 q 881 -225 840 -225 l 840 -225 q 799 -225 770 -244 q 741 -263 726 -300 q 711 -337 711 -392 l 711 -392 q 711 -452 728 -491 q 744 -530 775 -549 q 806 -568 851 -568 z"},"ണ":{"ha":1060,"x_min":37,"x_max":1025,"o":"m 288 -568 l 288 -568 q 351 -568 391 -544 q 430 -520 463 -474 l 463 -474 l 436 -477 q 462 -525 497 -546 q 531 -568 576 -568 l 576 -568 q 627 -568 659 -546 q 690 -525 711 -487 l 711 -487 l 698 -486 q 725 -530 758 -549 q 790 -568 834 -568 l 834 -568 q 895 -568 938 -534 q 980 -501 1003 -442 q 1025 -384 1025 -306 l 1025 -306 q 1025 -232 1011 -174 q 996 -117 973 -72 q 949 -28 921 9 l 921 9 l 846 -46 q 869 -76 888 -113 q 907 -150 918 -196 q 929 -243 929 -301 l 929 -301 q 929 -359 917 -401 q 904 -444 881 -467 q 858 -491 829 -491 l 829 -491 q 816 -491 804 -486 q 791 -481 780 -470 l 780 -470 q 764 -454 758 -422 q 751 -391 751 -333 l 751 -333 l 751 0 l 658 0 l 658 -333 q 658 -389 654 -416 q 650 -444 638 -462 l 638 -462 q 629 -475 615 -483 q 600 -491 576 -491 l 576 -491 q 554 -491 541 -482 q 527 -474 517 -462 l 517 -462 q 502 -440 499 -411 q 495 -383 495 -330 l 495 -330 l 495 0 l 402 0 l 402 -317 q 402 -375 395 -407 q 388 -439 370 -459 l 370 -459 q 358 -473 339 -482 q 319 -491 289 -491 l 289 -491 q 240 -491 203 -461 q 166 -432 145 -377 q 124 -323 124 -248 l 124 -248 l 124 -225 q 124 -164 133 -128 q 142 -93 158 -78 q 173 -64 193 -64 l 193 -64 q 209 -64 221 -74 q 232 -84 238 -104 q 244 -125 244 -160 l 244 -160 q 244 -213 229 -235 q 214 -257 184 -257 l 184 -257 q 158 -257 137 -242 q 115 -228 91 -197 l 91 -197 l 72 -261 q 94 -287 130 -309 q 165 -331 206 -331 l 206 -331 q 248 -331 277 -312 q 305 -294 320 -256 q 335 -219 335 -164 l 335 -164 q 335 -105 319 -66 q 302 -27 271 -7 q 240 12 195 12 l 195 12 q 152 12 117 -12 q 81 -37 59 -92 q 37 -148 37 -241 l 37 -241 q 37 -353 70 -425 q 103 -498 160 -533 q 216 -568 288 -568 z"},"ത":{"ha":807,"x_min":35,"x_max":772,"o":"m 402 12 l 402 12 q 349 12 313 -15 q 277 -42 258 -93 q 239 -144 239 -215 l 239 -215 q 239 -284 255 -338 q 271 -393 301 -435 q 331 -477 373 -507 l 373 -507 l 394 -524 q 422 -546 457 -557 q 492 -568 535 -568 l 535 -568 q 598 -568 643 -546 q 687 -524 716 -484 q 744 -444 758 -392 q 772 -341 772 -283 l 772 -283 q 772 -216 758 -162 q 743 -109 718 -67 q 692 -26 658 9 l 658 9 l 591 -48 q 613 -73 633 -105 q 652 -137 664 -180 q 676 -224 676 -278 l 676 -278 q 676 -340 660 -388 q 643 -437 610 -465 q 576 -494 528 -494 l 528 -494 q 506 -494 489 -490 q 471 -486 455 -477 l 455 -477 l 440 -466 q 406 -448 382 -410 q 358 -372 346 -321 q 333 -271 333 -214 l 333 -214 q 333 -153 343 -120 q 353 -88 369 -76 q 384 -64 403 -64 l 403 -64 q 423 -64 439 -76 q 455 -88 464 -120 q 473 -153 473 -213 l 473 -213 q 473 -273 461 -324 q 448 -375 425 -412 q 401 -449 370 -469 l 370 -469 l 355 -478 q 340 -487 324 -490 q 308 -494 292 -494 l 292 -494 q 240 -494 204 -467 q 168 -441 150 -394 q 132 -347 132 -284 l 132 -284 q 132 -229 143 -186 q 153 -143 172 -109 q 191 -76 216 -49 l 216 -49 l 149 9 q 117 -23 92 -65 q 66 -107 51 -162 q 35 -218 35 -290 l 35 -290 q 35 -344 49 -394 q 63 -445 93 -484 q 122 -523 169 -545 q 216 -568 282 -568 l 282 -568 q 322 -568 354 -558 q 386 -548 416 -526 l 416 -526 l 434 -510 q 495 -467 532 -394 q 568 -322 568 -215 l 568 -215 q 568 -140 549 -89 q 530 -39 493 -13 q 456 12 402 12 z"},"ഥ":{"ha":712,"x_min":58,"x_max":659,"o":"m 58 -556 l 151 -556 l 151 -76 l 310 -76 l 310 0 l 58 0 l 58 -556 z m 465 -568 l 465 -568 q 513 -568 547 -555 q 580 -543 603 -520 l 603 -520 q 637 -487 648 -438 q 659 -390 659 -323 l 659 -323 l 659 0 l 268 0 l 268 -321 q 268 -368 273 -404 q 278 -440 290 -468 q 302 -497 324 -520 l 324 -520 q 347 -542 381 -555 q 415 -568 465 -568 z m 464 -491 l 464 -491 q 438 -491 420 -483 q 402 -475 391 -461 l 391 -461 q 374 -440 368 -406 q 361 -373 361 -315 l 361 -315 l 361 -76 l 566 -76 l 566 -313 q 566 -372 560 -406 q 553 -440 537 -461 l 537 -461 q 526 -475 508 -483 q 489 -491 464 -491 z"},"ദ":{"ha":512,"x_min":42,"x_max":480,"o":"m 305 -568 l 305 -568 q 360 -568 398 -548 q 435 -528 455 -493 q 474 -458 474 -413 l 474 -413 q 474 -365 453 -331 q 432 -297 382 -275 l 382 -275 l 382 -281 q 426 -268 453 -230 q 480 -192 480 -142 l 480 -142 q 480 -70 440 -29 q 400 11 326 11 l 326 11 q 299 11 276 8 q 252 5 236 1 l 236 1 l 253 -73 q 267 -69 281 -67 q 295 -65 308 -65 l 308 -65 q 350 -65 368 -85 q 385 -106 385 -144 l 385 -144 q 385 -165 379 -182 q 372 -200 360 -213 l 360 -213 q 347 -226 326 -233 q 305 -240 267 -240 l 267 -240 l 256 -240 l 256 -316 l 266 -316 q 305 -316 325 -322 q 344 -328 358 -341 l 358 -341 q 368 -352 374 -368 q 379 -384 379 -405 l 379 -405 q 379 -447 358 -469 q 337 -491 300 -491 l 300 -491 q 251 -491 215 -459 q 178 -428 157 -369 q 136 -310 136 -228 l 136 -228 q 136 -173 143 -116 q 149 -60 159 -14 l 159 -14 l 69 4 q 58 -45 50 -107 q 42 -169 42 -225 l 42 -225 q 42 -333 73 -409 q 104 -486 163 -527 q 222 -568 305 -568 z"},"ധ":{"ha":713,"x_min":35,"x_max":678,"o":"m 483 12 l 483 12 q 451 12 427 1 q 402 -10 384 -29 q 366 -48 350 -71 l 350 -71 l 363 -70 q 335 -26 303 -7 q 271 12 226 12 l 226 12 q 165 12 123 -21 q 80 -55 58 -114 q 35 -174 35 -250 l 35 -250 q 35 -325 49 -382 q 63 -439 87 -484 q 111 -529 140 -566 l 140 -566 l 214 -511 q 191 -481 173 -444 q 154 -408 143 -361 q 131 -315 131 -256 l 131 -256 q 131 -198 144 -155 q 157 -112 180 -89 q 203 -66 232 -66 l 232 -66 q 248 -66 260 -71 q 272 -76 281 -85 l 281 -85 q 296 -101 303 -132 q 310 -164 310 -218 l 310 -218 l 310 -556 l 403 -556 l 403 -222 q 403 -161 410 -132 q 416 -103 431 -85 l 431 -85 q 440 -77 452 -71 q 464 -66 479 -66 l 479 -66 q 507 -66 531 -87 q 554 -109 568 -152 q 582 -196 582 -258 l 582 -258 q 582 -316 571 -362 q 560 -408 542 -445 q 523 -482 501 -511 l 501 -511 l 574 -566 q 603 -527 627 -482 q 650 -438 664 -382 q 678 -326 678 -254 l 678 -254 q 678 -175 656 -115 q 633 -55 590 -21 q 546 12 483 12 z"},"ന":{"ha":713,"x_min":35,"x_max":678,"o":"m 230 -568 l 230 -568 q 264 -568 288 -557 q 311 -546 330 -527 q 348 -509 364 -485 l 364 -485 l 351 -487 q 378 -531 411 -549 q 443 -568 488 -568 l 488 -568 q 548 -568 591 -534 q 633 -501 656 -442 q 678 -384 678 -306 l 678 -306 q 678 -233 664 -175 q 650 -118 627 -73 q 603 -28 574 10 l 574 10 l 499 -46 q 522 -76 541 -112 q 560 -149 571 -195 q 582 -241 582 -301 l 582 -301 q 582 -359 569 -401 q 556 -444 534 -467 q 511 -491 481 -491 l 481 -491 q 467 -491 455 -486 q 443 -481 433 -471 l 433 -471 q 417 -455 410 -424 q 403 -394 403 -338 l 403 -338 l 403 0 l 310 0 l 310 -334 q 310 -395 304 -424 q 297 -453 282 -471 l 282 -471 q 273 -480 262 -485 q 250 -491 234 -491 l 234 -491 q 207 -491 184 -469 q 160 -447 146 -404 q 131 -361 131 -298 l 131 -298 q 131 -241 142 -195 q 153 -149 172 -112 q 190 -75 213 -45 l 213 -45 l 139 10 q 110 -29 87 -74 q 63 -119 49 -175 q 35 -231 35 -302 l 35 -302 q 35 -381 58 -441 q 81 -501 125 -534 q 168 -568 230 -568 z"},"ഩ":{"ha":805,"x_min":37,"x_max":770,"o":"m 288 -568 l 288 -568 q 351 -568 391 -544 q 430 -520 463 -474 l 463 -474 l 437 -482 q 464 -528 499 -548 q 534 -568 579 -568 l 579 -568 q 640 -568 683 -534 q 725 -501 748 -442 q 770 -384 770 -306 l 770 -306 q 770 -232 756 -174 q 741 -117 718 -72 q 694 -28 665 10 l 665 10 l 591 -46 q 614 -76 633 -112 q 651 -149 663 -195 q 674 -241 674 -301 l 674 -301 q 674 -359 661 -401 q 648 -444 625 -467 q 602 -491 573 -491 l 573 -491 q 558 -491 546 -486 q 534 -481 524 -471 l 524 -471 q 509 -455 502 -424 q 495 -394 495 -339 l 495 -339 l 495 0 l 402 0 l 402 -316 q 402 -375 395 -407 q 388 -439 370 -459 l 370 -459 q 358 -473 339 -482 q 319 -491 289 -491 l 289 -491 q 240 -491 203 -461 q 166 -431 145 -376 q 124 -322 124 -248 l 124 -248 l 124 -225 q 124 -164 133 -128 q 142 -93 158 -78 q 173 -64 193 -64 l 193 -64 q 209 -64 221 -74 q 232 -84 238 -104 q 244 -125 244 -160 l 244 -160 q 244 -213 229 -235 q 214 -257 184 -257 l 184 -257 q 158 -257 137 -242 q 115 -228 91 -197 l 91 -197 l 72 -261 q 94 -287 130 -309 q 165 -331 206 -331 l 206 -331 q 248 -331 277 -312 q 305 -294 320 -256 q 335 -219 335 -164 l 335 -164 q 335 -104 319 -65 q 302 -27 271 -7 q 240 12 195 12 l 195 12 q 152 12 117 -12 q 81 -37 59 -92 q 37 -148 37 -242 l 37 -242 q 37 -353 70 -425 q 103 -498 160 -533 q 216 -568 288 -568 z"},"പ":{"ha":702,"x_min":30,"x_max":645,"o":"m 191 -351 l 191 -351 q 248 -351 284 -326 q 319 -301 336 -262 q 352 -223 352 -179 l 352 -179 q 352 -137 339 -106 q 326 -76 316 -61 l 316 -61 l 305 -76 l 552 -76 l 552 -556 l 645 -556 l 645 0 l 262 0 l 227 -54 q 239 -75 250 -103 q 261 -131 261 -171 l 261 -171 q 261 -218 244 -246 q 226 -275 193 -275 l 193 -275 q 170 -275 154 -262 q 138 -250 130 -227 q 122 -204 122 -175 l 122 -175 q 122 -129 136 -98 q 149 -68 168 -37 l 168 -37 l 97 8 q 69 -29 50 -73 q 30 -118 30 -175 l 30 -175 q 30 -229 50 -268 q 70 -307 107 -329 q 143 -351 191 -351 z"},"ഫ":{"ha":891,"x_min":30,"x_max":838,"o":"m 191 -351 l 191 -351 q 248 -351 284 -326 q 319 -301 336 -262 q 352 -223 352 -179 l 352 -179 q 352 -137 339 -106 q 326 -76 316 -61 l 316 -61 l 303 -76 l 490 -76 l 489 0 l 262 0 l 227 -54 q 239 -75 250 -103 q 261 -131 261 -171 l 261 -171 q 261 -218 244 -246 q 226 -275 193 -275 l 193 -275 q 170 -275 154 -262 q 138 -250 130 -227 q 122 -204 122 -175 l 122 -175 q 122 -129 136 -98 q 149 -68 168 -37 l 168 -37 l 97 8 q 69 -29 50 -73 q 30 -118 30 -175 l 30 -175 q 30 -229 50 -268 q 70 -307 107 -329 q 143 -351 191 -351 z m 643 -568 l 643 -568 q 692 -568 726 -555 q 759 -543 781 -520 l 781 -520 q 816 -487 827 -438 q 838 -390 838 -323 l 838 -323 l 838 0 l 447 0 l 447 -321 q 447 -368 452 -404 q 456 -440 468 -468 q 480 -497 503 -520 l 503 -520 q 525 -542 560 -555 q 594 -568 643 -568 z m 643 -491 l 643 -491 q 616 -491 599 -483 q 581 -475 569 -461 l 569 -461 q 553 -440 547 -406 q 540 -373 540 -315 l 540 -315 l 540 -76 l 745 -76 l 745 -313 q 745 -372 739 -406 q 732 -440 716 -461 l 716 -461 q 704 -475 686 -483 q 667 -491 643 -491 z"},"ബ":{"ha":1026,"x_min":37,"x_max":968,"o":"m 288 -568 l 288 -568 q 351 -568 391 -544 q 430 -520 463 -473 l 463 -473 l 480 -411 l 495 -259 l 495 0 l 402 0 l 402 -316 q 402 -375 395 -407 q 388 -439 370 -459 l 370 -459 q 358 -473 339 -482 q 319 -491 289 -491 l 289 -491 q 240 -491 203 -461 q 166 -431 145 -376 q 124 -322 124 -248 l 124 -248 l 124 -225 q 124 -164 133 -128 q 142 -93 158 -78 q 173 -64 193 -64 l 193 -64 q 209 -64 221 -74 q 232 -84 238 -104 q 244 -125 244 -160 l 244 -160 q 244 -213 229 -235 q 214 -257 184 -257 l 184 -257 q 158 -257 137 -242 q 115 -228 91 -197 l 91 -197 l 72 -261 q 94 -287 130 -309 q 165 -331 206 -331 l 206 -331 q 248 -331 277 -312 q 305 -294 320 -256 q 335 -219 335 -164 l 335 -164 q 335 -104 319 -65 q 302 -27 271 -7 q 240 12 195 12 l 195 12 q 152 12 117 -12 q 81 -37 59 -92 q 37 -148 37 -242 l 37 -242 q 37 -353 70 -425 q 103 -498 160 -533 q 216 -568 288 -568 z m 875 -556 l 968 -556 l 968 0 l 640 0 l 598 -49 q 621 -85 638 -121 q 654 -157 664 -200 q 673 -244 673 -301 l 673 -301 q 673 -359 661 -401 q 648 -444 625 -467 q 602 -491 573 -491 l 573 -491 q 558 -491 546 -486 q 534 -481 524 -471 l 524 -471 q 509 -455 502 -424 q 495 -394 495 -340 l 495 -340 l 495 -8 l 410 -8 l 410 -248 l 440 -422 l 437 -482 q 464 -528 499 -548 q 533 -568 579 -568 l 579 -568 q 639 -568 682 -534 q 724 -501 747 -442 q 769 -384 769 -306 l 769 -306 q 769 -251 761 -206 q 753 -162 738 -126 q 722 -90 700 -57 l 700 -57 l 695 -76 l 875 -76 l 875 -556 z"},"ഭ":{"ha":529,"x_min":42,"x_max":502,"o":"m 328 -568 l 328 -568 q 379 -568 419 -551 q 458 -535 480 -503 q 502 -471 502 -425 l 502 -425 q 502 -396 493 -374 q 484 -352 467 -338 l 467 -338 q 451 -324 427 -318 q 402 -312 367 -311 l 367 -311 l 366 -311 q 351 -311 339 -308 q 326 -306 319 -300 l 319 -300 q 313 -296 309 -289 q 305 -282 305 -272 l 305 -272 q 305 -251 321 -242 q 337 -233 368 -233 l 368 -233 l 369 -233 q 404 -233 429 -224 q 454 -216 469 -201 l 469 -201 q 485 -186 494 -165 q 502 -144 502 -118 l 502 -118 q 502 -81 487 -51 q 471 -22 436 -5 q 400 12 339 12 l 339 12 q 320 12 298 10 q 276 8 253 4 q 230 -1 209 -10 l 209 -10 l 240 -83 q 267 -74 292 -70 q 316 -66 337 -66 l 337 -66 q 382 -66 398 -79 q 414 -93 414 -115 l 414 -115 q 414 -133 401 -145 q 388 -157 354 -157 l 354 -157 l 353 -157 q 316 -158 291 -166 q 265 -175 249 -192 l 249 -192 q 235 -206 227 -227 q 218 -248 218 -271 l 218 -271 q 218 -299 228 -321 q 238 -343 257 -358 l 257 -358 q 273 -369 296 -376 q 318 -384 357 -385 l 357 -385 l 359 -385 q 386 -385 400 -395 q 413 -405 413 -427 l 413 -427 q 413 -460 389 -475 q 364 -491 324 -491 l 324 -491 q 261 -491 219 -459 q 177 -428 157 -369 q 136 -310 136 -228 l 136 -228 q 136 -173 143 -116 q 149 -60 159 -14 l 159 -14 l 69 4 q 58 -45 50 -107 q 42 -169 42 -225 l 42 -225 q 42 -332 74 -408 q 105 -485 169 -526 q 232 -568 328 -568 z"},"മ":{"ha":586,"x_min":50,"x_max":536,"o":"m 287 -568 l 287 -568 q 353 -568 399 -550 q 445 -532 474 -499 l 474 -499 q 496 -475 510 -444 q 524 -413 530 -371 q 536 -330 536 -274 l 536 -274 l 536 0 l 50 0 l 50 -277 q 50 -332 57 -373 q 63 -414 77 -445 q 90 -477 111 -500 l 111 -500 q 141 -533 183 -550 q 224 -568 287 -568 z m 237 -491 l 237 -491 q 214 -491 195 -473 q 175 -455 163 -424 l 163 -424 q 153 -398 148 -362 q 143 -327 143 -272 l 143 -272 l 143 -61 l 136 -64 q 180 -114 214 -171 q 247 -229 266 -288 q 284 -348 284 -404 l 284 -404 q 284 -431 280 -450 q 275 -470 265 -480 q 255 -491 237 -491 z m 378 -388 l 378 -388 q 378 -328 361 -273 q 344 -218 313 -165 q 281 -113 238 -58 l 238 -58 l 222 -71 q 242 -73 270 -74 q 298 -76 311 -76 l 311 -76 l 443 -76 l 443 -282 q 443 -346 432 -388 q 421 -430 399 -456 q 376 -482 339 -494 l 339 -494 l 340 -499 q 357 -479 368 -450 q 378 -422 378 -388 z"},"യ":{"ha":828,"x_min":36,"x_max":790,"o":"m 533 12 l 533 12 q 490 12 456 2 q 421 -8 389 -29 l 389 -29 q 383 -33 378 -40 q 373 -47 368 -52 l 368 -52 q 327 -88 301 -135 q 275 -183 264 -237 q 252 -292 252 -349 l 252 -349 q 252 -383 259 -417 q 266 -452 280 -481 l 280 -481 l 295 -500 q 309 -523 329 -538 q 348 -554 372 -561 q 396 -568 424 -568 l 424 -568 q 503 -568 547 -511 q 591 -455 591 -347 l 591 -347 q 591 -248 558 -171 q 525 -95 466 -45 l 466 -45 q 461 -40 454 -34 q 447 -29 441 -25 l 441 -25 q 411 -6 377 3 q 342 12 298 12 l 298 12 q 234 12 185 -13 q 136 -38 103 -84 q 69 -130 53 -191 q 36 -253 36 -327 l 36 -327 q 36 -403 58 -457 q 79 -511 120 -539 q 161 -568 218 -568 l 218 -568 q 262 -568 295 -550 q 328 -533 362 -495 l 362 -495 l 293 -448 q 277 -473 260 -482 q 242 -492 224 -492 l 224 -492 q 196 -492 175 -474 q 154 -456 143 -420 q 131 -384 131 -327 l 131 -327 q 131 -243 153 -183 q 174 -124 213 -93 q 251 -62 302 -62 l 302 -62 q 328 -62 346 -65 q 364 -69 380 -77 l 380 -77 q 387 -81 393 -83 q 398 -86 403 -90 l 403 -90 q 435 -116 456 -157 q 477 -198 487 -247 q 496 -297 496 -345 l 496 -345 q 496 -402 486 -434 q 475 -466 458 -479 q 441 -492 422 -492 l 422 -492 q 399 -492 382 -477 q 365 -462 356 -429 q 347 -396 347 -346 l 347 -346 q 347 -304 356 -256 q 364 -208 383 -165 q 402 -122 432 -95 l 432 -95 q 437 -91 443 -88 q 448 -85 453 -81 l 453 -81 q 468 -73 488 -68 q 507 -63 530 -63 l 530 -63 q 587 -63 624 -91 q 660 -119 677 -172 q 694 -226 694 -299 l 694 -299 q 694 -358 679 -417 q 664 -477 634 -530 l 634 -530 l 719 -568 q 752 -511 771 -443 q 790 -375 790 -309 l 790 -309 q 790 -239 776 -180 q 762 -122 732 -78 q 702 -35 653 -11 q 603 12 533 12 z"},"ര":{"ha":590,"x_min":35,"x_max":554,"o":"m 288 -568 l 288 -568 q 355 -568 405 -544 q 455 -521 488 -477 q 521 -433 538 -373 q 554 -313 554 -240 l 554 -240 q 554 -146 533 -90 q 512 -35 475 -11 q 437 12 387 12 l 387 12 q 332 12 299 -16 q 265 -44 249 -92 q 232 -140 232 -201 l 232 -201 q 232 -299 270 -351 q 307 -404 375 -404 l 375 -404 q 412 -404 438 -386 q 463 -369 483 -336 q 503 -304 520 -258 l 520 -258 l 487 -244 q 481 -261 470 -281 q 458 -301 440 -315 q 421 -330 397 -330 l 397 -330 q 359 -330 342 -295 q 324 -261 324 -198 l 324 -198 q 324 -155 331 -124 q 338 -94 353 -78 q 367 -63 390 -63 l 390 -63 q 413 -63 430 -80 q 446 -98 455 -138 q 464 -178 464 -243 l 464 -243 q 464 -250 463 -270 q 461 -290 459 -309 l 459 -309 q 458 -314 458 -322 q 458 -330 456 -334 l 456 -334 q 450 -375 430 -410 q 410 -446 376 -468 q 342 -490 295 -490 l 295 -490 q 241 -490 205 -465 q 168 -440 150 -393 q 131 -347 131 -283 l 131 -283 q 131 -229 142 -186 q 152 -143 172 -109 q 191 -76 216 -48 l 216 -48 l 149 9 q 118 -22 92 -65 q 66 -109 51 -164 q 35 -220 35 -290 l 35 -290 q 35 -347 51 -397 q 67 -448 98 -486 q 129 -524 177 -546 q 224 -568 288 -568 z"},"റ":{"ha":536,"x_min":35,"x_max":501,"o":"m 270 -568 l 270 -568 q 331 -568 375 -546 q 418 -525 446 -487 q 474 -449 488 -398 q 501 -348 501 -289 l 501 -289 q 501 -219 486 -164 q 471 -110 446 -68 q 420 -26 386 9 l 386 9 l 318 -48 q 341 -73 361 -105 q 380 -138 392 -182 q 404 -226 404 -284 l 404 -284 q 404 -350 387 -396 q 370 -442 341 -466 q 311 -490 270 -490 l 270 -490 q 229 -490 198 -465 q 166 -441 149 -395 q 132 -350 132 -285 l 132 -285 q 132 -232 143 -188 q 153 -145 172 -110 q 191 -76 217 -48 l 217 -48 l 149 10 q 118 -22 92 -65 q 66 -108 51 -164 q 35 -220 35 -290 l 35 -290 q 35 -347 49 -397 q 63 -448 92 -486 q 121 -525 165 -546 q 209 -568 270 -568 z"},"ല":{"ha":678,"x_min":54,"x_max":621,"o":"m 528 -556 l 621 -556 l 621 0 l 54 0 l 54 -326 q 54 -399 66 -439 q 78 -480 100 -508 l 100 -508 q 123 -538 159 -553 q 194 -568 242 -568 l 242 -568 q 290 -568 326 -553 q 361 -539 383 -511 l 383 -511 q 409 -479 420 -438 q 430 -397 430 -333 l 430 -333 l 430 -221 l 147 -221 l 147 -76 l 528 -76 l 528 -556 z m 241 -492 l 241 -492 q 191 -492 169 -452 q 147 -412 147 -331 l 147 -331 l 147 -297 l 337 -297 l 337 -331 q 337 -414 315 -453 q 292 -492 241 -492 z"},"ള":{"ha":577,"x_min":34,"x_max":545,"o":"m 314 -492 l 314 -492 q 276 -492 244 -483 q 212 -475 186 -458 q 160 -442 143 -420 q 125 -398 116 -370 l 116 -370 q 115 -365 117 -360 q 118 -355 118 -348 l 118 -348 q 116 -342 115 -329 q 113 -317 113 -303 l 113 -303 q 113 -247 127 -218 q 140 -190 170 -190 l 170 -190 q 194 -190 204 -212 q 214 -235 214 -269 l 214 -269 q 214 -294 210 -311 q 205 -329 194 -339 q 183 -349 165 -349 l 165 -349 q 140 -349 123 -335 q 105 -322 89 -305 l 89 -305 l 49 -337 q 67 -358 88 -376 q 109 -395 134 -407 q 158 -419 185 -419 l 185 -419 q 227 -419 254 -399 q 280 -379 292 -346 q 304 -313 304 -270 l 304 -270 q 304 -226 290 -191 q 276 -157 247 -137 q 218 -118 172 -118 l 172 -118 q 131 -118 100 -139 q 68 -160 51 -202 q 34 -244 34 -308 l 34 -308 q 34 -363 51 -410 q 68 -458 104 -493 q 139 -529 194 -548 q 248 -568 322 -568 l 322 -568 q 390 -568 439 -548 q 488 -529 514 -492 q 540 -455 540 -402 l 540 -402 q 540 -364 524 -336 q 507 -308 476 -290 q 445 -273 399 -265 l 399 -265 l 349 -297 l 349 -316 l 354 -316 q 374 -316 392 -321 q 410 -327 425 -340 l 425 -340 q 435 -350 440 -364 q 445 -378 445 -397 l 445 -397 q 445 -427 431 -447 q 417 -468 388 -480 q 358 -492 314 -492 z m 545 -153 l 545 -153 q 545 -113 531 -83 q 517 -54 493 -35 l 493 -35 q 477 -24 459 -16 q 440 -8 414 -4 q 387 0 346 0 l 346 0 l 251 0 q 212 0 194 3 q 176 5 163 11 l 163 11 q 148 18 141 31 q 133 43 133 59 l 133 59 q 133 75 139 87 q 145 98 156 106 l 156 106 q 169 115 192 119 q 214 123 253 123 l 253 123 l 520 123 l 520 201 l 248 201 q 196 201 159 194 q 121 186 95 170 l 95 170 q 69 153 54 127 q 39 100 39 64 l 39 64 q 39 29 53 1 q 67 -28 95 -46 l 95 -46 q 110 -56 129 -62 q 147 -69 175 -72 q 202 -76 241 -76 l 241 -76 l 335 -76 q 370 -76 392 -80 q 413 -85 426 -96 l 426 -96 q 438 -106 444 -121 q 450 -136 450 -157 l 450 -157 q 450 -179 444 -194 q 437 -210 423 -220 l 423 -220 q 411 -230 394 -235 q 377 -240 349 -240 l 349 -240 l 349 -240 l 349 -303 l 424 -290 q 478 -278 512 -242 q 545 -207 545 -153 z"},"ഴ":{"ha":535,"x_min":33,"x_max":502,"o":"m 207 -419 l 207 -419 q 207 -487 247 -527 q 286 -568 354 -568 l 354 -568 q 406 -568 439 -543 q 472 -519 487 -480 q 502 -442 502 -400 l 502 -400 q 502 -328 477 -272 q 451 -217 403 -185 q 355 -154 288 -154 l 288 -154 l 272 -154 q 193 -154 140 -184 q 86 -215 60 -270 q 33 -325 33 -395 l 33 -395 q 33 -440 45 -482 q 57 -525 82 -568 l 82 -568 l 159 -530 q 143 -496 135 -464 q 126 -432 126 -396 l 126 -396 q 126 -339 145 -301 q 163 -264 196 -245 q 228 -226 271 -226 l 271 -226 l 288 -226 q 328 -226 355 -247 q 382 -269 396 -308 q 410 -347 410 -400 l 410 -400 q 410 -439 397 -467 q 383 -495 354 -495 l 354 -495 q 336 -495 324 -484 q 311 -474 305 -455 q 298 -437 298 -413 l 298 -413 q 298 -373 309 -337 q 319 -302 333 -268 q 347 -235 358 -200 q 368 -165 368 -125 l 368 -125 q 368 -93 356 -61 q 343 -30 313 -9 q 283 12 230 12 l 230 12 q 196 12 163 7 q 129 1 98 -13 l 98 -13 l 130 -84 q 153 -74 174 -69 q 195 -65 217 -65 l 217 -65 q 254 -65 267 -87 q 279 -109 279 -134 l 279 -134 q 279 -168 269 -201 q 258 -235 244 -269 q 229 -304 218 -341 q 207 -378 207 -419 z"},"വ":{"ha":759,"x_min":35,"x_max":701,"o":"m 270 -568 l 270 -568 q 331 -568 374 -547 q 417 -526 446 -488 q 474 -450 487 -400 q 500 -351 500 -294 l 500 -294 q 500 -238 490 -193 q 479 -148 461 -111 q 442 -75 419 -43 l 419 -43 l 426 -76 l 608 -76 l 608 -556 l 701 -556 l 701 0 l 371 0 l 327 -57 q 346 -79 364 -111 q 382 -143 393 -186 q 404 -229 404 -284 l 404 -284 q 404 -350 387 -396 q 370 -442 341 -466 q 311 -490 270 -490 l 270 -490 q 229 -490 198 -465 q 166 -441 149 -395 q 132 -350 132 -285 l 132 -285 q 132 -232 143 -188 q 153 -145 172 -110 q 191 -76 217 -48 l 217 -48 l 149 10 q 118 -21 92 -64 q 66 -108 51 -164 q 35 -220 35 -290 l 35 -290 q 35 -347 49 -397 q 63 -448 92 -486 q 121 -525 165 -546 q 209 -568 270 -568 z"},"ശ":{"ha":820,"x_min":35,"x_max":784,"o":"m 527 -568 l 527 -568 q 589 -568 637 -545 q 685 -522 718 -478 q 751 -435 768 -375 q 784 -315 784 -240 l 784 -240 q 784 -146 764 -90 q 743 -35 706 -11 q 668 12 617 12 l 617 12 q 563 12 529 -16 q 495 -44 479 -92 q 463 -140 463 -201 l 463 -201 q 463 -299 500 -351 q 537 -404 605 -404 l 605 -404 q 642 -404 668 -386 q 694 -369 714 -336 q 733 -304 750 -258 l 750 -258 l 717 -244 q 711 -261 700 -281 q 688 -301 670 -315 q 651 -330 627 -330 l 627 -330 q 589 -330 572 -295 q 554 -261 554 -198 l 554 -198 q 554 -155 561 -124 q 568 -94 583 -78 q 598 -63 620 -63 l 620 -63 q 643 -63 660 -80 q 676 -98 685 -138 q 694 -178 694 -243 l 694 -243 q 694 -250 693 -270 q 692 -290 690 -309 l 690 -309 q 689 -314 690 -322 q 690 -330 687 -334 l 687 -334 q 681 -376 662 -412 q 642 -448 609 -469 q 575 -490 527 -490 l 527 -490 q 498 -490 478 -483 q 458 -477 443 -463 l 443 -463 q 413 -436 406 -389 q 398 -342 398 -258 l 398 -258 l 398 -201 q 398 -146 389 -105 q 379 -64 352 -35 l 352 -35 q 330 -12 300 0 q 270 12 227 12 l 227 12 q 167 12 124 -19 q 80 -50 58 -108 q 35 -167 35 -251 l 35 -251 q 35 -325 50 -383 q 64 -441 88 -486 q 111 -531 140 -569 l 140 -569 l 214 -514 q 191 -484 173 -446 q 154 -409 143 -362 q 131 -315 131 -255 l 131 -255 q 131 -194 143 -151 q 155 -109 177 -87 q 199 -66 226 -66 l 226 -66 q 245 -66 259 -72 q 273 -79 281 -92 l 281 -92 q 294 -111 299 -142 q 303 -173 303 -230 l 303 -230 l 303 -301 q 303 -372 316 -424 q 329 -476 368 -514 l 368 -514 q 392 -538 432 -553 q 471 -568 527 -568 z"},"ഷ":{"ha":918,"x_min":30,"x_max":860,"o":"m 191 -351 l 191 -351 q 247 -351 283 -326 q 318 -301 335 -262 q 352 -223 352 -179 l 352 -179 q 352 -137 339 -106 q 326 -76 316 -61 l 316 -61 l 303 -76 l 538 -76 l 564 0 l 262 0 l 228 -54 q 240 -75 251 -102 q 261 -130 261 -169 l 261 -169 q 261 -218 244 -246 q 226 -275 193 -275 l 193 -275 q 170 -275 154 -262 q 138 -250 130 -227 q 122 -204 122 -175 l 122 -175 q 122 -129 136 -98 q 149 -68 168 -37 l 168 -37 l 97 8 q 69 -29 50 -73 q 30 -118 30 -176 l 30 -176 q 30 -229 50 -268 q 70 -307 107 -329 q 143 -351 191 -351 z m 860 0 l 519 0 l 519 -406 q 519 -433 516 -452 q 512 -471 505 -481 l 505 -481 q 502 -487 496 -490 q 489 -493 482 -493 l 482 -493 q 460 -493 448 -471 q 435 -449 435 -411 l 435 -411 q 435 -382 442 -358 q 448 -335 468 -322 q 487 -309 523 -309 l 523 -309 l 562 -309 q 600 -309 630 -327 q 660 -345 684 -378 q 708 -412 730 -457 q 752 -502 772 -556 l 772 -556 l 860 -556 l 860 0 z m 485 -568 l 485 -568 q 516 -568 539 -559 q 561 -550 575 -533 l 575 -533 q 593 -512 601 -482 q 609 -452 609 -403 l 609 -403 l 609 -76 l 769 -76 l 769 -301 q 769 -329 770 -352 q 770 -375 772 -393 q 774 -411 775 -424 l 775 -424 l 777 -417 q 753 -352 719 -311 q 685 -271 646 -253 q 606 -235 565 -235 l 565 -235 l 527 -235 q 464 -235 424 -258 q 384 -282 365 -322 q 346 -362 346 -412 l 346 -412 q 346 -451 361 -487 q 376 -523 407 -545 q 438 -568 485 -568 z"},"സ":{"ha":954,"x_min":35,"x_max":918,"o":"m 487 -568 l 487 -568 q 524 -568 553 -557 q 581 -546 601 -525 l 601 -525 q 619 -507 629 -485 q 639 -463 644 -432 q 649 -401 649 -356 l 649 -356 l 649 -233 q 649 -171 654 -140 q 658 -110 670 -91 l 670 -91 q 679 -79 693 -72 q 706 -66 727 -66 l 727 -66 q 755 -66 777 -87 q 798 -109 810 -151 q 822 -194 822 -255 l 822 -255 q 822 -315 811 -362 q 800 -409 781 -446 q 762 -484 740 -514 l 740 -514 l 814 -569 q 842 -531 866 -486 q 890 -441 904 -383 q 918 -325 918 -251 l 918 -251 q 918 -167 895 -108 q 871 -50 828 -19 q 785 12 726 12 l 726 12 q 684 12 654 0 q 623 -12 601 -34 l 601 -34 q 584 -54 574 -78 q 564 -102 560 -132 q 556 -163 556 -199 l 556 -199 l 556 -350 q 556 -393 552 -420 q 548 -447 535 -465 l 535 -465 q 527 -477 513 -483 q 498 -490 479 -490 l 479 -490 q 460 -490 446 -483 q 431 -476 423 -462 l 423 -462 q 411 -445 407 -416 q 402 -388 402 -336 l 402 -336 l 402 0 l 309 0 l 309 -332 q 309 -392 303 -423 q 296 -454 280 -471 l 280 -471 q 271 -481 258 -486 q 245 -491 231 -491 l 231 -491 q 201 -491 179 -467 q 156 -444 144 -401 q 131 -358 131 -301 l 131 -301 q 131 -243 142 -197 q 153 -151 172 -114 q 191 -77 214 -46 l 214 -46 l 140 9 q 110 -29 87 -74 q 63 -119 49 -176 q 35 -233 35 -306 l 35 -306 q 35 -384 58 -443 q 80 -502 122 -535 q 164 -568 225 -568 l 225 -568 q 269 -568 302 -549 q 335 -531 363 -485 l 363 -485 l 349 -485 q 371 -523 402 -545 q 433 -568 487 -568 z"},"ഹ":{"ha":935,"x_min":30,"x_max":900,"o":"m 191 -351 l 191 -351 q 247 -351 283 -326 q 318 -301 335 -262 q 352 -223 352 -179 l 352 -179 q 352 -137 339 -106 q 326 -76 316 -61 l 316 -61 l 303 -76 l 531 -76 l 564 0 l 262 0 l 228 -54 q 240 -75 251 -102 q 261 -130 261 -169 l 261 -169 q 261 -218 244 -246 q 226 -275 193 -275 l 193 -275 q 170 -275 154 -262 q 138 -250 130 -227 q 122 -204 122 -175 l 122 -175 q 122 -129 136 -98 q 149 -68 168 -37 l 168 -37 l 97 8 q 69 -29 50 -73 q 30 -118 30 -176 l 30 -176 q 30 -229 50 -268 q 70 -307 107 -329 q 143 -351 191 -351 z m 670 -568 l 670 -568 q 731 -568 775 -546 q 818 -525 846 -487 q 874 -449 887 -398 q 900 -348 900 -289 l 900 -289 q 900 -218 886 -163 q 871 -109 845 -67 q 819 -25 786 10 l 786 10 l 718 -48 q 741 -73 761 -105 q 780 -137 792 -181 q 804 -225 804 -284 l 804 -284 q 804 -350 787 -396 q 770 -442 741 -466 q 711 -490 670 -490 l 670 -490 q 628 -490 597 -465 q 566 -441 549 -395 q 532 -350 532 -285 l 532 -285 q 532 -236 541 -195 q 550 -154 568 -120 q 585 -86 609 -57 l 609 -57 l 563 0 l 546 0 l 518 -43 q 496 -74 477 -111 q 458 -149 447 -194 q 435 -239 435 -292 l 435 -292 q 435 -348 449 -398 q 463 -449 492 -487 q 521 -525 565 -546 q 609 -568 670 -568 z"},"ഺ":{"ha":580,"x_min":19,"x_max":563,"o":"m 123 -76 l 563 -76 l 563 0 l 365 0 l 365 202 l 272 202 l 272 0 l 69 0 l 19 -61 l 208 -562 l 296 -533 l 123 -76 z"},"഻":{"ha":0,"x_min":-316,"x_max":-242,"o":"m -316 -588 l -316 -864 l -242 -864 l -242 -588 l -316 -588 z"},"഼":{"ha":0,"x_min":-214,"x_max":13,"o":"m -214 -723 l -214 -723 q -214 -785 -182 -820 q -151 -855 -101 -855 l -101 -855 q -50 -855 -18 -820 q 13 -786 13 -723 l 13 -723 q 13 -661 -18 -626 q -49 -591 -101 -591 l -101 -591 q -152 -591 -183 -626 q -214 -661 -214 -723 z m -143 -724 l -143 -724 q -143 -694 -132 -676 q -122 -658 -101 -658 l -101 -658 q -79 -658 -68 -675 q -58 -693 -58 -724 l -58 -724 q -58 -754 -69 -771 q -80 -788 -101 -788 l -101 -788 q -121 -788 -132 -771 q -143 -754 -143 -724 z"},"ഽ":{"ha":385,"x_min":-56,"x_max":441,"o":"m 297 -794 l 297 -794 q 339 -794 368 -775 q 396 -757 415 -724 q 433 -691 441 -649 l 441 -649 l 350 -631 q 345 -656 338 -676 q 331 -696 321 -707 q 311 -718 295 -718 l 295 -718 q 282 -718 273 -713 q 264 -709 258 -701 l 258 -701 q 249 -688 245 -664 q 240 -640 240 -597 l 240 -597 l 240 32 q 240 107 228 148 q 216 189 187 212 l 187 212 q 168 228 145 236 q 121 244 87 244 l 87 244 q 46 244 18 225 q -11 206 -29 174 q -47 141 -56 99 l -56 99 l 35 80 q 40 106 47 126 q 54 146 65 157 q 75 168 91 168 l 91 168 q 104 168 113 163 q 121 158 127 150 l 127 150 q 137 136 141 112 q 145 87 145 45 l 145 45 l 145 -583 q 145 -657 157 -698 q 169 -739 198 -763 l 198 -763 q 217 -779 241 -786 q 264 -794 297 -794 z"},"ാ":{"ha":412,"x_min":15,"x_max":374,"o":"m 374 -280 l 374 -280 q 374 -214 365 -160 q 356 -106 336 -67 q 315 -29 281 -8 q 247 12 195 12 l 195 12 q 150 12 118 -4 q 85 -20 64 -47 q 43 -74 32 -107 q 20 -140 15 -174 l 15 -174 l 109 -192 q 114 -165 123 -135 q 132 -105 149 -84 q 165 -64 192 -64 l 192 -64 q 224 -64 243 -88 q 261 -112 270 -160 q 279 -209 279 -280 l 279 -280 q 279 -349 270 -396 q 261 -444 243 -468 q 224 -493 195 -493 l 195 -493 q 170 -493 153 -475 q 136 -457 127 -428 q 117 -399 111 -366 l 111 -366 l 18 -384 q 26 -419 39 -452 q 52 -485 73 -511 q 94 -538 126 -553 q 157 -568 202 -568 l 202 -568 q 251 -568 284 -547 q 317 -527 337 -489 q 357 -451 366 -397 q 374 -344 374 -280 z"},"ി":{"ha":208,"x_min":-180,"x_max":151,"o":"m -19 -845 l -19 -845 q 16 -845 46 -834 q 76 -824 97 -804 l 97 -804 q 118 -784 130 -756 q 141 -729 146 -691 q 151 -654 151 -601 l 151 -601 l 151 0 l 58 0 l 58 -559 q 58 -611 56 -648 q 53 -685 47 -709 q 40 -734 29 -748 l 29 -748 q 20 -759 9 -764 q -3 -769 -20 -769 l -20 -769 q -36 -769 -52 -760 q -68 -752 -77 -734 q -87 -716 -87 -686 l -87 -686 q -87 -675 -85 -661 q -84 -647 -82 -638 l -82 -638 l -173 -625 q -176 -636 -178 -653 q -180 -670 -180 -688 l -180 -688 q -180 -739 -158 -774 q -136 -809 -99 -827 q -63 -845 -19 -845 z"},"ീ":{"ha":208,"x_min":-221,"x_max":151,"o":"m -66 -845 l -66 -845 q -16 -845 21 -830 q 58 -815 85 -790 l 85 -790 q 123 -753 137 -699 q 151 -645 151 -561 l 151 -561 l 151 0 l 58 0 l 58 -538 q 58 -594 55 -633 q 51 -673 43 -700 q 34 -727 18 -745 l 18 -745 q 2 -763 -20 -771 q -42 -779 -78 -779 l -78 -779 q -92 -779 -109 -772 q -126 -766 -137 -750 q -148 -735 -148 -708 l -148 -708 q -148 -676 -136 -662 q -124 -649 -104 -649 l -104 -649 q -81 -649 -70 -664 q -59 -680 -59 -707 l -59 -707 q -59 -731 -68 -754 q -77 -777 -94 -791 l -94 -791 l -17 -781 q -7 -771 1 -751 q 8 -731 8 -703 l 8 -703 q 8 -668 -3 -640 q -15 -612 -40 -595 q -65 -579 -105 -579 l -105 -579 q -138 -579 -164 -593 q -191 -608 -206 -636 q -221 -665 -221 -709 l -221 -709 q -221 -748 -203 -779 q -185 -810 -150 -827 q -116 -845 -66 -845 z"},"ു":{"ha":277,"x_min":-17,"x_max":282,"o":"m 133 229 l 133 229 q 64 229 24 183 q -17 137 -17 53 l -17 53 q -17 -3 2 -42 q 20 -82 54 -102 q 87 -123 132 -123 l 132 -123 q 177 -123 211 -102 q 244 -82 263 -43 q 282 -4 282 53 l 282 53 q 282 109 263 149 q 244 188 211 209 q 177 229 133 229 z m 133 159 l 133 159 q 163 159 180 133 q 196 106 196 53 l 196 53 q 196 2 180 -24 q 164 -51 132 -51 l 132 -51 q 102 -51 86 -25 q 69 1 69 54 l 69 54 q 69 107 86 133 q 103 159 133 159 z m 100 -568 l 100 -568 q 149 -568 178 -545 q 207 -523 219 -487 q 231 -451 231 -410 l 231 -410 q 231 -343 216 -259 q 201 -176 180 -88 l 180 -88 l 93 -103 q 112 -186 124 -260 q 136 -334 136 -398 l 136 -398 q 136 -441 124 -465 q 111 -490 76 -490 l 76 -490 q 64 -490 52 -488 q 40 -487 29 -483 l 29 -483 l 13 -557 q 29 -562 50 -565 q 70 -568 100 -568 z"},"ൂ":{"ha":277,"x_min":-17,"x_max":282,"o":"m 133 229 l 133 229 q 64 229 24 183 q -17 137 -17 53 l -17 53 q -17 -3 2 -42 q 20 -82 54 -102 q 88 -123 132 -123 l 132 -123 q 177 -123 211 -102 q 244 -82 263 -43 q 282 -4 282 53 l 282 53 q 282 109 263 149 q 244 188 211 209 q 177 229 133 229 z m 132 -56 l 132 -56 q 99 -56 77 -30 q 55 -4 55 54 l 55 54 q 55 110 76 135 q 97 160 133 160 l 133 160 q 168 160 189 135 q 210 109 210 55 l 210 55 q 210 -2 189 -29 q 168 -56 132 -56 z m 132 97 l 132 97 q 84 97 64 66 q 44 35 44 -10 l 44 -10 q 44 -34 53 -55 q 62 -76 78 -98 l 78 -98 l 117 -69 q 101 -59 92 -46 q 82 -34 82 -17 l 82 -17 q 82 -4 88 7 q 93 17 104 23 q 115 28 132 28 l 132 28 q 149 28 160 23 q 171 17 177 7 q 183 -3 183 -16 l 183 -16 q 183 -35 175 -47 q 166 -60 150 -68 l 150 -68 l 191 -98 q 208 -73 215 -53 q 221 -34 221 -13 l 221 -13 q 221 14 214 39 q 206 64 187 81 q 167 97 132 97 z m 101 -568 l 101 -568 q 150 -568 179 -545 q 207 -523 219 -487 q 231 -451 231 -410 l 231 -410 q 231 -343 216 -259 q 201 -176 180 -88 l 180 -88 l 93 -103 q 112 -186 124 -260 q 136 -334 136 -398 l 136 -398 q 136 -441 124 -465 q 111 -490 76 -490 l 76 -490 q 65 -490 53 -488 q 40 -487 29 -483 l 29 -483 l 13 -557 q 29 -562 50 -565 q 71 -568 101 -568 z"},"ൃ":{"ha":217,"x_min":-123,"x_max":214,"o":"m 34 321 l 34 321 q -14 321 -49 304 q -85 287 -104 254 q -123 220 -123 170 l -123 170 q -123 107 -85 68 q -47 28 27 28 l 27 28 q 56 28 93 40 q 129 51 167 88 l 167 88 l 148 157 q 117 128 89 116 q 61 103 31 103 l 31 103 q 2 103 -16 120 q -34 136 -34 173 l -34 173 q -34 208 -16 227 q 2 245 33 245 l 33 245 q 62 245 82 233 q 102 220 112 193 q 122 166 122 123 l 122 123 q 122 93 118 66 q 114 38 105 3 q 95 -33 78 -85 l 78 -85 q 64 -133 51 -187 q 38 -242 38 -304 l 38 -304 q 38 -370 54 -433 q 70 -496 95 -556 l 95 -556 l 192 -556 q 171 -506 158 -465 q 144 -424 138 -386 q 131 -349 131 -307 l 131 -307 q 131 -253 141 -209 q 150 -165 168 -109 l 168 -109 q 184 -57 194 -18 q 204 21 209 55 q 214 88 214 122 l 214 122 q 214 195 190 239 q 165 282 124 302 q 83 321 34 321 z"},"ൄ":{"ha":217,"x_min":-223,"x_max":214,"o":"m -20 321 l -20 321 q -84 321 -130 301 q -176 280 -199 242 q -223 203 -223 150 l -223 150 q -223 96 -194 65 q -166 34 -121 34 l -121 34 q -96 34 -78 47 q -60 60 -49 82 l -49 82 l -58 80 q -47 58 -28 46 q -9 34 14 34 l 14 34 q 39 34 56 44 q 72 53 81 69 q 89 84 93 104 q 96 123 96 142 l 96 142 l 96 176 l 34 176 l 34 159 q 34 133 28 118 q 22 103 7 103 l 7 103 q -11 103 -17 118 q -23 132 -23 156 l -23 156 l -23 176 l -85 176 l -85 155 q -85 131 -92 117 q -99 103 -113 103 l -113 103 q -127 103 -136 115 q -145 126 -145 148 l -145 148 q -145 192 -114 219 q -84 245 -21 245 l -21 245 q 45 245 83 214 q 120 183 120 120 l 120 120 q 120 91 116 64 q 112 37 103 3 q 93 -32 78 -84 l 78 -84 q 64 -131 51 -185 q 38 -240 38 -304 l 38 -304 q 38 -370 54 -433 q 70 -496 95 -556 l 95 -556 l 192 -556 q 171 -506 158 -465 q 144 -424 138 -386 q 131 -349 131 -307 l 131 -307 q 131 -253 141 -209 q 150 -165 167 -110 l 167 -110 q 184 -57 195 -18 q 205 20 210 53 q 214 86 214 123 l 214 123 q 214 189 184 233 q 153 276 100 299 q 47 321 -20 321 z"},"െ":{"ha":569,"x_min":36,"x_max":533,"o":"m 194 12 l 194 12 q 151 12 115 -12 q 79 -36 58 -90 q 36 -145 36 -235 l 36 -235 q 36 -315 55 -376 q 74 -438 109 -481 q 143 -524 191 -546 q 239 -568 297 -568 l 297 -568 q 357 -568 402 -547 q 447 -527 476 -489 q 505 -451 519 -400 q 533 -349 533 -289 l 533 -289 q 533 -218 519 -163 q 504 -109 478 -67 q 452 -26 419 10 l 419 10 l 352 -48 q 374 -73 394 -105 q 413 -138 425 -181 q 437 -224 437 -281 l 437 -281 q 437 -349 421 -395 q 404 -442 372 -466 q 339 -490 293 -490 l 293 -490 q 243 -490 204 -458 q 165 -426 144 -368 q 123 -310 123 -232 l 123 -232 q 123 -167 132 -130 q 140 -94 156 -79 q 171 -64 191 -64 l 191 -64 q 207 -64 219 -74 q 230 -84 237 -104 q 243 -125 243 -160 l 243 -160 q 243 -213 228 -235 q 213 -257 182 -257 l 182 -257 q 157 -257 136 -242 q 114 -228 90 -197 l 90 -197 l 70 -261 q 92 -287 128 -309 q 163 -331 205 -331 l 205 -331 q 246 -331 275 -312 q 303 -294 319 -256 q 334 -219 334 -164 l 334 -164 q 334 -105 318 -66 q 301 -27 270 -7 q 239 12 194 12 z"},"േ":{"ha":481,"x_min":35,"x_max":451,"o":"m 282 12 l 282 12 q 230 12 186 -5 q 141 -23 107 -59 q 72 -95 54 -151 q 35 -207 35 -282 l 35 -282 q 35 -356 56 -410 q 76 -464 112 -499 q 147 -534 194 -551 q 240 -568 293 -568 l 293 -568 q 350 -568 385 -548 q 420 -529 436 -497 q 451 -465 451 -426 l 451 -426 q 451 -384 436 -355 q 420 -326 394 -311 q 367 -296 332 -296 l 332 -296 q 288 -296 261 -313 q 234 -330 222 -358 q 210 -387 210 -422 l 210 -422 q 210 -446 218 -468 q 225 -491 236 -505 l 236 -505 l 316 -513 q 302 -499 294 -475 q 285 -452 285 -426 l 285 -426 q 285 -402 294 -384 q 302 -367 328 -367 l 328 -367 q 350 -367 360 -381 q 370 -396 370 -424 l 370 -424 q 370 -460 353 -478 q 335 -497 307 -497 l 307 -497 q 296 -497 282 -497 q 267 -497 259 -496 l 259 -496 q 222 -493 193 -466 q 163 -439 146 -392 q 128 -345 128 -281 l 128 -281 q 128 -219 143 -171 q 157 -124 185 -95 q 212 -67 248 -61 l 248 -61 q 259 -60 275 -59 q 290 -59 298 -59 l 298 -59 q 320 -59 335 -68 q 349 -77 357 -93 q 365 -109 365 -133 l 365 -133 q 365 -159 356 -175 q 346 -191 324 -191 l 324 -191 q 300 -191 290 -173 q 280 -155 280 -130 l 280 -130 q 280 -102 289 -79 q 298 -57 311 -43 l 311 -43 l 231 -51 q 220 -67 213 -90 q 205 -113 205 -138 l 205 -138 q 205 -169 217 -197 q 229 -226 256 -243 q 282 -261 324 -261 l 324 -261 q 360 -261 388 -246 q 415 -232 431 -203 q 446 -175 446 -131 l 446 -131 q 446 -92 430 -59 q 413 -26 377 -7 q 341 12 282 12 z"},"ൈ":{"ha":1136,"x_min":36,"x_max":1100,"o":"m 194 12 l 194 12 q 151 12 115 -12 q 79 -36 58 -90 q 36 -145 36 -235 l 36 -235 q 36 -315 55 -376 q 74 -438 109 -481 q 143 -524 191 -546 q 239 -568 297 -568 l 297 -568 q 357 -568 402 -547 q 447 -527 476 -489 q 505 -451 519 -400 q 533 -349 533 -289 l 533 -289 q 533 -218 519 -163 q 504 -109 478 -67 q 452 -26 419 10 l 419 10 l 352 -48 q 374 -73 394 -105 q 413 -138 425 -181 q 437 -224 437 -281 l 437 -281 q 437 -349 421 -395 q 404 -442 372 -466 q 339 -490 293 -490 l 293 -490 q 243 -490 204 -458 q 165 -426 144 -368 q 123 -310 123 -232 l 123 -232 q 123 -167 132 -130 q 140 -94 156 -79 q 171 -64 191 -64 l 191 -64 q 207 -64 219 -74 q 230 -84 237 -104 q 243 -125 243 -160 l 243 -160 q 243 -213 228 -235 q 213 -257 182 -257 l 182 -257 q 157 -257 136 -242 q 114 -228 90 -197 l 90 -197 l 70 -261 q 92 -287 128 -309 q 163 -331 205 -331 l 205 -331 q 246 -331 275 -312 q 303 -294 319 -256 q 334 -219 334 -164 l 334 -164 q 334 -105 318 -66 q 301 -27 270 -7 q 239 12 194 12 z m 761 12 l 761 12 q 718 12 682 -12 q 646 -36 625 -90 q 603 -145 603 -235 l 603 -235 q 603 -315 622 -376 q 641 -438 676 -481 q 710 -524 758 -546 q 806 -568 864 -568 l 864 -568 q 924 -568 969 -547 q 1014 -527 1043 -489 q 1072 -451 1086 -400 q 1100 -349 1100 -289 l 1100 -289 q 1100 -218 1086 -163 q 1071 -109 1045 -67 q 1019 -26 986 10 l 986 10 l 919 -48 q 941 -73 961 -105 q 980 -138 992 -181 q 1004 -224 1004 -281 l 1004 -281 q 1004 -349 988 -395 q 971 -442 939 -466 q 906 -490 860 -490 l 860 -490 q 810 -490 771 -458 q 732 -426 711 -368 q 690 -310 690 -232 l 690 -232 q 690 -167 699 -130 q 707 -94 723 -79 q 738 -64 758 -64 l 758 -64 q 774 -64 786 -74 q 797 -84 804 -104 q 810 -125 810 -160 l 810 -160 q 810 -213 795 -235 q 780 -257 749 -257 l 749 -257 q 724 -257 703 -242 q 681 -228 657 -197 l 657 -197 l 637 -261 q 659 -287 695 -309 q 730 -331 772 -331 l 772 -331 q 813 -331 842 -312 q 870 -294 886 -256 q 901 -219 901 -164 l 901 -164 q 901 -105 885 -66 q 868 -27 837 -7 q 806 12 761 12 z"},"ൊ":{"ha":1132,"x_min":36,"x_max":1094,"o":"m 194 12 l 194 12 q 151 12 115 -12 q 79 -36 58 -90 q 36 -145 36 -235 l 36 -235 q 36 -315 55 -376 q 74 -438 109 -481 q 143 -524 191 -546 q 239 -568 297 -568 l 297 -568 q 357 -568 402 -547 q 447 -527 476 -489 q 505 -451 519 -400 q 533 -349 533 -289 l 533 -289 q 533 -218 519 -163 q 504 -109 478 -67 q 452 -26 419 10 l 419 10 l 352 -48 q 374 -73 394 -105 q 413 -138 425 -181 q 437 -224 437 -281 l 437 -281 q 437 -349 421 -395 q 404 -442 372 -466 q 339 -490 293 -490 l 293 -490 q 243 -490 204 -458 q 165 -426 144 -368 q 123 -310 123 -232 l 123 -232 q 123 -167 132 -130 q 140 -94 156 -79 q 171 -64 191 -64 l 191 -64 q 207 -64 219 -74 q 230 -84 237 -104 q 243 -125 243 -160 l 243 -160 q 243 -213 228 -235 q 213 -257 182 -257 l 182 -257 q 157 -257 136 -242 q 114 -228 90 -197 l 90 -197 l 70 -261 q 92 -287 128 -309 q 163 -331 205 -331 l 205 -331 q 246 -331 275 -312 q 303 -294 319 -256 q 334 -219 334 -164 l 334 -164 q 334 -105 318 -66 q 301 -27 270 -7 q 239 12 194 12 z m 651 -230 l 651 -230 q 623 -230 607 -247 q 590 -265 590 -299 l 590 -299 q 590 -333 606 -350 q 622 -368 651 -368 l 651 -368 q 679 -368 696 -351 q 712 -335 712 -299 l 712 -299 q 712 -264 695 -247 q 678 -230 651 -230 z m 1093 -280 l 1093 -280 q 1093 -214 1084 -160 q 1075 -106 1055 -67 q 1034 -29 1000 -8 q 966 12 914 12 l 914 12 q 869 12 837 -4 q 804 -20 783 -47 q 762 -74 751 -107 q 739 -140 734 -174 l 734 -174 l 828 -192 q 833 -165 842 -135 q 851 -105 868 -84 q 884 -64 911 -64 l 911 -64 q 943 -64 962 -88 q 980 -112 989 -160 q 998 -209 998 -280 l 998 -280 q 998 -349 989 -396 q 980 -444 962 -468 q 943 -493 914 -493 l 914 -493 q 889 -493 872 -475 q 855 -457 846 -428 q 836 -399 830 -366 l 830 -366 l 737 -384 q 745 -419 758 -452 q 771 -485 792 -511 q 813 -538 845 -553 q 876 -568 921 -568 l 921 -568 q 970 -568 1003 -547 q 1036 -527 1056 -489 q 1076 -451 1085 -397 q 1093 -344 1093 -280 z"},"ോ":{"ha":1030,"x_min":35,"x_max":992,"o":"m 282 12 l 282 12 q 230 12 186 -5 q 141 -23 107 -59 q 72 -95 54 -151 q 35 -207 35 -282 l 35 -282 q 35 -356 56 -410 q 76 -464 112 -499 q 147 -534 194 -551 q 240 -568 293 -568 l 293 -568 q 350 -568 385 -548 q 420 -529 436 -497 q 451 -465 451 -426 l 451 -426 q 451 -384 436 -355 q 420 -326 394 -311 q 367 -296 332 -296 l 332 -296 q 288 -296 261 -313 q 234 -330 222 -358 q 210 -387 210 -422 l 210 -422 q 210 -446 218 -468 q 225 -491 236 -505 l 236 -505 l 316 -513 q 302 -499 294 -475 q 285 -452 285 -426 l 285 -426 q 285 -402 294 -384 q 302 -367 328 -367 l 328 -367 q 350 -367 360 -381 q 370 -396 370 -424 l 370 -424 q 370 -460 353 -478 q 335 -497 307 -497 l 307 -497 q 296 -497 282 -497 q 267 -497 259 -496 l 259 -496 q 222 -493 193 -466 q 163 -439 146 -392 q 128 -345 128 -281 l 128 -281 q 128 -219 143 -171 q 157 -124 185 -95 q 212 -67 248 -61 l 248 -61 q 259 -60 275 -59 q 290 -59 298 -59 l 298 -59 q 320 -59 335 -68 q 349 -77 357 -93 q 365 -109 365 -133 l 365 -133 q 365 -159 356 -175 q 346 -191 324 -191 l 324 -191 q 300 -191 290 -173 q 280 -155 280 -130 l 280 -130 q 280 -102 289 -79 q 298 -57 311 -43 l 311 -43 l 231 -51 q 220 -67 213 -90 q 205 -113 205 -138 l 205 -138 q 205 -169 217 -197 q 229 -226 256 -243 q 282 -261 324 -261 l 324 -261 q 360 -261 388 -246 q 415 -232 431 -203 q 446 -175 446 -131 l 446 -131 q 446 -92 430 -59 q 413 -26 377 -7 q 341 12 282 12 z m 550 -230 l 550 -230 q 522 -230 506 -247 q 489 -265 489 -299 l 489 -299 q 489 -333 505 -350 q 521 -368 550 -368 l 550 -368 q 578 -368 595 -351 q 611 -335 611 -299 l 611 -299 q 611 -264 594 -247 q 577 -230 550 -230 z m 992 -280 l 992 -280 q 992 -214 983 -160 q 974 -106 954 -67 q 933 -29 899 -8 q 865 12 813 12 l 813 12 q 768 12 736 -4 q 703 -20 682 -47 q 661 -74 650 -107 q 638 -140 633 -174 l 633 -174 l 727 -192 q 732 -165 741 -135 q 750 -105 767 -84 q 783 -64 810 -64 l 810 -64 q 842 -64 861 -88 q 879 -112 888 -160 q 897 -209 897 -280 l 897 -280 q 897 -349 888 -396 q 879 -444 861 -468 q 842 -493 813 -493 l 813 -493 q 788 -493 771 -475 q 754 -457 745 -428 q 735 -399 729 -366 l 729 -366 l 636 -384 q 644 -419 657 -452 q 670 -485 691 -511 q 712 -538 744 -553 q 775 -568 820 -568 l 820 -568 q 869 -568 902 -547 q 935 -527 955 -489 q 975 -451 984 -397 q 992 -344 992 -280 z"},"ൌ":{"ha":1333,"x_min":36,"x_max":1296,"o":"m 194 12 l 194 12 q 151 12 115 -12 q 79 -36 58 -90 q 36 -145 36 -235 l 36 -235 q 36 -315 55 -376 q 74 -438 109 -481 q 143 -524 191 -546 q 239 -568 297 -568 l 297 -568 q 357 -568 402 -547 q 447 -527 476 -489 q 505 -451 519 -400 q 533 -349 533 -289 l 533 -289 q 533 -218 519 -163 q 504 -109 478 -67 q 452 -26 419 10 l 419 10 l 352 -48 q 374 -73 394 -105 q 413 -138 425 -181 q 437 -224 437 -281 l 437 -281 q 437 -349 421 -395 q 404 -442 372 -466 q 339 -490 293 -490 l 293 -490 q 243 -490 204 -458 q 165 -426 144 -368 q 123 -310 123 -232 l 123 -232 q 123 -167 132 -130 q 140 -94 156 -79 q 171 -64 191 -64 l 191 -64 q 207 -64 219 -74 q 230 -84 237 -104 q 243 -125 243 -160 l 243 -160 q 243 -213 228 -235 q 213 -257 182 -257 l 182 -257 q 157 -257 136 -242 q 114 -228 90 -197 l 90 -197 l 70 -261 q 92 -287 128 -309 q 163 -331 205 -331 l 205 -331 q 246 -331 275 -312 q 303 -294 319 -256 q 334 -219 334 -164 l 334 -164 q 334 -105 318 -66 q 301 -27 270 -7 q 239 12 194 12 z m 652 -230 l 652 -230 q 624 -230 608 -247 q 591 -265 591 -299 l 591 -299 q 591 -333 607 -350 q 623 -368 652 -368 l 652 -368 q 680 -368 697 -351 q 713 -335 713 -299 l 713 -299 q 713 -264 696 -247 q 679 -230 652 -230 z m 1133 -568 l 1133 -568 q 1185 -568 1222 -538 q 1258 -509 1277 -451 q 1296 -394 1296 -307 l 1296 -307 q 1296 -196 1269 -125 q 1241 -54 1188 -21 q 1134 12 1056 12 l 1056 12 q 1015 12 971 4 q 927 -5 886 -28 l 886 -28 l 927 -101 q 953 -88 984 -78 q 1015 -69 1049 -69 l 1049 -69 q 1105 -69 1139 -94 q 1172 -120 1187 -172 q 1201 -225 1201 -306 l 1201 -306 q 1201 -399 1180 -445 q 1159 -491 1124 -491 l 1124 -491 q 1112 -491 1104 -487 q 1096 -483 1090 -474 l 1090 -474 q 1079 -461 1075 -437 q 1070 -414 1070 -362 l 1070 -362 l 1070 -262 l 978 -262 l 978 -355 q 978 -403 975 -427 q 971 -452 962 -467 l 962 -467 q 956 -479 945 -485 q 933 -491 920 -491 l 920 -491 q 888 -491 872 -462 q 856 -434 856 -393 l 856 -393 q 856 -359 860 -330 q 864 -301 870 -277 l 870 -277 l 782 -257 q 774 -288 768 -323 q 762 -359 762 -396 l 762 -396 q 762 -442 778 -481 q 794 -520 827 -544 q 859 -568 910 -568 l 910 -568 q 952 -568 981 -550 q 1009 -533 1028 -499 l 1028 -499 l 1015 -500 q 1036 -538 1065 -553 q 1093 -568 1133 -568 z"},"്":{"ha":0,"x_min":-237,"x_max":54,"o":"m -92 -592 l -92 -592 q -142 -592 -174 -612 q -206 -633 -221 -668 q -237 -704 -237 -751 l -237 -751 q -237 -773 -233 -791 q -230 -810 -226 -822 l -226 -822 l -146 -809 q -149 -796 -151 -782 q -153 -768 -153 -752 l -153 -752 q -153 -720 -145 -700 q -137 -681 -123 -673 q -109 -665 -91 -665 l -91 -665 q -72 -665 -58 -673 q -45 -682 -37 -701 q -29 -720 -29 -753 l -29 -753 q -29 -768 -31 -782 q -33 -797 -36 -809 l -36 -809 l 43 -822 q 47 -810 51 -791 q 54 -773 54 -752 l 54 -752 q 54 -705 39 -669 q 23 -633 -9 -612 q -41 -592 -92 -592 z"},"ൎ":{"ha":0,"x_min":-328,"x_max":-223,"o":"m -328 -815 l -223 -815 l -230 -630 l -321 -630 l -328 -815 z"},"൏":{"ha":993,"x_min":43,"x_max":953,"o":"m 474 -568 l 474 -568 q 537 -568 577 -544 q 616 -520 649 -474 l 649 -474 l 623 -482 q 650 -528 685 -548 q 719 -568 762 -568 l 762 -568 q 821 -568 864 -532 q 907 -497 930 -424 q 953 -351 953 -240 l 953 -240 q 953 -85 907 21 q 861 126 762 180 q 663 234 503 234 l 503 234 q 398 234 321 210 q 244 185 191 141 q 137 96 105 37 q 72 -22 58 -91 q 43 -161 43 -235 l 43 -235 q 43 -303 58 -380 q 72 -458 103 -543 l 103 -543 l 187 -515 q 159 -446 146 -372 q 133 -299 133 -236 l 133 -236 q 133 -177 143 -121 q 153 -65 177 -15 q 200 34 242 72 q 284 109 349 130 q 413 151 503 151 l 503 151 q 607 151 675 126 q 743 100 783 50 q 823 0 840 -73 q 857 -146 857 -241 l 857 -241 q 857 -324 846 -379 q 834 -435 812 -463 q 789 -491 757 -491 l 757 -491 q 743 -491 732 -486 q 720 -481 710 -471 l 710 -471 q 695 -455 688 -424 q 681 -394 681 -339 l 681 -339 l 681 0 l 588 0 l 588 -316 q 588 -375 581 -407 q 574 -439 556 -459 l 556 -459 q 544 -473 525 -482 q 505 -491 475 -491 l 475 -491 q 426 -491 389 -461 q 352 -431 331 -376 q 310 -322 310 -248 l 310 -248 l 310 -225 q 310 -164 319 -128 q 328 -93 344 -78 q 359 -64 379 -64 l 379 -64 q 395 -64 407 -74 q 418 -84 424 -104 q 430 -125 430 -160 l 430 -160 q 430 -213 415 -235 q 400 -257 370 -257 l 370 -257 q 344 -257 323 -242 q 301 -228 277 -197 l 277 -197 l 258 -261 q 280 -287 316 -309 q 351 -331 392 -331 l 392 -331 q 434 -331 463 -312 q 491 -294 506 -256 q 521 -219 521 -164 l 521 -164 q 521 -104 505 -65 q 488 -27 457 -7 q 426 12 381 12 l 381 12 q 338 12 303 -12 q 267 -37 245 -92 q 223 -148 223 -242 l 223 -242 q 223 -353 256 -425 q 289 -498 346 -533 q 402 -568 474 -568 z"},"ൔ":{"ha":510,"x_min":45,"x_max":500,"o":"m 137 -794 l 137 -794 q 167 -794 191 -785 q 214 -777 227 -763 l 227 -763 q 247 -743 255 -715 q 263 -687 263 -644 l 263 -644 l 263 -524 q 263 -480 268 -441 q 272 -403 288 -363 q 304 -324 337 -276 l 337 -276 l 353 -254 q 379 -218 416 -172 q 453 -126 500 -71 l 500 -71 l 465 0 l 51 0 l 51 -277 q 51 -334 58 -375 q 64 -416 78 -446 q 91 -477 112 -500 l 112 -500 q 142 -532 181 -550 q 219 -568 269 -568 l 269 -568 q 317 -568 354 -544 q 390 -521 411 -479 q 431 -438 431 -382 l 431 -382 q 431 -329 411 -285 q 390 -242 362 -204 l 362 -204 l 345 -185 q 327 -161 308 -138 q 288 -115 269 -93 q 249 -72 229 -52 l 229 -52 l 230 -73 q 251 -75 271 -76 q 290 -77 302 -77 l 302 -77 l 340 -77 q 347 -77 361 -76 q 374 -75 390 -75 q 406 -75 417 -74 l 417 -74 l 404 -62 q 375 -98 350 -128 q 325 -159 304 -187 l 304 -187 l 278 -218 q 234 -277 213 -326 q 191 -375 184 -425 q 176 -476 176 -540 l 176 -540 l 176 -630 q 176 -659 171 -675 q 166 -691 157 -700 l 157 -700 q 151 -706 141 -710 q 130 -714 116 -714 l 116 -714 q 103 -714 89 -711 q 74 -709 62 -705 l 62 -705 l 45 -781 q 61 -787 86 -790 q 111 -794 137 -794 z m 143 -265 l 143 -61 l 134 -62 q 159 -87 188 -117 q 216 -148 244 -183 q 271 -219 292 -257 l 292 -257 l 311 -286 q 324 -310 331 -335 q 338 -361 338 -386 l 338 -386 q 338 -418 328 -442 q 317 -466 297 -479 q 276 -493 247 -493 l 247 -493 q 217 -493 196 -474 q 175 -455 163 -422 l 163 -422 q 157 -405 153 -384 q 148 -363 146 -334 q 143 -305 143 -265 l 143 -265 z"},"ൕ":{"ha":824,"x_min":36,"x_max":790,"o":"m 540 12 l 540 12 q 508 12 482 8 q 456 3 434 -6 q 412 -15 390 -29 l 390 -29 q 384 -33 379 -40 q 374 -47 368 -52 l 368 -52 q 328 -88 302 -135 q 276 -183 264 -237 q 252 -292 252 -349 l 252 -349 q 252 -383 259 -417 q 266 -452 279 -481 l 279 -481 l 295 -500 q 309 -523 329 -538 q 348 -553 372 -560 q 396 -568 423 -568 l 423 -568 q 503 -568 547 -511 q 591 -455 591 -347 l 591 -347 q 591 -281 577 -225 q 563 -170 535 -124 q 507 -79 466 -45 l 466 -45 q 461 -40 454 -34 q 446 -29 441 -25 l 441 -25 q 411 -6 377 3 q 342 12 298 12 l 298 12 q 234 12 185 -13 q 136 -38 103 -84 q 69 -130 53 -191 q 36 -253 36 -327 l 36 -327 q 36 -403 57 -457 q 78 -511 119 -539 q 160 -568 218 -568 l 218 -568 q 262 -568 295 -550 q 328 -533 362 -495 l 362 -495 l 293 -448 q 277 -473 260 -482 q 242 -492 223 -492 l 223 -492 q 195 -492 175 -474 q 154 -456 143 -420 q 131 -384 131 -327 l 131 -327 q 131 -243 153 -183 q 174 -124 212 -93 q 250 -62 301 -62 l 301 -62 q 327 -62 346 -65 q 364 -69 380 -77 l 380 -77 q 386 -81 392 -83 q 398 -86 403 -90 l 403 -90 q 435 -116 456 -157 q 477 -198 487 -247 q 496 -297 496 -345 l 496 -345 q 496 -402 486 -434 q 475 -466 458 -479 q 441 -492 422 -492 l 422 -492 q 399 -492 382 -477 q 364 -462 356 -429 q 347 -396 347 -346 l 347 -346 q 347 -304 356 -256 q 364 -208 384 -165 q 403 -122 433 -95 l 433 -95 q 438 -91 444 -88 q 449 -85 454 -81 l 454 -81 q 469 -73 489 -68 q 508 -63 535 -63 l 535 -63 q 589 -63 624 -83 q 659 -104 677 -140 q 695 -177 695 -225 l 695 -225 q 695 -265 689 -299 q 682 -333 668 -369 q 653 -406 629 -452 l 629 -452 q 608 -496 592 -530 q 576 -564 567 -596 q 558 -628 558 -661 l 558 -661 q 558 -692 571 -722 q 583 -753 613 -773 q 642 -794 694 -794 l 694 -794 q 719 -794 741 -790 q 763 -786 775 -781 l 775 -781 l 759 -705 q 747 -709 736 -711 q 724 -713 709 -713 l 709 -713 q 678 -713 665 -695 q 651 -678 651 -655 l 651 -655 q 651 -633 656 -612 q 661 -591 675 -563 q 688 -535 710 -488 l 710 -488 q 735 -441 753 -397 q 771 -353 781 -311 q 790 -270 790 -229 l 790 -229 q 790 -191 781 -155 q 772 -120 754 -90 q 736 -60 707 -37 q 677 -14 636 -1 q 594 12 540 12 z"},"ൖ":{"ha":600,"x_min":33,"x_max":567,"o":"m 192 -166 l 192 -166 q 192 -139 200 -116 q 207 -93 226 -79 q 245 -65 278 -65 l 278 -65 q 318 -65 332 -86 q 345 -107 345 -136 l 345 -136 q 345 -170 335 -202 q 325 -234 312 -266 q 299 -299 290 -336 q 280 -374 280 -417 l 280 -417 q 280 -461 297 -495 q 313 -530 344 -549 q 375 -568 419 -568 l 419 -568 q 472 -568 505 -544 q 537 -520 552 -481 q 567 -443 567 -401 l 567 -401 q 567 -330 541 -274 q 515 -218 463 -186 q 410 -154 328 -154 l 328 -154 l 307 -154 q 265 -154 231 -161 q 197 -168 164 -185 l 164 -185 l 136 -195 q 104 -215 81 -244 q 58 -274 46 -312 q 33 -350 33 -395 l 33 -395 q 33 -440 45 -483 q 56 -526 82 -569 l 82 -569 l 159 -530 q 143 -497 135 -464 q 127 -432 127 -396 l 127 -396 q 127 -360 134 -330 q 141 -301 153 -279 l 153 -279 l 179 -263 q 201 -244 234 -235 q 267 -226 305 -226 l 305 -226 l 331 -226 q 381 -226 413 -247 q 445 -269 460 -308 q 475 -348 475 -400 l 475 -400 q 475 -439 462 -467 q 449 -495 419 -495 l 419 -495 q 402 -495 389 -484 q 376 -474 370 -455 q 363 -437 363 -413 l 363 -413 q 363 -373 374 -337 q 384 -302 398 -268 q 412 -235 423 -200 q 434 -165 434 -127 l 434 -127 q 434 -103 427 -78 q 419 -54 402 -33 q 385 -13 355 0 q 325 12 278 12 l 278 12 q 227 12 189 -7 q 151 -26 129 -66 q 107 -107 107 -171 l 107 -171 q 107 -207 117 -247 q 127 -288 146 -337 q 164 -387 188 -448 l 188 -448 q 210 -498 223 -534 q 236 -571 243 -599 q 249 -628 249 -652 l 249 -652 q 249 -681 234 -697 q 219 -714 190 -714 l 190 -714 q 178 -714 164 -712 q 149 -710 138 -706 l 138 -706 l 121 -782 q 137 -788 163 -791 q 188 -794 214 -794 l 214 -794 q 266 -794 294 -774 q 321 -754 331 -726 q 341 -699 341 -674 l 341 -674 q 341 -650 337 -624 q 332 -599 323 -570 q 314 -541 299 -504 q 284 -467 265 -417 l 265 -417 q 241 -357 226 -318 q 211 -279 204 -252 q 196 -226 194 -206 q 192 -187 192 -166 z"},"ൗ":{"ha":602,"x_min":31,"x_max":565,"o":"m 402 -568 l 402 -568 q 454 -568 491 -538 q 527 -509 546 -451 q 565 -394 565 -307 l 565 -307 q 565 -196 538 -125 q 510 -54 457 -21 q 403 12 325 12 l 325 12 q 284 12 240 4 q 196 -5 155 -28 l 155 -28 l 196 -101 q 222 -88 253 -78 q 284 -69 318 -69 l 318 -69 q 374 -69 408 -94 q 441 -120 456 -172 q 470 -225 470 -306 l 470 -306 q 470 -399 449 -445 q 428 -491 393 -491 l 393 -491 q 381 -491 373 -487 q 365 -483 359 -474 l 359 -474 q 348 -461 344 -437 q 339 -414 339 -362 l 339 -362 l 339 -262 l 247 -262 l 247 -355 q 247 -403 244 -427 q 240 -452 231 -467 l 231 -467 q 225 -479 214 -485 q 202 -491 189 -491 l 189 -491 q 157 -491 141 -462 q 125 -434 125 -393 l 125 -393 q 125 -359 129 -330 q 133 -301 139 -277 l 139 -277 l 51 -257 q 43 -288 37 -323 q 31 -359 31 -396 l 31 -396 q 31 -442 47 -481 q 63 -520 96 -544 q 128 -568 179 -568 l 179 -568 q 221 -568 250 -550 q 278 -533 297 -499 l 297 -499 l 284 -500 q 305 -538 334 -553 q 362 -568 402 -568 z"},"൘":{"ha":951,"x_min":35,"x_max":909,"o":"m 471 12 l 471 12 q 429 12 397 -7 q 364 -27 338 -71 l 338 -71 l 353 -70 q 329 -30 299 -9 q 269 12 220 12 l 220 12 q 161 12 119 -22 q 77 -56 56 -116 q 35 -176 35 -254 l 35 -254 q 35 -326 49 -381 q 62 -437 86 -482 q 109 -527 138 -565 l 138 -565 l 212 -511 q 189 -482 171 -445 q 152 -408 141 -362 q 130 -316 130 -259 l 130 -259 q 130 -197 143 -153 q 156 -110 179 -88 q 201 -66 227 -66 l 227 -66 q 244 -66 255 -72 q 266 -78 274 -88 l 274 -88 q 290 -108 295 -137 q 299 -167 299 -217 l 299 -217 l 299 -556 l 392 -556 l 392 -222 q 392 -175 397 -146 q 402 -117 414 -96 l 414 -96 q 424 -81 438 -73 q 452 -66 472 -66 l 472 -66 q 494 -66 508 -73 q 522 -81 531 -96 l 531 -96 q 543 -114 547 -142 q 550 -171 550 -219 l 550 -219 l 550 -556 l 643 -556 l 643 -249 l 602 -68 q 579 -29 548 -8 q 517 12 471 12 z m 725 12 l 725 12 q 680 12 647 -8 q 614 -28 589 -72 l 589 -72 l 557 -224 l 557 -546 l 643 -546 l 643 -227 q 643 -174 649 -140 q 655 -106 672 -85 l 672 -85 q 680 -76 692 -71 q 703 -66 718 -66 l 718 -66 q 749 -66 770 -93 q 791 -121 803 -176 q 814 -232 814 -315 l 814 -315 q 814 -412 800 -486 q 786 -560 759 -613 q 732 -666 693 -699 q 654 -733 604 -749 q 553 -765 493 -765 l 493 -765 q 448 -765 401 -759 q 353 -754 309 -742 l 309 -742 l 296 -820 q 332 -830 363 -835 q 393 -840 425 -842 q 457 -845 496 -845 l 496 -845 q 579 -845 646 -823 q 712 -802 761 -759 q 810 -717 843 -653 q 876 -590 893 -506 q 909 -422 909 -317 l 909 -317 q 909 -204 888 -131 q 867 -58 826 -23 q 785 12 725 12 z"},"൙":{"ha":886,"x_min":35,"x_max":867,"o":"m 288 -568 l 288 -568 q 356 -568 406 -544 q 455 -520 488 -475 q 521 -431 538 -369 q 554 -308 554 -233 l 554 -233 q 554 -139 533 -85 q 512 -32 475 -10 q 438 12 388 12 l 388 12 q 334 12 301 -10 q 268 -33 254 -68 q 239 -104 239 -144 l 239 -144 q 239 -198 257 -233 q 275 -268 305 -290 l 305 -290 q 326 -306 352 -314 q 378 -323 413 -327 q 448 -331 496 -331 l 496 -331 l 610 -331 l 610 -255 l 498 -255 q 443 -255 414 -248 q 385 -242 364 -227 l 364 -227 q 348 -214 339 -194 q 330 -174 330 -144 l 330 -144 q 330 -109 345 -87 q 360 -65 390 -65 l 390 -65 q 413 -65 429 -81 q 444 -98 453 -135 q 461 -172 461 -234 l 461 -234 q 461 -253 461 -269 q 460 -285 458 -297 l 458 -297 l 455 -319 q 450 -366 431 -405 q 411 -444 377 -467 q 343 -490 294 -490 l 294 -490 q 241 -490 205 -465 q 168 -440 150 -393 q 131 -347 131 -283 l 131 -283 q 131 -229 142 -186 q 152 -143 172 -109 q 191 -76 216 -48 l 216 -48 l 149 9 q 118 -22 92 -65 q 66 -109 51 -164 q 35 -220 35 -290 l 35 -290 q 35 -346 51 -396 q 67 -447 98 -485 q 129 -524 177 -546 q 224 -568 288 -568 z m 732 -556 l 732 -556 q 780 -556 810 -536 q 839 -517 853 -484 q 867 -452 867 -415 l 867 -415 q 867 -377 854 -345 q 840 -313 814 -293 l 814 -293 q 797 -279 776 -271 q 755 -263 726 -259 q 696 -255 655 -255 l 655 -255 l 522 -255 l 527 -331 l 673 -331 q 711 -331 729 -337 q 747 -344 758 -355 l 758 -355 q 770 -365 775 -380 q 779 -395 779 -417 l 779 -417 q 779 -447 767 -464 q 755 -482 731 -482 l 731 -482 q 706 -482 693 -461 q 679 -441 679 -408 l 679 -408 q 679 -369 690 -342 q 701 -315 715 -293 l 715 -293 l 633 -287 q 617 -311 606 -344 q 594 -378 594 -416 l 594 -416 q 594 -461 612 -492 q 630 -524 662 -540 q 693 -556 732 -556 z"},"൚":{"ha":844,"x_min":35,"x_max":794,"o":"m 545 -568 l 545 -568 q 611 -568 657 -550 q 703 -532 732 -499 l 732 -499 q 754 -475 768 -444 q 782 -413 788 -371 q 794 -330 794 -274 l 794 -274 l 794 0 l 401 0 l 401 -72 q 441 -119 473 -175 q 505 -231 524 -289 q 542 -348 542 -404 l 542 -404 q 542 -431 538 -450 q 534 -470 524 -480 q 513 -491 494 -491 l 494 -491 q 472 -491 453 -473 q 433 -455 421 -423 l 421 -423 q 411 -394 407 -358 q 403 -322 403 -265 l 403 -265 l 403 -230 l 310 -230 l 310 -334 q 310 -395 304 -424 q 297 -453 282 -471 l 282 -471 q 273 -480 262 -485 q 250 -491 234 -491 l 234 -491 q 207 -491 184 -469 q 160 -447 146 -404 q 131 -361 131 -298 l 131 -298 q 131 -241 142 -195 q 153 -149 172 -112 q 190 -75 213 -45 l 213 -45 l 139 10 q 110 -29 87 -74 q 63 -119 49 -175 q 35 -231 35 -302 l 35 -302 q 35 -381 58 -441 q 81 -501 125 -534 q 168 -568 231 -568 l 231 -568 q 264 -568 289 -558 q 314 -549 336 -527 q 357 -505 377 -467 l 377 -467 l 345 -459 q 366 -498 395 -522 q 424 -546 462 -557 q 499 -568 545 -568 z m 636 -388 l 636 -388 q 636 -328 619 -273 q 601 -218 570 -165 q 539 -113 496 -58 l 496 -58 l 480 -71 q 500 -73 528 -74 q 556 -76 569 -76 l 569 -76 l 701 -76 l 701 -282 q 701 -346 690 -388 q 679 -430 657 -456 q 634 -482 597 -494 l 597 -494 l 597 -499 q 614 -479 625 -450 q 636 -422 636 -388 z"},"൛":{"ha":759,"x_min":58,"x_max":724,"o":"m 489 12 l 489 12 q 428 12 385 -9 q 342 -31 314 -68 q 285 -106 272 -156 q 259 -206 259 -263 l 259 -263 q 259 -318 270 -363 q 280 -409 298 -445 q 316 -482 340 -513 l 340 -513 l 333 -480 l 150 -480 l 150 0 l 58 0 l 58 -556 l 388 -556 l 432 -499 q 413 -477 396 -445 q 378 -413 367 -370 q 355 -328 355 -272 l 355 -272 q 355 -207 372 -160 q 389 -114 419 -90 q 449 -66 489 -66 l 489 -66 q 531 -66 562 -90 q 592 -115 610 -161 q 627 -207 627 -271 l 627 -271 q 627 -325 617 -368 q 606 -411 587 -446 q 568 -481 542 -509 l 542 -509 l 610 -566 q 642 -535 668 -492 q 693 -449 709 -393 q 724 -337 724 -267 l 724 -267 q 724 -210 710 -159 q 696 -109 667 -70 q 638 -32 594 -10 q 550 12 489 12 z"},"൜":{"ha":1182,"x_min":35,"x_max":1146,"o":"m 711 -568 l 711 -568 q 750 -568 779 -557 q 808 -546 828 -526 l 828 -526 q 846 -509 857 -484 q 867 -460 873 -428 q 878 -396 878 -352 l 878 -352 l 878 -233 q 878 -171 882 -140 q 886 -110 899 -91 l 899 -91 q 907 -79 921 -72 q 934 -66 955 -66 l 955 -66 q 984 -66 1005 -87 q 1026 -109 1039 -151 q 1051 -194 1051 -255 l 1051 -255 q 1051 -315 1040 -362 q 1028 -409 1010 -446 q 991 -484 968 -514 l 968 -514 l 1042 -569 q 1071 -531 1095 -485 q 1118 -440 1132 -382 q 1146 -325 1146 -251 l 1146 -251 q 1146 -167 1123 -108 q 1099 -50 1056 -19 q 1013 12 955 12 l 955 12 q 913 12 883 0 q 852 -12 830 -34 l 830 -34 q 812 -53 802 -78 q 792 -103 788 -134 q 784 -165 784 -200 l 784 -200 l 784 -351 q 784 -390 781 -418 q 777 -447 765 -465 l 765 -465 q 757 -477 743 -483 q 729 -490 711 -490 l 711 -490 q 693 -490 680 -484 q 666 -478 659 -466 l 659 -466 q 645 -448 642 -420 q 638 -393 638 -353 l 638 -353 l 638 -206 q 638 -164 633 -131 q 627 -98 617 -73 q 606 -49 588 -30 l 588 -30 q 568 -11 541 1 q 513 12 471 12 l 471 12 q 430 12 402 1 q 374 -11 354 -30 l 354 -30 q 337 -49 326 -74 q 315 -99 310 -131 q 304 -164 304 -204 l 304 -204 l 304 -324 q 304 -386 300 -416 q 296 -446 283 -465 l 283 -465 q 274 -478 262 -484 q 249 -490 227 -490 l 227 -490 q 199 -490 177 -468 q 155 -447 143 -405 q 131 -363 131 -301 l 131 -301 q 131 -242 143 -194 q 154 -147 173 -110 q 192 -73 214 -42 l 214 -42 l 140 13 q 111 -25 88 -70 q 64 -116 50 -174 q 35 -232 35 -306 l 35 -306 q 35 -387 58 -445 q 81 -504 125 -536 q 169 -568 232 -568 l 232 -568 q 271 -568 301 -557 q 330 -546 350 -524 l 350 -524 q 370 -504 380 -477 q 390 -450 394 -417 q 398 -385 398 -345 l 398 -345 l 398 -206 q 398 -166 402 -138 q 405 -110 417 -91 l 417 -91 q 425 -79 439 -72 q 453 -66 471 -66 l 471 -66 q 489 -66 503 -72 q 516 -79 523 -90 l 523 -90 q 537 -109 541 -136 q 544 -164 544 -205 l 544 -205 l 544 -347 q 544 -392 550 -425 q 555 -458 566 -483 q 577 -509 594 -526 l 594 -526 q 613 -545 641 -556 q 669 -568 711 -568 z"},"൝":{"ha":1571,"x_min":9,"x_max":1536,"o":"m 620 -568 l 620 -568 q 660 -568 689 -557 q 718 -546 737 -526 l 737 -526 q 755 -509 766 -484 q 777 -460 782 -428 q 787 -396 787 -352 l 787 -352 l 787 -206 q 787 -166 791 -138 q 794 -110 807 -91 l 807 -91 q 814 -79 828 -72 q 842 -66 860 -66 l 860 -66 q 878 -66 892 -72 q 906 -79 913 -90 l 913 -90 q 926 -109 930 -136 q 934 -164 934 -205 l 934 -205 l 934 -347 q 934 -392 939 -425 q 944 -458 955 -483 q 966 -509 983 -526 l 983 -526 q 1003 -545 1031 -556 q 1058 -568 1100 -568 l 1100 -568 q 1140 -568 1169 -557 q 1198 -546 1217 -526 l 1217 -526 q 1235 -509 1246 -484 q 1257 -460 1262 -428 q 1267 -396 1267 -352 l 1267 -352 l 1267 -233 q 1267 -171 1271 -140 q 1275 -110 1288 -91 l 1288 -91 q 1297 -79 1311 -72 q 1324 -66 1344 -66 l 1344 -66 q 1373 -66 1395 -87 q 1416 -109 1428 -151 q 1440 -194 1440 -255 l 1440 -255 q 1440 -315 1429 -362 q 1418 -409 1399 -446 q 1380 -484 1357 -514 l 1357 -514 l 1431 -569 q 1460 -531 1484 -485 q 1508 -440 1522 -382 q 1536 -325 1536 -251 l 1536 -251 q 1536 -167 1513 -108 q 1489 -50 1446 -19 q 1403 12 1344 12 l 1344 12 q 1302 12 1272 0 q 1241 -12 1219 -34 l 1219 -34 q 1201 -53 1191 -78 q 1181 -103 1178 -134 q 1174 -165 1174 -200 l 1174 -200 l 1174 -351 q 1174 -390 1171 -418 q 1167 -447 1154 -465 l 1154 -465 q 1147 -477 1133 -483 q 1119 -490 1100 -490 l 1100 -490 q 1083 -490 1069 -484 q 1055 -478 1048 -466 l 1048 -466 q 1035 -448 1031 -420 q 1027 -393 1027 -353 l 1027 -353 l 1027 -206 q 1027 -164 1022 -131 q 1017 -98 1006 -73 q 995 -49 977 -30 l 977 -30 q 958 -11 930 1 q 902 12 860 12 l 860 12 q 819 12 791 1 q 763 -11 744 -30 l 744 -30 q 726 -49 715 -74 q 704 -99 699 -131 q 694 -164 694 -204 l 694 -204 l 694 -352 q 694 -391 690 -419 q 686 -447 674 -465 l 674 -465 q 666 -477 653 -483 q 639 -490 620 -490 l 620 -490 q 603 -490 589 -484 q 575 -478 568 -466 l 568 -466 q 555 -448 551 -420 q 547 -393 547 -353 l 547 -353 l 547 -201 q 547 -132 536 -95 q 524 -58 499 -31 l 499 -31 q 478 -10 451 1 q 423 12 387 12 l 387 12 q 334 12 303 -10 q 271 -32 250 -68 l 250 -68 l 262 -71 q 244 -43 224 -24 q 204 -6 180 3 q 155 12 123 12 l 123 12 q 87 12 60 5 q 33 -3 9 -15 l 9 -15 l 41 -88 q 58 -79 80 -72 q 101 -66 124 -66 l 124 -66 q 141 -66 155 -70 q 169 -75 179 -86 l 179 -86 q 195 -102 202 -134 q 208 -166 208 -224 l 208 -224 l 208 -555 l 301 -556 l 301 -222 q 301 -169 306 -141 q 310 -113 322 -94 l 322 -94 q 330 -81 345 -73 q 359 -66 377 -66 l 377 -66 q 396 -66 410 -72 q 424 -78 432 -90 l 432 -90 q 446 -108 450 -134 q 454 -161 454 -203 l 454 -203 l 454 -347 q 454 -392 459 -425 q 464 -458 475 -483 q 486 -509 503 -526 l 503 -526 q 523 -545 551 -556 q 578 -568 620 -568 z"},"൞":{"ha":1093,"x_min":35,"x_max":1066,"o":"m 288 -568 l 288 -568 q 356 -568 406 -544 q 455 -520 488 -475 q 521 -431 538 -369 q 554 -308 554 -233 l 554 -233 q 554 -139 533 -85 q 512 -32 475 -10 q 438 12 388 12 l 388 12 q 334 12 301 -10 q 268 -33 254 -68 q 239 -104 239 -144 l 239 -144 q 239 -198 257 -233 q 275 -268 305 -290 l 305 -290 q 326 -306 352 -314 q 378 -323 413 -327 q 448 -331 496 -331 l 496 -331 l 511 -331 l 511 -255 l 498 -255 q 443 -255 414 -248 q 385 -242 364 -227 l 364 -227 q 348 -214 339 -194 q 330 -174 330 -144 l 330 -144 q 330 -109 345 -87 q 360 -65 390 -65 l 390 -65 q 413 -65 429 -81 q 444 -98 453 -135 q 461 -172 461 -234 l 461 -234 q 461 -253 461 -269 q 460 -285 458 -297 l 458 -297 l 455 -319 q 450 -366 431 -405 q 411 -444 377 -467 q 343 -490 294 -490 l 294 -490 q 241 -490 205 -465 q 168 -440 150 -393 q 131 -347 131 -283 l 131 -283 q 131 -229 142 -186 q 152 -143 172 -109 q 191 -76 216 -48 l 216 -48 l 149 9 q 118 -22 92 -65 q 66 -109 51 -164 q 35 -220 35 -290 l 35 -290 q 35 -346 51 -396 q 67 -447 98 -485 q 129 -524 177 -546 q 224 -568 288 -568 z m 904 -206 l 904 -206 q 849 -206 814 -230 q 778 -255 761 -294 q 744 -334 744 -378 l 744 -378 q 744 -419 757 -450 q 769 -481 780 -495 l 780 -495 l 793 -480 l 622 -480 l 660 -496 q 673 -479 682 -454 q 691 -429 691 -400 l 691 -400 q 691 -346 669 -314 q 647 -282 610 -268 q 573 -255 527 -255 l 527 -255 l 512 -255 l 512 -331 l 529 -331 q 554 -331 571 -338 q 588 -345 597 -361 q 605 -377 605 -401 l 605 -401 q 605 -427 597 -447 q 588 -468 579 -483 l 579 -483 l 604 -556 l 833 -556 l 868 -502 q 855 -481 845 -453 q 835 -426 835 -387 l 835 -387 q 835 -339 852 -310 q 869 -281 903 -281 l 903 -281 q 926 -281 942 -293 q 958 -306 966 -329 q 974 -352 974 -382 l 974 -382 q 974 -427 961 -458 q 948 -489 928 -519 l 928 -519 l 999 -565 q 1028 -528 1047 -483 q 1066 -438 1066 -381 l 1066 -381 q 1066 -327 1046 -288 q 1026 -249 990 -227 q 954 -206 904 -206 z"},"ൟ":{"ha":1095,"x_min":23,"x_max":1072,"o":"m 23 -269 l 23 -269 q 23 -330 55 -365 q 86 -400 136 -400 l 136 -400 q 187 -400 219 -365 q 251 -331 251 -269 l 251 -269 q 251 -207 220 -172 q 188 -137 136 -137 l 136 -137 q 85 -137 54 -171 q 23 -206 23 -269 z m 94 -270 l 94 -270 q 94 -239 105 -221 q 115 -204 136 -204 l 136 -204 q 158 -204 169 -221 q 180 -239 180 -269 l 180 -269 q 180 -300 169 -317 q 157 -334 136 -334 l 136 -334 q 116 -334 105 -317 q 94 -300 94 -270 z m 844 -269 l 844 -269 q 844 -330 876 -365 q 907 -400 957 -400 l 957 -400 q 1008 -400 1040 -365 q 1072 -331 1072 -269 l 1072 -269 q 1072 -207 1041 -172 q 1009 -137 957 -137 l 957 -137 q 906 -137 875 -171 q 844 -206 844 -269 z m 915 -270 l 915 -270 q 915 -239 926 -221 q 936 -204 957 -204 l 957 -204 q 979 -204 990 -221 q 1000 -239 1000 -269 l 1000 -269 q 1000 -300 989 -317 q 978 -334 957 -334 l 957 -334 q 937 -334 926 -317 q 915 -300 915 -270 z m 540 -568 l 540 -568 q 607 -568 657 -544 q 707 -521 740 -477 q 773 -433 790 -373 q 806 -313 806 -240 l 806 -240 q 806 -146 785 -90 q 764 -35 727 -11 q 689 12 639 12 l 639 12 q 584 12 551 -16 q 517 -44 501 -92 q 484 -140 484 -201 l 484 -201 q 484 -299 522 -351 q 559 -404 627 -404 l 627 -404 q 664 -404 690 -386 q 715 -369 735 -336 q 755 -304 772 -258 l 772 -258 l 739 -244 q 733 -261 721 -281 q 709 -301 691 -315 q 673 -330 649 -330 l 649 -330 q 611 -330 594 -295 q 576 -261 576 -198 l 576 -198 q 576 -155 583 -124 q 590 -94 605 -78 q 619 -63 642 -63 l 642 -63 q 665 -63 682 -80 q 698 -98 707 -138 q 716 -178 716 -243 l 716 -243 q 716 -250 715 -270 q 713 -290 711 -309 l 711 -309 q 710 -314 710 -322 q 710 -330 708 -334 l 708 -334 q 702 -375 682 -410 q 662 -446 628 -468 q 594 -490 547 -490 l 547 -490 q 493 -490 457 -465 q 420 -440 402 -393 q 383 -347 383 -283 l 383 -283 q 383 -229 394 -186 q 404 -143 424 -109 q 443 -76 468 -48 l 468 -48 l 401 9 q 370 -22 344 -65 q 318 -109 303 -164 q 287 -220 287 -290 l 287 -290 q 287 -347 303 -397 q 318 -448 350 -486 q 381 -524 429 -546 q 476 -568 540 -568 z"},"ൠ":{"ha":714,"x_min":33,"x_max":681,"o":"m 530 -568 l 530 -568 q 600 -568 641 -513 q 681 -459 681 -360 l 681 -360 q 681 -296 665 -248 q 648 -201 615 -167 l 615 -167 q 587 -136 550 -117 q 512 -98 464 -92 l 464 -92 l 388 -94 l 324 -93 l 256 -91 q 203 -98 166 -116 q 129 -135 100 -166 l 100 -166 q 67 -201 50 -248 q 33 -295 33 -358 l 33 -358 q 33 -420 52 -467 q 71 -515 108 -541 q 144 -568 194 -568 l 194 -568 q 241 -568 271 -547 q 301 -526 316 -490 q 330 -454 330 -409 l 330 -409 q 330 -355 315 -319 q 300 -283 271 -264 q 242 -246 198 -246 l 198 -246 q 171 -246 147 -256 q 122 -266 101 -282 q 79 -298 61 -317 l 61 -317 l 88 -381 q 103 -361 116 -347 q 129 -333 144 -326 q 158 -319 176 -319 l 176 -319 q 210 -319 226 -341 q 241 -364 241 -411 l 241 -411 q 241 -448 228 -471 q 215 -494 190 -494 l 190 -494 q 167 -494 152 -479 q 136 -464 128 -435 q 120 -407 120 -366 l 120 -366 q 120 -349 122 -331 q 124 -314 127 -299 l 127 -299 l 125 -277 q 134 -246 155 -223 q 175 -201 204 -186 q 232 -172 265 -164 q 298 -157 332 -157 l 332 -157 l 383 -157 q 416 -157 449 -164 q 481 -171 510 -185 q 539 -200 560 -223 q 580 -247 590 -279 l 590 -279 l 587 -300 q 590 -313 592 -331 q 594 -350 594 -367 l 594 -367 q 594 -409 587 -437 q 580 -466 567 -480 q 553 -494 531 -494 l 531 -494 q 503 -494 489 -470 q 474 -447 474 -404 l 474 -404 q 474 -362 488 -340 q 502 -319 536 -319 l 536 -319 q 555 -319 570 -326 q 584 -333 598 -347 q 611 -361 626 -380 l 626 -380 l 653 -315 q 636 -298 615 -282 q 593 -266 569 -256 q 544 -246 516 -246 l 516 -246 q 473 -246 444 -264 q 414 -283 399 -318 q 384 -354 384 -405 l 384 -405 q 384 -452 400 -489 q 416 -526 449 -547 q 481 -568 530 -568 z m 357 224 l 357 224 q 266 224 203 204 q 139 183 106 142 q 72 100 72 37 l 72 37 q 72 -7 90 -39 q 108 -71 141 -91 q 173 -112 217 -122 q 260 -133 309 -133 l 309 -133 l 404 -133 q 455 -133 498 -122 q 541 -112 574 -91 q 606 -71 624 -39 q 642 -7 642 37 l 642 37 q 642 98 610 140 q 578 181 514 203 q 450 224 357 224 z m 358 147 l 358 147 q 428 147 470 134 q 512 120 531 95 q 550 69 550 33 l 550 33 q 550 0 536 -21 q 522 -43 497 -56 q 471 -70 439 -76 q 406 -82 368 -82 l 368 -82 l 347 -82 q 295 -82 254 -70 q 213 -59 189 -34 q 165 -9 165 33 l 165 33 q 165 71 184 96 q 203 121 246 134 q 288 147 358 147 z m 419 -43 l 419 -43 q 444 -43 460 -33 q 475 -24 483 -8 q 491 8 494 28 q 497 47 497 66 l 497 66 l 497 98 l 435 98 l 435 78 q 435 53 431 40 q 427 26 411 26 l 411 26 q 397 26 392 40 q 387 54 387 76 l 387 76 l 387 98 l 326 98 l 326 77 q 326 54 322 40 q 317 26 303 26 l 303 26 q 287 26 283 41 q 279 55 279 78 l 279 78 l 279 98 l 217 98 l 217 66 q 217 48 220 29 q 223 9 231 -7 q 239 -23 255 -33 q 270 -43 296 -43 l 296 -43 q 319 -43 333 -34 q 346 -25 356 -10 l 356 -10 q 369 -27 384 -35 q 399 -43 419 -43 z"},"ൡ":{"ha":1037,"x_min":37,"x_max":1015,"o":"m 288 -568 l 288 -568 q 351 -568 391 -544 q 430 -521 462 -475 l 462 -475 l 477 -408 l 495 -255 l 495 0 l 402 0 l 402 -316 q 402 -375 395 -407 q 388 -439 370 -459 l 370 -459 q 358 -473 339 -482 q 319 -491 289 -491 l 289 -491 q 240 -491 203 -461 q 166 -431 145 -376 q 124 -322 124 -248 l 124 -248 l 124 -225 q 124 -164 133 -128 q 142 -93 158 -78 q 173 -64 193 -64 l 193 -64 q 209 -64 221 -74 q 232 -84 238 -104 q 244 -125 244 -160 l 244 -160 q 244 -213 229 -235 q 214 -257 184 -257 l 184 -257 q 158 -257 137 -242 q 115 -228 91 -197 l 91 -197 l 72 -261 q 94 -287 130 -309 q 165 -331 206 -331 l 206 -331 q 248 -331 277 -312 q 305 -294 320 -256 q 335 -219 335 -164 l 335 -164 q 335 -104 319 -65 q 302 -27 271 -7 q 240 12 195 12 l 195 12 q 152 12 117 -12 q 81 -37 59 -92 q 37 -148 37 -242 l 37 -242 q 37 -353 70 -425 q 103 -498 160 -533 q 216 -568 288 -568 z m 618 -568 l 618 -568 q 697 -568 748 -536 q 799 -504 827 -451 q 854 -398 862 -335 l 862 -335 q 867 -310 869 -283 q 870 -256 870 -229 l 870 -229 q 870 -141 851 -88 q 832 -35 796 -11 q 760 12 707 12 l 707 12 q 654 12 621 -12 q 588 -36 572 -77 q 555 -119 555 -172 l 555 -172 q 555 -277 615 -331 q 674 -386 768 -386 l 768 -386 q 781 -386 793 -385 q 804 -385 812 -383 l 812 -383 l 829 -382 q 887 -370 929 -331 q 970 -292 993 -231 q 1015 -170 1015 -91 l 1015 -91 q 1015 -27 1001 27 q 987 80 956 119 q 925 158 876 180 q 827 201 759 201 l 759 201 q 728 201 702 197 q 676 192 650 184 l 650 184 l 676 110 q 698 117 718 120 q 738 122 760 122 l 760 122 q 809 122 842 104 q 874 86 893 56 q 911 25 919 -14 q 926 -54 926 -97 l 926 -97 q 926 -147 917 -185 q 908 -223 891 -251 q 874 -279 848 -296 l 848 -296 l 820 -301 q 808 -307 795 -309 q 781 -311 772 -311 l 772 -311 q 733 -311 706 -296 q 678 -281 663 -251 q 648 -221 648 -174 l 648 -174 q 648 -141 654 -116 q 660 -92 674 -78 q 687 -64 709 -64 l 709 -64 q 745 -64 763 -100 q 780 -137 780 -234 l 780 -234 q 780 -263 777 -293 q 774 -323 768 -352 l 768 -352 l 765 -372 q 755 -406 736 -433 q 716 -460 688 -475 q 660 -490 620 -490 l 620 -490 q 596 -490 575 -484 q 554 -478 537 -462 l 537 -462 q 521 -449 512 -429 q 503 -409 499 -379 q 495 -349 495 -303 l 495 -303 l 495 -209 l 433 -461 q 452 -492 477 -516 q 501 -541 536 -554 q 570 -568 618 -568 z"},"ൢ":{"ha":0,"x_min":-654,"x_max":-30,"o":"m -473 -20 l -473 -20 q -430 -20 -394 -4 q -359 11 -333 51 l -333 51 l -304 161 l -304 332 l -382 332 l -382 172 q -382 137 -387 110 q -392 83 -406 67 l -406 67 q -417 56 -432 50 q -448 44 -471 44 l -471 44 q -493 44 -514 51 q -535 58 -552 77 q -569 96 -579 131 l -579 131 q -581 142 -582 154 q -583 165 -583 180 l -583 180 q -583 237 -569 257 q -555 276 -538 276 l -538 276 q -520 276 -509 261 q -498 246 -498 214 l -498 214 q -498 182 -509 168 q -520 153 -540 153 l -540 153 q -560 153 -575 163 q -590 173 -608 194 l -608 194 l -625 144 q -598 119 -574 106 q -550 92 -524 92 l -524 92 q -476 92 -452 124 q -428 155 -428 212 l -428 212 q -428 272 -455 305 q -482 337 -536 337 l -536 337 q -589 337 -621 296 q -654 254 -654 177 l -654 177 q -654 113 -629 70 q -604 26 -563 3 q -523 -20 -473 -20 z m -207 -19 l -207 -19 q -153 -19 -113 5 q -73 28 -51 72 q -30 116 -30 176 l -30 176 q -30 260 -62 299 q -94 337 -145 337 l -145 337 q -183 337 -207 320 q -232 302 -243 274 q -255 245 -255 210 l -255 210 q -255 166 -243 138 q -231 109 -208 95 q -185 81 -154 81 l -154 81 q -129 81 -111 91 q -93 101 -78 124 q -64 146 -49 182 l -49 182 l -78 191 q -94 161 -106 151 q -119 140 -136 140 l -136 140 q -162 140 -174 160 q -186 179 -186 210 l -186 210 q -186 242 -175 259 q -164 275 -143 275 l -143 275 q -122 275 -111 250 q -101 225 -101 182 l -101 182 q -101 169 -101 157 q -101 145 -102 136 l -102 136 l -107 115 q -114 95 -128 79 q -143 62 -162 53 q -182 44 -207 44 l -207 44 q -228 44 -244 50 q -261 55 -272 65 l -272 65 q -289 82 -297 106 q -305 130 -304 179 l -304 179 l -368 104 q -361 61 -336 34 q -312 6 -277 -6 q -242 -19 -207 -19 z"},"ൣ":{"ha":0,"x_min":-654,"x_max":66,"o":"m -473 -20 l -473 -20 q -430 -20 -394 -4 q -359 11 -333 51 l -333 51 l -304 161 l -304 332 l -382 332 l -382 172 q -382 137 -387 110 q -392 83 -406 67 l -406 67 q -417 56 -432 50 q -448 44 -471 44 l -471 44 q -493 44 -514 51 q -535 58 -552 77 q -569 96 -579 131 l -579 131 q -581 142 -582 154 q -583 165 -583 180 l -583 180 q -583 237 -569 257 q -555 276 -538 276 l -538 276 q -520 276 -509 261 q -498 246 -498 214 l -498 214 q -498 182 -509 168 q -520 153 -540 153 l -540 153 q -560 153 -575 163 q -590 173 -608 194 l -608 194 l -625 144 q -598 119 -574 106 q -550 92 -524 92 l -524 92 q -476 92 -452 124 q -428 155 -428 212 l -428 212 q -428 272 -455 305 q -482 337 -536 337 l -536 337 q -589 337 -621 296 q -654 254 -654 177 l -654 177 q -654 113 -629 70 q -604 26 -563 3 q -523 -20 -473 -20 z m -207 -19 l -207 -19 q -158 -19 -119 2 q -80 23 -57 66 q -34 108 -34 173 l -34 173 q -34 230 -47 266 q -60 302 -84 320 q -109 337 -144 337 l -144 337 q -184 337 -208 321 q -233 304 -244 277 q -255 249 -255 218 l -255 218 q -255 157 -219 117 q -183 77 -107 77 l -107 77 q -98 77 -87 78 q -76 79 -65 81 l -65 81 q -28 90 2 112 q 32 133 49 168 q 66 202 66 251 l 66 251 q 66 288 60 315 q 54 341 44 362 l 44 362 l -21 336 q -14 318 -9 298 q -5 278 -5 254 l -5 254 q -5 210 -18 186 q -31 162 -59 146 l -59 146 l -79 140 q -86 139 -95 138 q -104 136 -110 136 l -110 136 q -150 136 -168 160 q -186 183 -186 218 l -186 218 q -186 247 -175 261 q -165 275 -145 275 l -145 275 q -123 275 -113 250 q -103 224 -103 173 l -103 173 q -103 159 -104 146 q -105 132 -109 119 l -109 119 l -112 104 q -119 85 -133 72 q -148 58 -166 51 q -185 44 -207 44 l -207 44 q -229 44 -245 50 q -261 55 -272 65 l -272 65 q -289 82 -297 106 q -305 130 -304 179 l -304 179 l -367 104 q -362 71 -346 48 q -330 24 -307 10 q -284 -5 -258 -12 q -232 -19 -207 -19 z"},"൦":{"ha":457,"x_min":38,"x_max":419,"o":"m 229 -41 l 229 -41 q 170 -41 127 -68 q 84 -95 61 -149 q 38 -203 38 -283 l 38 -283 q 38 -362 62 -415 q 86 -469 129 -496 q 171 -523 228 -523 l 228 -523 q 288 -523 331 -495 q 373 -468 396 -415 q 419 -362 419 -283 l 419 -283 q 419 -204 395 -150 q 371 -96 329 -68 q 286 -41 229 -41 z m 229 -118 l 229 -118 q 256 -118 278 -134 q 299 -151 312 -187 q 325 -224 325 -283 l 325 -283 q 325 -370 297 -408 q 269 -446 228 -446 l 228 -446 q 188 -446 160 -408 q 132 -371 132 -280 l 132 -280 q 132 -194 160 -156 q 188 -118 229 -118 z"},"൧":{"ha":712,"x_min":11,"x_max":660,"o":"m 306 123 l 306 201 l 223 201 q 167 201 130 194 q 93 186 67 170 l 67 170 q 41 153 26 127 q 11 100 11 64 l 11 64 q 11 29 25 1 q 39 -27 67 -46 l 67 -46 q 82 -56 101 -62 q 119 -69 147 -72 q 174 -76 213 -76 l 213 -76 l 345 -76 l 364 0 l 221 0 q 182 0 165 2 q 147 4 135 11 l 135 11 q 119 18 112 31 q 105 43 105 60 l 105 60 q 105 89 128 106 l 128 106 q 141 115 164 119 q 187 123 225 123 l 225 123 l 306 123 z m 465 -568 l 465 -568 q 514 -568 547 -555 q 580 -543 603 -520 l 603 -520 q 637 -487 649 -438 q 660 -390 660 -323 l 660 -323 l 660 0 l 268 0 l 268 -321 q 268 -368 273 -404 q 278 -440 290 -468 q 302 -497 324 -520 l 324 -520 q 347 -542 381 -555 q 415 -568 465 -568 z m 465 -491 l 465 -491 q 438 -491 420 -483 q 402 -475 391 -461 l 391 -461 q 375 -440 369 -406 q 362 -373 362 -315 l 362 -315 l 362 -76 l 566 -76 l 566 -313 q 566 -372 560 -406 q 553 -440 537 -461 l 537 -461 q 526 -475 508 -483 q 489 -491 465 -491 z"},"൨":{"ha":670,"x_min":35,"x_max":653,"o":"m 270 -568 l 270 -568 q 331 -568 374 -547 q 417 -526 446 -488 q 474 -450 487 -400 q 500 -351 500 -294 l 500 -294 q 500 -238 490 -193 q 479 -148 461 -111 q 442 -75 419 -43 l 419 -43 l 426 -76 l 653 -76 l 653 0 l 371 0 l 327 -57 q 346 -79 364 -111 q 382 -143 393 -186 q 404 -229 404 -284 l 404 -284 q 404 -350 387 -396 q 370 -442 341 -466 q 311 -490 270 -490 l 270 -490 q 229 -490 198 -465 q 166 -441 149 -395 q 132 -350 132 -285 l 132 -285 q 132 -232 143 -188 q 153 -145 172 -110 q 191 -76 217 -48 l 217 -48 l 149 10 q 118 -21 92 -64 q 66 -108 51 -164 q 35 -220 35 -290 l 35 -290 q 35 -347 49 -397 q 63 -448 92 -486 q 121 -525 165 -546 q 209 -568 270 -568 z"},"൩":{"ha":840,"x_min":35,"x_max":823,"o":"m 230 -568 l 230 -568 q 264 -568 288 -557 q 311 -546 330 -527 q 348 -509 364 -485 l 364 -485 l 351 -487 q 378 -531 411 -549 q 443 -568 488 -568 l 488 -568 q 548 -568 591 -534 q 633 -501 656 -442 q 678 -384 678 -306 l 678 -306 q 678 -247 669 -200 q 659 -154 640 -115 q 621 -76 593 -38 l 593 -38 l 588 0 l 549 0 l 506 -49 q 529 -84 546 -120 q 563 -157 573 -200 q 582 -244 582 -301 l 582 -301 q 582 -359 569 -401 q 556 -444 534 -467 q 511 -491 481 -491 l 481 -491 q 467 -491 455 -486 q 443 -481 433 -471 l 433 -471 q 417 -455 410 -424 q 403 -394 403 -338 l 403 -338 l 403 0 l 310 0 l 310 -334 q 310 -395 304 -424 q 297 -453 282 -471 l 282 -471 q 273 -480 262 -485 q 250 -491 234 -491 l 234 -491 q 207 -491 184 -469 q 160 -447 146 -404 q 131 -361 131 -298 l 131 -298 q 131 -241 142 -195 q 153 -149 172 -112 q 190 -75 213 -45 l 213 -45 l 139 10 q 110 -29 87 -74 q 63 -119 49 -175 q 35 -231 35 -302 l 35 -302 q 35 -381 58 -441 q 81 -501 125 -534 q 168 -568 230 -568 z m 565 0 l 607 -76 l 823 -76 l 823 0 l 565 0 z"},"൪":{"ha":625,"x_min":35,"x_max":620,"o":"m 288 -568 l 288 -568 q 353 -568 398 -544 q 442 -521 476 -482 l 476 -482 q 521 -432 544 -364 q 566 -297 566 -218 l 566 -218 q 566 -137 546 -86 q 526 -35 488 -11 q 450 12 394 12 l 394 12 q 340 12 304 -13 q 267 -38 249 -80 q 231 -123 231 -176 l 231 -176 q 231 -235 251 -284 q 270 -333 312 -379 q 353 -426 419 -478 l 419 -478 q 463 -511 486 -532 q 508 -554 517 -574 q 525 -594 525 -619 l 525 -619 q 525 -640 518 -659 q 510 -678 500 -694 l 500 -694 l 586 -734 q 602 -710 611 -684 q 620 -658 620 -626 l 620 -626 q 620 -579 602 -545 q 584 -511 550 -481 q 515 -452 465 -414 l 465 -414 q 420 -378 389 -341 q 358 -305 341 -264 q 324 -224 324 -175 l 324 -175 q 324 -120 343 -91 q 361 -63 394 -63 l 394 -63 q 419 -63 436 -76 q 453 -90 462 -122 q 470 -155 470 -210 l 470 -210 q 470 -276 453 -336 q 436 -396 399 -437 l 399 -437 q 381 -461 354 -476 q 326 -491 294 -491 l 294 -491 q 242 -491 206 -466 q 169 -441 150 -395 q 131 -349 131 -284 l 131 -284 q 131 -229 142 -186 q 152 -144 172 -110 q 191 -76 216 -48 l 216 -48 l 149 10 q 118 -22 92 -65 q 66 -109 51 -164 q 35 -220 35 -290 l 35 -290 q 35 -347 51 -397 q 66 -448 97 -486 q 128 -524 176 -546 q 224 -568 288 -568 z"},"൫":{"ha":795,"x_min":41,"x_max":754,"o":"m 404 -725 l 404 -725 q 492 -725 558 -692 q 623 -660 667 -601 q 711 -542 733 -461 q 754 -381 754 -285 l 754 -285 q 754 -211 742 -136 q 729 -62 701 10 l 701 10 l 614 -19 q 631 -61 641 -105 q 651 -150 656 -195 q 661 -240 661 -285 l 661 -285 q 661 -363 646 -429 q 630 -495 599 -543 q 567 -592 519 -618 q 471 -645 406 -645 l 406 -645 q 323 -645 262 -598 q 201 -552 168 -465 q 134 -378 134 -256 l 134 -256 q 134 -182 146 -118 q 157 -54 182 -5 q 207 44 248 71 q 288 98 344 98 l 344 98 q 421 98 457 57 q 493 15 493 -62 l 493 -62 q 493 -103 483 -137 q 473 -171 449 -191 q 425 -212 386 -212 l 386 -212 l 377 -212 l 377 -287 l 384 -287 q 413 -287 430 -292 q 447 -298 460 -309 l 460 -309 q 473 -321 479 -337 q 485 -353 485 -378 l 485 -378 q 485 -419 466 -441 q 447 -464 413 -464 l 413 -464 q 376 -464 352 -439 q 328 -414 317 -371 q 305 -329 305 -274 l 305 -274 q 305 -213 320 -148 q 335 -83 365 -28 l 365 -28 l 280 8 q 248 -57 230 -126 q 212 -196 212 -277 l 212 -277 q 212 -355 237 -415 q 261 -475 307 -509 q 353 -543 416 -543 l 416 -543 q 472 -543 508 -521 q 544 -500 562 -464 q 579 -429 579 -386 l 579 -386 q 579 -354 570 -327 q 561 -300 541 -280 q 521 -260 486 -246 l 486 -246 l 479 -255 q 529 -235 558 -182 q 587 -130 587 -60 l 587 -60 q 587 17 558 70 q 529 123 476 151 q 423 178 349 178 l 349 178 q 253 178 184 128 q 115 78 78 -17 q 41 -113 41 -252 l 41 -252 q 41 -371 70 -459 q 99 -548 150 -607 q 200 -666 266 -695 q 331 -725 404 -725 z"},"൬":{"ha":951,"x_min":35,"x_max":909,"o":"m 471 -568 l 471 -568 q 517 -568 548 -547 q 579 -527 602 -488 l 602 -488 l 643 -308 l 643 0 l 550 0 l 550 -338 q 550 -385 547 -414 q 543 -443 531 -461 l 531 -461 q 522 -475 508 -483 q 494 -491 472 -491 l 472 -491 q 452 -491 438 -483 q 424 -475 414 -461 l 414 -461 q 402 -440 397 -410 q 392 -381 392 -334 l 392 -334 l 392 0 l 299 0 l 299 -339 q 299 -389 295 -418 q 290 -448 274 -468 l 274 -468 q 266 -478 255 -484 q 244 -491 227 -491 l 227 -491 q 201 -491 179 -469 q 156 -447 143 -404 q 130 -361 130 -298 l 130 -298 q 130 -241 141 -195 q 152 -149 171 -112 q 189 -76 212 -46 l 212 -46 l 138 9 q 109 -30 86 -75 q 62 -120 49 -175 q 35 -231 35 -302 l 35 -302 q 35 -380 56 -440 q 77 -500 119 -534 q 161 -568 220 -568 l 220 -568 q 269 -568 299 -547 q 329 -526 353 -487 l 353 -487 l 338 -485 q 364 -530 397 -549 q 429 -568 471 -568 z m 725 -568 l 725 -568 q 815 -568 862 -488 q 909 -408 909 -229 l 909 -229 q 909 -79 880 16 q 850 111 787 156 q 724 201 622 201 l 622 201 q 605 201 583 200 q 560 198 542 194 l 542 194 l 548 116 q 564 120 581 121 q 598 122 616 122 l 616 122 q 674 122 713 100 q 752 77 774 33 q 795 -12 805 -77 q 814 -142 814 -227 l 814 -227 q 814 -318 803 -376 q 792 -434 771 -462 q 749 -491 718 -491 l 718 -491 q 703 -491 692 -486 q 680 -481 672 -471 l 672 -471 q 655 -451 649 -416 q 643 -382 643 -329 l 643 -329 l 643 -10 l 557 -10 l 557 -333 l 589 -485 q 614 -529 647 -548 q 680 -568 725 -568 z"},"൭":{"ha":592,"x_min":37,"x_max":552,"o":"m 299 -568 l 299 -568 q 364 -568 412 -543 q 459 -519 490 -472 q 521 -426 537 -359 q 552 -292 552 -207 l 552 -207 q 552 -102 535 -25 q 517 52 481 102 q 445 152 391 177 q 337 201 263 201 l 263 201 q 239 201 217 200 q 194 198 170 194 l 170 194 l 178 116 q 195 119 214 121 q 233 122 256 122 l 256 122 q 313 122 351 101 q 389 79 412 37 q 435 -6 446 -68 q 456 -130 456 -208 l 456 -208 q 456 -348 414 -419 q 372 -490 295 -490 l 295 -490 q 240 -490 202 -457 q 163 -425 143 -368 q 123 -312 123 -242 l 123 -242 l 123 -222 q 123 -162 132 -127 q 141 -93 157 -78 q 172 -64 192 -64 l 192 -64 q 208 -64 220 -74 q 231 -84 238 -104 q 244 -125 244 -160 l 244 -160 q 244 -213 229 -235 q 214 -257 183 -257 l 183 -257 q 157 -257 135 -242 q 113 -227 89 -195 l 89 -195 l 71 -261 q 93 -287 128 -309 q 163 -331 205 -331 l 205 -331 q 247 -331 276 -312 q 304 -294 320 -256 q 335 -219 335 -164 l 335 -164 q 335 -105 319 -66 q 302 -27 272 -7 q 241 12 196 12 l 196 12 q 153 12 117 -12 q 80 -36 59 -91 q 37 -147 37 -238 l 37 -238 q 37 -346 70 -419 q 103 -493 163 -530 q 223 -568 299 -568 z"},"൮":{"ha":756,"x_min":35,"x_max":699,"o":"m 270 -568 l 270 -568 q 331 -568 374 -547 q 417 -526 446 -488 q 474 -450 487 -400 q 500 -351 500 -294 l 500 -294 q 500 -238 490 -193 q 479 -148 461 -111 q 442 -75 419 -43 l 419 -43 l 426 -76 l 605 -76 l 605 -556 l 699 -556 l 699 -156 l 639 0 l 371 0 l 327 -57 q 346 -79 364 -111 q 382 -143 393 -186 q 404 -229 404 -284 l 404 -284 q 404 -350 387 -396 q 370 -442 341 -466 q 311 -490 270 -490 l 270 -490 q 229 -490 198 -465 q 166 -441 149 -395 q 132 -350 132 -285 l 132 -285 q 132 -232 143 -188 q 153 -145 172 -110 q 191 -76 217 -48 l 217 -48 l 149 10 q 118 -21 92 -64 q 66 -108 51 -164 q 35 -220 35 -290 l 35 -290 q 35 -347 49 -397 q 63 -448 92 -486 q 121 -525 165 -546 q 209 -568 270 -568 z m 443 201 l 443 201 q 417 201 392 199 q 367 196 347 190 l 347 190 l 357 112 q 372 116 395 119 q 417 122 437 122 l 437 122 q 488 122 520 111 q 552 99 570 76 q 588 53 596 21 q 603 -12 605 -53 l 605 -53 l 699 -218 l 699 -114 q 699 -43 692 7 q 685 56 670 90 q 654 123 625 148 l 625 148 q 597 173 551 187 q 505 201 443 201 z"},"൯":{"ha":874,"x_min":35,"x_max":868,"o":"m 231 -568 l 231 -568 q 265 -568 291 -557 q 317 -547 337 -527 q 357 -508 373 -483 l 373 -483 l 403 -245 l 403 0 l 310 0 l 310 -336 q 310 -395 304 -424 q 297 -453 282 -471 l 282 -471 q 273 -480 262 -485 q 250 -491 234 -491 l 234 -491 q 207 -491 184 -468 q 160 -446 146 -403 q 131 -360 131 -298 l 131 -298 q 131 -241 142 -195 q 153 -149 172 -112 q 190 -75 213 -45 l 213 -45 l 139 10 q 110 -29 87 -74 q 63 -119 49 -175 q 35 -231 35 -302 l 35 -302 q 35 -381 58 -440 q 81 -500 125 -534 q 168 -568 231 -568 z m 525 -568 l 525 -568 q 590 -568 639 -544 q 688 -521 724 -480 l 724 -480 q 769 -430 792 -361 q 814 -293 814 -218 l 814 -218 q 814 -137 794 -86 q 774 -35 736 -11 q 698 12 643 12 l 643 12 q 588 12 552 -13 q 515 -38 497 -80 q 479 -123 479 -176 l 479 -176 q 479 -235 499 -284 q 519 -333 561 -379 q 602 -426 667 -478 l 667 -478 q 711 -511 734 -532 q 757 -554 766 -574 q 774 -594 774 -619 l 774 -619 q 774 -640 767 -659 q 759 -678 748 -694 l 748 -694 l 834 -734 q 850 -710 859 -684 q 868 -658 868 -626 l 868 -626 q 868 -579 851 -545 q 833 -511 799 -481 q 764 -452 713 -414 l 713 -414 q 669 -378 638 -341 q 606 -305 590 -264 q 573 -224 573 -175 l 573 -175 q 573 -120 591 -91 q 609 -63 642 -63 l 642 -63 q 668 -63 685 -76 q 702 -90 710 -122 q 718 -155 718 -210 l 718 -210 q 718 -277 700 -335 q 682 -394 646 -435 l 646 -435 q 625 -461 595 -476 q 564 -491 527 -491 l 527 -491 q 498 -491 477 -483 q 456 -475 440 -458 l 440 -458 q 426 -443 418 -423 q 409 -404 406 -376 q 403 -349 403 -310 l 403 -310 l 403 -49 l 318 -49 l 318 -300 l 339 -454 q 358 -488 382 -513 q 406 -539 441 -553 q 475 -568 525 -568 z"},"൰":{"ha":821,"x_min":-21,"x_max":785,"o":"m 163 -556 l 256 -556 l 256 -147 l 253 -97 q 253 -20 246 32 q 238 83 214 121 l 214 121 q 192 158 151 180 q 110 201 50 201 l 50 201 q 32 201 14 200 q -4 198 -21 194 l -21 194 l -14 116 q -2 119 11 121 q 24 122 38 122 l 38 122 q 73 122 96 111 q 118 100 132 82 l 132 82 q 153 55 158 13 q 163 -30 163 -94 l 163 -94 l 163 -556 z m 595 12 l 595 12 q 551 12 519 -7 q 486 -26 459 -70 l 459 -70 l 473 -72 q 448 -29 417 -8 q 385 12 340 12 l 340 12 q 306 12 282 1 q 257 -10 240 -31 q 223 -52 208 -82 l 208 -82 l 183 -258 l 184 -548 l 256 -541 l 256 -223 q 256 -167 260 -140 q 264 -114 276 -95 l 276 -95 q 284 -81 299 -73 q 314 -66 337 -66 l 337 -66 q 360 -66 374 -74 q 387 -82 396 -95 l 396 -95 q 411 -116 415 -145 q 419 -174 419 -226 l 419 -226 l 419 -556 l 512 -556 l 512 -224 q 512 -165 518 -133 q 524 -102 540 -86 l 540 -86 q 551 -75 564 -70 q 576 -66 589 -66 l 589 -66 q 619 -66 642 -89 q 664 -113 677 -156 q 690 -199 690 -256 l 690 -256 q 690 -313 679 -359 q 667 -406 649 -443 q 630 -481 607 -510 l 607 -510 l 681 -565 q 711 -527 735 -482 q 758 -437 772 -380 q 785 -324 785 -250 l 785 -250 q 785 -174 763 -114 q 741 -55 699 -21 q 657 12 595 12 z"},"൱":{"ha":718,"x_min":35,"x_max":677,"o":"m 231 -568 l 231 -568 q 265 -568 289 -557 q 312 -546 332 -527 q 351 -508 367 -483 l 367 -483 l 403 -245 l 403 0 l 310 0 l 310 -336 q 310 -395 304 -424 q 297 -453 282 -471 l 282 -471 q 273 -480 262 -485 q 250 -491 234 -491 l 234 -491 q 207 -491 184 -469 q 160 -447 146 -404 q 131 -361 131 -298 l 131 -298 q 131 -241 142 -195 q 153 -149 172 -112 q 190 -75 213 -45 l 213 -45 l 139 10 q 110 -29 87 -74 q 63 -119 49 -175 q 35 -231 35 -302 l 35 -302 q 35 -381 58 -441 q 81 -501 125 -534 q 168 -568 231 -568 z m 487 -568 l 487 -568 q 548 -568 591 -534 q 633 -500 655 -425 q 677 -350 677 -228 l 677 -228 q 677 -78 647 17 q 617 112 554 157 q 490 201 389 201 l 389 201 q 368 201 346 200 q 323 198 299 194 l 299 194 l 306 116 q 323 119 342 121 q 361 122 385 122 l 385 122 q 442 122 480 100 q 518 77 540 33 q 562 -12 572 -77 q 581 -143 581 -228 l 581 -228 q 581 -320 570 -378 q 558 -436 536 -463 q 513 -491 482 -491 l 482 -491 q 468 -491 456 -486 q 444 -481 433 -471 l 433 -471 q 417 -455 410 -423 q 403 -391 403 -332 l 403 -332 l 403 -10 l 317 -10 l 317 -314 l 350 -485 q 376 -527 409 -547 q 442 -568 487 -568 z"},"൲":{"ha":1108,"x_min":36,"x_max":1088,"o":"m 954 -556 l 954 -556 q 1002 -556 1032 -536 q 1061 -517 1075 -484 q 1088 -452 1088 -415 l 1088 -415 q 1088 -377 1075 -345 q 1062 -313 1036 -293 l 1036 -293 q 1018 -279 998 -271 q 977 -263 948 -259 q 918 -255 877 -255 l 877 -255 l 739 -255 l 744 -331 l 894 -331 q 933 -331 951 -337 q 969 -344 980 -355 l 980 -355 q 991 -365 996 -380 q 1001 -395 1001 -417 l 1001 -417 q 1001 -447 989 -464 q 976 -482 953 -482 l 953 -482 q 928 -482 914 -461 q 900 -441 900 -408 l 900 -408 q 900 -369 912 -342 q 923 -315 937 -293 l 937 -293 l 854 -287 q 839 -311 827 -344 q 815 -378 815 -416 l 815 -416 q 815 -461 833 -492 q 851 -524 883 -540 q 914 -556 954 -556 z m 231 -568 l 231 -568 q 266 -568 291 -557 q 315 -547 335 -527 q 354 -508 373 -480 l 373 -480 l 404 -241 l 404 0 l 311 0 l 311 -336 q 311 -395 304 -424 q 297 -453 282 -471 l 282 -471 q 274 -480 263 -485 q 251 -491 235 -491 l 235 -491 q 207 -491 184 -469 q 161 -447 147 -404 q 132 -361 132 -298 l 132 -298 q 132 -241 143 -195 q 154 -149 173 -112 q 191 -75 213 -45 l 213 -45 l 140 10 q 111 -29 88 -74 q 64 -119 50 -175 q 36 -231 36 -302 l 36 -302 q 36 -381 59 -441 q 81 -501 125 -534 q 169 -568 231 -568 z m 523 -568 l 523 -568 q 579 -568 625 -547 q 671 -527 705 -486 q 739 -445 757 -381 q 775 -317 775 -232 l 775 -232 q 775 -139 754 -85 q 733 -32 696 -10 q 659 12 609 12 l 609 12 q 556 12 523 -10 q 490 -33 475 -68 q 460 -104 460 -144 l 460 -144 q 460 -198 478 -233 q 496 -268 526 -290 l 526 -290 q 548 -306 574 -314 q 599 -323 634 -327 q 669 -331 717 -331 l 717 -331 l 881 -331 l 881 -255 l 718 -255 q 664 -255 635 -248 q 606 -242 586 -227 l 586 -227 q 570 -214 561 -194 q 551 -174 551 -144 l 551 -144 q 551 -109 567 -87 q 582 -65 611 -65 l 611 -65 q 634 -65 650 -81 q 666 -98 675 -134 q 683 -171 683 -232 l 683 -232 q 683 -249 683 -263 q 682 -278 681 -290 l 681 -290 l 677 -316 q 672 -359 655 -399 q 638 -439 607 -465 q 575 -491 526 -491 l 526 -491 q 502 -491 482 -484 q 461 -478 443 -461 l 443 -461 q 428 -448 420 -428 q 411 -408 408 -380 q 404 -353 404 -315 l 404 -315 l 404 -209 l 348 -219 l 340 -463 q 359 -494 383 -518 q 407 -542 441 -555 q 475 -568 523 -568 z"},"൳":{"ha":592,"x_min":36,"x_max":570,"o":"m 192 12 l 192 12 q 148 12 113 -12 q 77 -37 57 -88 q 36 -139 36 -220 l 36 -220 q 36 -295 58 -353 q 80 -411 127 -450 l 127 -450 q 157 -475 195 -490 q 233 -506 286 -514 q 338 -522 410 -522 l 410 -522 l 570 -522 l 570 -442 l 419 -442 q 354 -442 311 -436 q 267 -431 239 -420 q 210 -409 188 -393 l 188 -393 q 158 -369 144 -336 q 130 -304 124 -268 l 124 -268 l 124 -249 q 123 -241 123 -232 q 122 -223 122 -208 l 122 -208 q 122 -157 131 -125 q 140 -93 156 -78 q 171 -64 190 -64 l 190 -64 q 207 -64 219 -73 q 230 -83 237 -104 q 243 -125 243 -160 l 243 -160 q 243 -213 228 -235 q 213 -257 182 -257 l 182 -257 q 156 -257 134 -242 q 112 -227 88 -195 l 88 -195 l 66 -257 q 88 -285 125 -308 q 161 -331 205 -331 l 205 -331 q 246 -331 275 -312 q 303 -294 319 -256 q 334 -219 334 -163 l 334 -163 q 334 -105 318 -66 q 301 -27 270 -7 q 239 12 192 12 z"},"൴":{"ha":733,"x_min":36,"x_max":698,"o":"m 377 -791 l 470 -791 l 470 -189 q 470 -165 472 -144 q 473 -124 477 -109 q 481 -94 489 -83 l 489 -83 q 496 -73 507 -68 q 518 -64 533 -64 l 533 -64 q 557 -64 573 -80 q 588 -96 596 -129 q 603 -163 603 -215 l 603 -215 q 603 -268 594 -314 q 584 -360 564 -396 q 543 -432 511 -456 q 478 -481 433 -491 l 433 -491 l 406 -490 q 399 -490 390 -491 q 381 -492 372 -492 l 372 -492 q 316 -492 270 -474 q 224 -457 191 -423 q 158 -390 141 -343 q 123 -296 123 -237 l 123 -237 l 123 -217 q 123 -160 132 -126 q 140 -93 156 -78 q 171 -64 191 -64 l 191 -64 q 207 -64 219 -73 q 230 -83 237 -104 q 243 -125 243 -160 l 243 -160 q 243 -213 228 -235 q 213 -257 182 -257 l 182 -257 q 156 -257 134 -242 q 112 -227 88 -195 l 88 -195 l 66 -257 q 88 -285 125 -308 q 161 -331 205 -331 l 205 -331 q 246 -331 275 -312 q 303 -294 319 -256 q 334 -219 334 -163 l 334 -163 q 334 -105 318 -66 q 301 -27 270 -7 q 239 12 194 12 l 194 12 q 151 12 115 -12 q 79 -36 58 -88 q 36 -140 36 -226 l 36 -226 q 36 -306 59 -369 q 81 -433 125 -477 q 169 -522 232 -545 q 294 -568 374 -568 l 374 -568 q 385 -568 395 -568 q 404 -569 413 -567 l 413 -567 l 445 -565 q 500 -556 547 -529 q 593 -503 627 -458 q 661 -414 680 -352 q 698 -291 698 -214 l 698 -214 q 698 -145 680 -94 q 661 -43 625 -15 q 589 12 535 12 l 535 12 q 493 12 466 1 q 439 -11 421 -32 l 421 -32 q 403 -53 393 -79 q 383 -105 380 -140 q 377 -175 377 -222 l 377 -222 l 377 -791 z"},"൵":{"ha":965,"x_min":37,"x_max":960,"o":"m 288 -568 l 288 -568 q 351 -568 392 -544 q 432 -520 463 -470 l 463 -470 l 480 -410 l 495 -255 l 495 0 l 402 0 l 402 -316 q 402 -375 395 -407 q 388 -439 370 -459 l 370 -459 q 358 -473 339 -482 q 319 -491 289 -491 l 289 -491 q 240 -491 203 -461 q 166 -431 145 -376 q 124 -322 124 -248 l 124 -248 l 124 -225 q 124 -164 133 -128 q 142 -93 158 -78 q 173 -64 193 -64 l 193 -64 q 209 -64 221 -74 q 232 -84 238 -104 q 244 -125 244 -160 l 244 -160 q 244 -213 229 -235 q 214 -257 184 -257 l 184 -257 q 158 -257 137 -242 q 115 -228 91 -197 l 91 -197 l 72 -261 q 94 -287 130 -309 q 165 -331 206 -331 l 206 -331 q 248 -331 277 -312 q 305 -294 320 -256 q 335 -219 335 -164 l 335 -164 q 335 -104 319 -65 q 302 -27 271 -7 q 240 12 195 12 l 195 12 q 152 12 117 -12 q 81 -37 59 -92 q 37 -148 37 -242 l 37 -242 q 37 -353 70 -425 q 103 -498 160 -533 q 216 -568 288 -568 z m 617 -568 l 617 -568 q 682 -568 731 -544 q 780 -521 816 -480 l 816 -480 q 860 -430 883 -361 q 906 -293 906 -218 l 906 -218 q 906 -137 886 -86 q 866 -35 828 -11 q 790 12 735 12 l 735 12 q 680 12 644 -13 q 607 -38 589 -80 q 571 -123 571 -176 l 571 -176 q 571 -235 591 -284 q 611 -333 653 -379 q 694 -426 759 -478 l 759 -478 q 803 -511 826 -532 q 849 -554 857 -574 q 865 -594 865 -619 l 865 -619 q 865 -640 858 -659 q 851 -678 840 -694 l 840 -694 l 926 -734 q 942 -710 951 -684 q 960 -658 960 -626 l 960 -626 q 960 -579 942 -545 q 924 -511 890 -481 q 855 -452 805 -414 l 805 -414 q 761 -378 729 -341 q 697 -305 681 -264 q 664 -224 664 -175 l 664 -175 q 664 -120 683 -91 q 701 -63 734 -63 l 734 -63 q 759 -63 776 -76 q 793 -90 802 -122 q 810 -155 810 -210 l 810 -210 q 810 -277 792 -335 q 774 -394 738 -435 l 738 -435 q 717 -461 686 -476 q 655 -491 618 -491 l 618 -491 q 590 -491 569 -483 q 548 -475 532 -458 l 532 -458 q 518 -443 510 -423 q 501 -404 498 -376 q 495 -349 495 -310 l 495 -310 l 495 -49 l 410 -49 l 410 -300 l 431 -454 q 450 -488 474 -513 q 498 -539 533 -553 q 567 -568 617 -568 z"},"൶":{"ha":1069,"x_min":30,"x_max":1019,"o":"m 191 -351 l 191 -351 q 248 -351 284 -326 q 319 -301 336 -262 q 352 -223 352 -179 l 352 -179 q 352 -137 339 -106 q 326 -76 316 -61 l 316 -61 l 305 -76 l 566 -76 l 573 0 l 262 0 l 227 -54 q 239 -75 250 -103 q 261 -131 261 -171 l 261 -171 q 261 -218 244 -246 q 226 -275 193 -275 l 193 -275 q 170 -275 154 -262 q 138 -250 130 -227 q 122 -204 122 -175 l 122 -175 q 122 -129 136 -98 q 149 -68 168 -37 l 168 -37 l 97 8 q 69 -29 50 -73 q 30 -118 30 -175 l 30 -175 q 30 -229 50 -268 q 70 -307 107 -329 q 143 -351 191 -351 z m 770 -568 l 770 -568 q 836 -568 882 -550 q 928 -532 957 -499 l 957 -499 q 979 -475 993 -444 q 1006 -413 1013 -371 q 1019 -330 1019 -274 l 1019 -274 l 1019 0 l 533 0 l 533 -277 q 533 -332 540 -373 q 546 -414 560 -445 q 573 -477 594 -500 l 594 -500 q 624 -533 666 -550 q 707 -568 770 -568 z m 719 -491 l 719 -491 q 697 -491 678 -473 q 658 -455 646 -424 l 646 -424 q 636 -398 631 -362 q 625 -327 625 -272 l 625 -272 l 625 -61 l 618 -64 q 663 -114 697 -171 q 730 -229 749 -288 q 767 -348 767 -404 l 767 -404 q 767 -431 763 -450 q 758 -470 748 -480 q 738 -491 719 -491 z m 860 -388 l 860 -388 q 860 -328 843 -273 q 826 -218 795 -165 q 764 -113 721 -58 l 721 -58 l 705 -71 q 724 -73 753 -74 q 781 -76 794 -76 l 794 -76 l 926 -76 l 926 -282 q 926 -346 915 -388 q 904 -430 882 -456 q 859 -482 822 -494 l 822 -494 l 822 -499 q 839 -479 850 -450 q 860 -422 860 -388 z"},"൷":{"ha":1372,"x_min":30,"x_max":1353,"o":"m 191 -351 l 191 -351 q 247 -351 283 -326 q 318 -301 335 -262 q 352 -223 352 -179 l 352 -179 q 352 -137 339 -106 q 326 -76 316 -61 l 316 -61 l 303 -76 l 531 -76 l 562 0 l 262 0 l 228 -54 q 240 -75 251 -102 q 261 -130 261 -169 l 261 -169 q 261 -218 244 -246 q 226 -275 193 -275 l 193 -275 q 170 -275 154 -262 q 138 -250 130 -227 q 122 -204 122 -175 l 122 -175 q 122 -129 136 -98 q 149 -68 168 -37 l 168 -37 l 97 8 q 69 -29 50 -73 q 30 -118 30 -176 l 30 -176 q 30 -229 50 -268 q 70 -307 107 -329 q 143 -351 191 -351 z m 631 -568 l 631 -568 q 665 -568 690 -557 q 715 -547 735 -527 q 754 -508 773 -480 l 773 -480 l 803 -275 l 803 -230 l 710 -230 l 710 -336 q 710 -395 704 -424 q 697 -453 682 -471 l 682 -471 q 674 -480 663 -485 q 651 -491 635 -491 l 635 -491 q 607 -491 584 -469 q 560 -448 546 -406 q 531 -365 531 -305 l 531 -305 q 531 -224 552 -162 q 573 -101 606 -50 l 606 -50 l 564 0 l 519 0 l 505 -57 q 484 -92 468 -129 q 452 -166 444 -210 q 436 -255 436 -310 l 436 -310 q 436 -386 459 -444 q 481 -502 525 -535 q 568 -568 631 -568 z m 928 -568 l 928 -568 q 984 -568 1031 -547 q 1077 -526 1112 -484 q 1146 -442 1165 -379 q 1183 -316 1183 -232 l 1183 -232 q 1183 -138 1162 -85 q 1141 -32 1104 -10 q 1066 12 1017 12 l 1017 12 q 963 12 930 -10 q 897 -33 883 -68 q 868 -104 868 -144 l 868 -144 q 868 -198 886 -233 q 904 -268 934 -290 l 934 -290 q 955 -306 981 -314 q 1006 -323 1041 -327 q 1075 -331 1120 -331 l 1120 -331 l 1165 -331 l 1165 -255 l 1125 -255 q 1072 -255 1043 -248 q 1013 -242 993 -227 l 993 -227 q 977 -214 968 -194 q 959 -174 959 -144 l 959 -144 q 959 -109 974 -87 q 989 -65 1018 -65 l 1018 -65 q 1041 -65 1057 -82 q 1073 -99 1082 -135 q 1090 -172 1090 -232 l 1090 -232 q 1090 -249 1090 -263 q 1089 -278 1088 -290 l 1088 -290 l 1084 -316 q 1079 -359 1062 -399 q 1045 -439 1013 -465 q 980 -491 929 -491 l 929 -491 q 902 -491 882 -484 q 861 -478 842 -461 l 842 -461 q 829 -448 820 -428 q 811 -408 807 -380 q 803 -353 803 -315 l 803 -315 l 803 -244 l 747 -244 l 741 -464 q 760 -496 785 -519 q 809 -542 844 -555 q 879 -568 928 -568 z m 1252 -446 l 1342 -465 q 1347 -453 1350 -436 q 1353 -420 1353 -402 l 1353 -402 q 1353 -366 1340 -338 q 1326 -311 1302 -293 l 1302 -293 q 1274 -273 1238 -264 q 1202 -255 1143 -255 l 1143 -255 l 1142 -255 l 1142 -331 l 1139 -331 q 1171 -331 1192 -334 q 1213 -338 1227 -346 l 1227 -346 q 1243 -354 1251 -369 q 1258 -385 1258 -407 l 1258 -407 q 1258 -416 1256 -427 q 1254 -438 1252 -446 l 1252 -446 z"},"൸":{"ha":1708,"x_min":9,"x_max":1658,"o":"m 1098 -568 l 1098 -568 q 1120 -568 1140 -563 q 1160 -558 1178 -546 q 1196 -534 1211 -515 q 1226 -496 1239 -467 l 1239 -467 l 1209 -459 q 1230 -498 1259 -522 q 1288 -546 1325 -557 q 1362 -568 1409 -568 l 1409 -568 q 1475 -568 1521 -550 q 1566 -532 1596 -499 l 1596 -499 q 1618 -475 1632 -444 q 1645 -413 1652 -371 q 1658 -330 1658 -274 l 1658 -274 l 1658 0 l 1265 0 l 1265 -72 q 1305 -119 1337 -175 q 1369 -231 1388 -289 q 1406 -348 1406 -404 l 1406 -404 q 1406 -431 1402 -450 q 1398 -470 1387 -480 q 1376 -491 1358 -491 l 1358 -491 q 1336 -491 1317 -473 q 1297 -455 1284 -423 l 1284 -423 q 1274 -395 1270 -359 q 1266 -323 1266 -265 l 1266 -265 l 1266 -230 l 1174 -230 l 1174 -351 q 1174 -390 1171 -418 q 1167 -447 1154 -465 l 1154 -465 q 1147 -477 1133 -483 q 1119 -490 1099 -490 l 1099 -490 q 1083 -490 1069 -484 q 1055 -478 1048 -466 l 1048 -466 q 1035 -448 1031 -420 q 1027 -393 1027 -353 l 1027 -353 l 1027 -206 q 1027 -164 1022 -131 q 1017 -98 1006 -73 q 995 -49 977 -30 l 977 -30 q 958 -11 930 1 q 902 12 860 12 l 860 12 q 819 12 791 1 q 763 -11 744 -30 l 744 -30 q 726 -49 715 -74 q 704 -99 699 -131 q 694 -164 694 -204 l 694 -204 l 694 -352 q 694 -391 690 -419 q 686 -447 674 -465 l 674 -465 q 666 -477 653 -483 q 639 -490 620 -490 l 620 -490 q 603 -490 589 -484 q 575 -478 568 -466 l 568 -466 q 555 -448 551 -420 q 547 -393 547 -353 l 547 -353 l 547 -201 q 547 -132 536 -95 q 524 -58 499 -31 l 499 -31 q 478 -10 451 1 q 423 12 387 12 l 387 12 q 334 12 303 -10 q 271 -32 250 -68 l 250 -68 l 262 -71 q 244 -43 224 -24 q 204 -6 180 3 q 155 12 123 12 l 123 12 q 87 12 60 5 q 33 -3 9 -15 l 9 -15 l 41 -88 q 58 -79 80 -72 q 101 -66 124 -66 l 124 -66 q 141 -66 155 -70 q 169 -75 179 -86 l 179 -86 q 195 -102 202 -134 q 208 -166 208 -224 l 208 -224 l 208 -555 l 301 -556 l 301 -222 q 301 -169 306 -141 q 310 -113 322 -94 l 322 -94 q 330 -81 345 -73 q 359 -66 377 -66 l 377 -66 q 396 -66 410 -72 q 424 -78 432 -90 l 432 -90 q 445 -108 450 -134 q 454 -161 454 -202 l 454 -202 l 454 -347 q 454 -392 459 -425 q 464 -458 475 -483 q 486 -509 503 -526 l 503 -526 q 523 -545 551 -556 q 578 -568 620 -568 l 620 -568 q 660 -568 689 -557 q 718 -546 737 -526 l 737 -526 q 755 -509 766 -484 q 777 -460 782 -428 q 787 -396 787 -352 l 787 -352 l 787 -206 q 787 -166 791 -138 q 794 -110 807 -91 l 807 -91 q 814 -79 828 -72 q 842 -66 860 -66 l 860 -66 q 878 -66 892 -72 q 906 -79 913 -90 l 913 -90 q 926 -109 930 -136 q 934 -164 934 -205 l 934 -205 l 934 -347 q 934 -392 939 -425 q 944 -458 955 -483 q 966 -509 983 -526 l 983 -526 q 1003 -545 1031 -556 q 1059 -568 1098 -568 z m 1499 -388 l 1499 -388 q 1499 -328 1482 -273 q 1465 -218 1434 -165 q 1402 -113 1360 -58 l 1360 -58 l 1344 -71 q 1363 -73 1392 -74 q 1420 -76 1433 -76 l 1433 -76 l 1565 -76 l 1565 -282 q 1565 -346 1554 -388 q 1543 -430 1521 -456 q 1498 -482 1461 -494 l 1461 -494 l 1461 -499 q 1478 -479 1489 -450 q 1499 -422 1499 -388 z"},"൹":{"ha":902,"x_min":35,"x_max":880,"o":"m 231 -568 l 231 -568 q 265 -568 290 -557 q 314 -547 334 -527 q 353 -508 373 -480 l 373 -480 l 403 -241 l 403 0 l 310 0 l 310 -336 q 310 -395 304 -424 q 297 -453 282 -471 l 282 -471 q 273 -480 262 -485 q 250 -491 234 -491 l 234 -491 q 207 -491 184 -469 q 160 -447 146 -404 q 131 -361 131 -298 l 131 -298 q 131 -241 142 -195 q 153 -149 172 -112 q 190 -75 213 -45 l 213 -45 l 139 10 q 110 -29 87 -74 q 63 -119 49 -175 q 35 -231 35 -302 l 35 -302 q 35 -381 58 -441 q 81 -501 125 -534 q 168 -568 231 -568 z m 523 -568 l 523 -568 q 578 -568 625 -547 q 671 -527 705 -486 q 738 -445 757 -381 q 775 -317 775 -232 l 775 -232 q 775 -139 754 -85 q 733 -32 696 -10 q 658 12 609 12 l 609 12 q 555 12 522 -10 q 489 -33 475 -68 q 460 -104 460 -144 l 460 -144 q 460 -198 478 -233 q 496 -268 526 -290 l 526 -290 q 547 -306 573 -314 q 599 -323 634 -327 q 668 -331 716 -331 l 716 -331 l 880 -331 l 880 -255 l 717 -255 q 664 -255 635 -248 q 605 -242 585 -227 l 585 -227 q 569 -214 560 -194 q 551 -174 551 -144 l 551 -144 q 551 -109 566 -87 q 581 -65 610 -65 l 610 -65 q 633 -65 649 -81 q 665 -98 674 -134 q 682 -171 682 -232 l 682 -232 q 682 -249 682 -263 q 681 -278 680 -290 l 680 -290 l 676 -316 q 672 -359 655 -399 q 638 -439 607 -465 q 575 -491 525 -491 l 525 -491 q 502 -491 481 -484 q 460 -478 442 -461 l 442 -461 q 428 -448 419 -428 q 410 -408 407 -380 q 403 -353 403 -315 l 403 -315 l 403 -209 l 347 -219 l 340 -463 q 358 -494 383 -518 q 407 -542 441 -555 q 475 -568 523 -568 z"},"ൺ":{"ha":1188,"x_min":37,"x_max":1153,"o":"m 288 -568 l 288 -568 q 351 -568 391 -544 q 430 -520 463 -474 l 463 -474 l 436 -477 q 462 -525 497 -546 q 532 -568 581 -568 l 581 -568 q 632 -568 666 -543 q 699 -519 722 -473 l 722 -473 l 719 -448 l 751 -333 l 751 0 l 658 0 l 658 -333 q 658 -389 654 -416 q 650 -444 638 -462 l 638 -462 q 629 -475 615 -483 q 600 -491 576 -491 l 576 -491 q 554 -491 541 -482 q 527 -474 517 -462 l 517 -462 q 502 -440 499 -411 q 495 -383 495 -330 l 495 -330 l 495 0 l 402 0 l 402 -317 q 402 -375 395 -407 q 388 -439 370 -459 l 370 -459 q 358 -473 339 -482 q 319 -491 289 -491 l 289 -491 q 240 -491 203 -461 q 166 -432 145 -377 q 124 -323 124 -248 l 124 -248 l 124 -225 q 124 -164 133 -128 q 142 -93 158 -78 q 173 -64 193 -64 l 193 -64 q 209 -64 221 -74 q 232 -84 238 -104 q 244 -125 244 -160 l 244 -160 q 244 -213 229 -235 q 214 -257 184 -257 l 184 -257 q 158 -257 137 -242 q 115 -228 91 -197 l 91 -197 l 72 -261 q 94 -287 130 -309 q 165 -331 206 -331 l 206 -331 q 248 -331 277 -312 q 305 -294 320 -256 q 335 -219 335 -164 l 335 -164 q 335 -105 319 -66 q 302 -27 271 -7 q 240 12 195 12 l 195 12 q 152 12 117 -12 q 81 -37 59 -92 q 37 -148 37 -241 l 37 -241 q 37 -353 70 -425 q 103 -498 160 -533 q 216 -568 288 -568 z m 991 12 l 991 12 q 939 12 903 -13 q 866 -39 848 -88 q 830 -137 830 -209 l 830 -209 q 830 -271 844 -323 q 858 -375 884 -420 q 910 -466 942 -508 l 942 -508 l 956 -535 q 983 -571 999 -600 q 1014 -630 1014 -656 l 1014 -656 q 1014 -682 1000 -698 q 985 -714 955 -714 l 955 -714 q 943 -714 927 -711 q 910 -709 901 -705 l 901 -705 l 884 -781 q 900 -787 926 -790 q 952 -794 978 -794 l 978 -794 q 1030 -794 1058 -774 q 1085 -755 1096 -727 q 1107 -699 1107 -672 l 1107 -672 q 1107 -628 1087 -584 q 1066 -541 1029 -490 l 1029 -490 l 1012 -470 q 986 -432 966 -390 q 945 -349 935 -304 q 924 -259 924 -207 l 924 -207 q 924 -154 932 -122 q 940 -91 955 -77 q 970 -63 989 -63 l 989 -63 q 1023 -63 1040 -94 q 1057 -125 1057 -209 l 1057 -209 q 1057 -254 1048 -304 q 1038 -355 1018 -399 q 998 -443 965 -467 l 965 -467 q 948 -478 928 -486 q 907 -494 878 -494 l 878 -494 q 849 -494 827 -485 q 805 -477 789 -461 l 789 -461 q 775 -446 767 -426 q 759 -407 755 -379 q 751 -352 751 -313 l 751 -313 l 751 -44 l 665 -44 l 665 -247 l 688 -455 q 706 -489 730 -514 q 754 -540 790 -554 q 825 -568 876 -568 l 876 -568 q 912 -568 942 -560 q 972 -553 996 -540 l 996 -540 q 999 -539 1002 -537 q 1005 -535 1008 -532 l 1008 -532 q 1056 -503 1088 -455 q 1120 -407 1137 -345 q 1153 -284 1153 -216 l 1153 -216 q 1153 -98 1112 -43 q 1070 12 991 12 z"},"ൻ":{"ha":841,"x_min":35,"x_max":805,"o":"m 230 -568 l 230 -568 q 264 -568 289 -557 q 313 -546 332 -527 q 351 -509 367 -485 l 367 -485 l 403 -255 l 403 0 l 310 0 l 310 -336 q 310 -395 304 -424 q 297 -453 282 -471 l 282 -471 q 273 -480 262 -485 q 250 -491 234 -491 l 234 -491 q 207 -491 184 -469 q 160 -447 146 -404 q 131 -361 131 -298 l 131 -298 q 131 -241 142 -195 q 153 -149 172 -112 q 190 -75 213 -45 l 213 -45 l 139 10 q 110 -29 87 -74 q 63 -119 49 -175 q 35 -231 35 -302 l 35 -302 q 35 -381 58 -441 q 81 -501 125 -534 q 168 -568 230 -568 z m 644 12 l 644 12 q 591 12 555 -13 q 519 -39 501 -88 q 482 -137 482 -209 l 482 -209 q 482 -271 497 -323 q 511 -375 537 -420 q 562 -466 594 -508 l 594 -508 l 608 -535 q 635 -571 651 -600 q 666 -630 666 -656 l 666 -656 q 666 -682 652 -698 q 637 -714 608 -714 l 608 -714 q 595 -714 581 -711 q 566 -709 553 -705 l 553 -705 l 536 -781 q 553 -787 579 -790 q 604 -794 630 -794 l 630 -794 q 682 -794 710 -774 q 738 -755 749 -727 q 759 -699 759 -672 l 759 -672 q 759 -628 739 -584 q 719 -541 681 -490 l 681 -490 l 665 -470 q 638 -432 618 -390 q 598 -349 587 -304 q 576 -259 576 -207 l 576 -207 q 576 -154 584 -122 q 592 -91 607 -77 q 622 -63 642 -63 l 642 -63 q 676 -63 693 -94 q 709 -125 709 -209 l 709 -209 q 709 -254 700 -304 q 691 -355 671 -399 q 651 -443 617 -467 l 617 -467 q 601 -478 580 -486 q 559 -494 531 -494 l 531 -494 q 501 -494 479 -485 q 457 -477 441 -461 l 441 -461 q 428 -446 420 -426 q 411 -407 407 -379 q 403 -352 403 -313 l 403 -313 l 403 -44 l 317 -44 l 317 -247 l 340 -455 q 359 -489 383 -514 q 407 -540 443 -554 q 478 -568 529 -568 l 529 -568 q 564 -568 595 -560 q 625 -553 648 -540 l 648 -540 q 652 -539 655 -537 q 658 -535 661 -532 l 661 -532 q 709 -503 741 -455 q 773 -407 789 -345 q 805 -284 805 -216 l 805 -216 q 805 -98 764 -43 q 722 12 644 12 z"},"ർ":{"ha":590,"x_min":35,"x_max":555,"o":"m 394 12 l 394 12 q 341 12 305 -13 q 269 -39 251 -88 q 232 -137 232 -209 l 232 -209 q 232 -271 247 -323 q 261 -375 287 -420 q 312 -466 344 -508 l 344 -508 l 358 -535 q 385 -571 401 -600 q 416 -630 416 -656 l 416 -656 q 416 -682 402 -698 q 387 -714 358 -714 l 358 -714 q 345 -714 329 -711 q 313 -709 303 -705 l 303 -705 l 286 -781 q 302 -787 328 -790 q 354 -794 380 -794 l 380 -794 q 432 -794 460 -774 q 487 -755 498 -727 q 509 -699 509 -672 l 509 -672 q 509 -628 489 -584 q 469 -541 431 -490 l 431 -490 l 414 -470 q 388 -432 368 -390 q 348 -349 337 -304 q 326 -259 326 -207 l 326 -207 q 326 -154 334 -122 q 342 -91 357 -77 q 372 -63 392 -63 l 392 -63 q 426 -63 443 -94 q 459 -125 459 -209 l 459 -209 q 459 -242 454 -279 q 449 -317 438 -354 q 427 -391 410 -421 q 392 -451 367 -468 l 367 -468 q 351 -480 333 -486 q 315 -493 288 -493 l 288 -493 q 236 -493 201 -466 q 166 -439 149 -392 q 131 -345 131 -284 l 131 -284 q 131 -229 142 -186 q 152 -144 171 -110 q 190 -76 216 -48 l 216 -48 l 149 10 q 118 -22 92 -65 q 66 -108 51 -164 q 35 -220 35 -290 l 35 -290 q 35 -348 51 -398 q 67 -449 99 -487 q 130 -525 177 -546 q 224 -568 286 -568 l 286 -568 q 319 -568 347 -561 q 374 -555 398 -542 l 398 -542 q 402 -541 405 -538 q 407 -536 410 -534 l 410 -534 q 458 -505 490 -456 q 522 -407 539 -345 q 555 -284 555 -216 l 555 -216 q 555 -98 514 -43 q 472 12 394 12 z"},"ൽ":{"ha":965,"x_min":35,"x_max":929,"o":"m 586 -568 l 586 -568 q 631 -568 666 -562 q 701 -556 730 -545 q 759 -534 784 -518 l 784 -518 l 799 -510 q 866 -463 898 -384 q 929 -306 929 -214 l 929 -214 q 929 -98 888 -43 q 846 12 768 12 l 768 12 q 715 12 679 -13 q 643 -39 625 -88 q 606 -137 606 -209 l 606 -209 q 606 -271 621 -323 q 635 -375 661 -420 q 686 -466 718 -508 l 718 -508 l 727 -528 q 758 -567 774 -598 q 790 -630 790 -656 l 790 -656 q 790 -682 776 -698 q 761 -714 732 -714 l 732 -714 q 720 -714 704 -711 q 687 -709 677 -705 l 677 -705 l 660 -781 q 676 -787 702 -790 q 728 -794 754 -794 l 754 -794 q 806 -794 834 -774 q 862 -755 873 -727 q 883 -699 883 -672 l 883 -672 q 883 -628 863 -584 q 843 -541 805 -490 l 805 -490 l 788 -470 q 762 -432 742 -390 q 722 -349 711 -304 q 700 -259 700 -207 l 700 -207 q 700 -154 708 -122 q 716 -91 731 -77 q 746 -63 766 -63 l 766 -63 q 800 -63 817 -94 q 833 -125 833 -208 l 833 -208 q 833 -256 824 -303 q 814 -350 794 -390 q 773 -430 739 -454 l 739 -454 l 713 -464 q 685 -479 653 -485 q 621 -491 586 -491 l 586 -491 q 549 -491 516 -485 q 482 -479 456 -464 l 456 -464 l 436 -459 q 387 -425 360 -359 q 333 -294 333 -207 l 333 -207 q 333 -150 343 -119 q 353 -88 369 -76 q 384 -64 403 -64 l 403 -64 q 423 -64 439 -76 q 455 -88 464 -120 q 473 -153 473 -213 l 473 -213 q 473 -273 460 -324 q 447 -375 424 -412 q 401 -449 370 -469 l 370 -469 l 355 -478 q 340 -487 324 -490 q 308 -494 292 -494 l 292 -494 q 240 -494 204 -467 q 168 -441 150 -394 q 132 -347 132 -284 l 132 -284 q 132 -229 142 -186 q 152 -143 172 -109 q 191 -76 216 -49 l 216 -49 l 149 9 q 117 -23 92 -65 q 66 -107 51 -162 q 35 -218 35 -290 l 35 -290 q 35 -344 49 -394 q 63 -445 93 -484 q 122 -523 169 -545 q 216 -568 282 -568 l 282 -568 q 322 -568 355 -558 q 388 -549 417 -526 l 417 -526 l 435 -511 q 497 -466 533 -394 q 568 -322 568 -215 l 568 -215 q 568 -140 549 -89 q 529 -39 492 -13 q 455 12 401 12 l 401 12 q 349 12 313 -14 q 277 -41 258 -91 q 239 -142 239 -212 l 239 -212 q 239 -272 252 -323 q 264 -375 293 -418 q 321 -461 368 -495 l 368 -495 l 385 -514 q 418 -539 468 -553 q 518 -568 586 -568 z"},"ൾ":{"ha":828,"x_min":35,"x_max":793,"o":"m 619 -794 l 619 -794 q 670 -794 698 -774 q 725 -755 736 -727 q 747 -699 747 -672 l 747 -672 q 747 -628 727 -584 q 706 -541 669 -490 l 669 -490 l 652 -470 q 626 -432 606 -390 q 585 -349 574 -304 q 563 -259 563 -207 l 563 -207 q 563 -154 571 -122 q 579 -90 595 -76 q 610 -63 630 -63 l 630 -63 q 663 -63 680 -94 q 697 -125 697 -209 l 697 -209 q 697 -242 692 -279 q 687 -317 676 -354 q 665 -391 648 -420 q 631 -450 605 -468 l 605 -468 q 588 -480 571 -486 q 554 -493 528 -493 l 528 -493 q 505 -493 487 -487 q 468 -482 453 -472 l 453 -472 q 417 -448 408 -402 q 398 -356 398 -289 l 398 -289 l 398 -198 q 398 -162 394 -132 q 390 -102 381 -78 q 371 -54 352 -35 l 352 -35 q 330 -12 300 0 q 270 12 227 12 l 227 12 q 167 12 124 -19 q 81 -50 58 -108 q 35 -167 35 -251 l 35 -251 q 35 -325 50 -383 q 64 -441 88 -486 q 111 -531 140 -569 l 140 -569 l 214 -514 q 191 -484 173 -446 q 154 -409 143 -362 q 131 -315 131 -255 l 131 -255 q 131 -194 143 -151 q 155 -109 177 -87 q 199 -66 227 -66 l 227 -66 q 247 -66 261 -72 q 274 -79 283 -92 l 283 -92 q 295 -110 300 -140 q 304 -170 304 -231 l 304 -231 l 304 -309 q 304 -385 321 -439 q 337 -493 381 -527 l 381 -527 q 407 -546 441 -557 q 475 -568 524 -568 l 524 -568 q 559 -568 586 -561 q 612 -555 635 -542 l 635 -542 l 648 -534 q 696 -505 728 -456 q 760 -408 777 -346 q 793 -284 793 -216 l 793 -216 q 793 -98 752 -43 q 710 12 631 12 l 631 12 q 579 12 543 -13 q 506 -39 488 -88 q 470 -137 470 -209 l 470 -209 q 470 -271 484 -323 q 498 -375 524 -420 q 550 -466 582 -508 l 582 -508 l 596 -535 q 623 -571 639 -600 q 654 -630 654 -656 l 654 -656 q 654 -682 639 -698 q 624 -714 595 -714 l 595 -714 q 583 -714 567 -711 q 550 -709 541 -705 l 541 -705 l 524 -781 q 540 -787 567 -790 q 593 -794 619 -794 z"},"ൿ":{"ha":958,"x_min":29,"x_max":928,"o":"m 413 -568 l 413 -568 q 478 -568 519 -534 q 560 -500 580 -435 q 600 -371 600 -280 l 600 -280 q 600 -179 578 -114 q 555 -49 513 -18 q 471 12 412 12 l 412 12 q 362 12 329 -8 q 295 -28 273 -61 l 273 -61 q 246 -102 235 -160 q 224 -218 224 -281 l 224 -281 q 224 -427 274 -497 q 323 -568 413 -568 z m 413 -492 l 413 -492 q 364 -492 340 -442 q 316 -392 316 -279 l 316 -279 q 316 -202 327 -154 q 337 -107 359 -85 q 380 -64 412 -64 l 412 -64 q 443 -64 465 -85 q 486 -106 497 -153 q 508 -201 508 -279 l 508 -279 q 508 -356 497 -403 q 486 -450 465 -471 q 444 -492 413 -492 z m 181 12 l 181 12 q 109 12 69 -32 q 29 -77 29 -154 l 29 -154 q 29 -208 51 -241 q 72 -275 107 -295 l 107 -295 q 128 -308 154 -316 q 179 -324 216 -327 q 252 -331 307 -331 l 307 -331 l 683 -331 q 749 -331 791 -322 q 833 -314 865 -289 l 865 -289 q 893 -269 911 -235 q 928 -202 928 -149 l 928 -149 q 928 -74 893 -31 q 857 12 785 12 l 785 12 q 713 12 677 -34 q 640 -80 640 -153 l 640 -153 q 640 -185 647 -217 q 654 -249 666 -285 l 666 -285 q 668 -290 669 -296 q 670 -302 672 -308 l 672 -308 q 683 -338 697 -372 q 711 -406 729 -447 l 729 -447 q 749 -495 763 -531 q 776 -568 783 -597 q 790 -627 790 -652 l 790 -652 q 790 -681 775 -697 q 760 -714 731 -714 l 731 -714 q 720 -714 704 -711 q 687 -709 677 -705 l 677 -705 l 660 -781 q 677 -787 703 -790 q 729 -794 755 -794 l 755 -794 q 807 -794 835 -774 q 862 -755 873 -727 q 883 -700 883 -674 l 883 -674 q 883 -650 880 -626 q 876 -602 867 -574 q 858 -546 845 -510 q 832 -474 812 -426 l 812 -426 q 796 -388 784 -358 q 772 -328 763 -304 l 763 -304 q 761 -296 758 -289 q 755 -282 753 -276 l 753 -276 q 740 -240 734 -211 q 728 -183 728 -150 l 728 -150 q 728 -119 737 -100 q 745 -82 757 -74 q 769 -66 784 -66 l 784 -66 q 810 -66 824 -88 q 837 -110 837 -146 l 837 -146 q 837 -174 830 -195 q 822 -216 806 -228 l 806 -228 q 787 -244 759 -249 q 731 -255 689 -255 l 689 -255 l 281 -255 q 233 -255 204 -250 q 175 -245 154 -230 l 154 -230 q 139 -218 129 -200 q 119 -182 119 -154 l 119 -154 q 119 -126 128 -106 q 136 -86 153 -75 q 170 -65 194 -65 l 194 -65 q 221 -65 241 -74 q 261 -84 285 -103 l 285 -103 l 328 -40 q 301 -19 278 -7 q 254 4 231 8 q 207 12 181 12 z"},"!":{"ha":254,"x_min":66,"x_max":188,"o":"m 163 -212 l 90 -212 l 69 -714 l 183 -714 l 163 -212 z m 127 12 l 127 12 q 98 12 82 -5 q 66 -23 66 -57 l 66 -57 q 66 -92 82 -109 q 97 -126 127 -126 l 127 -126 q 155 -126 172 -109 q 188 -93 188 -57 l 188 -57 q 188 -22 171 -5 q 153 12 127 12 z"},"\"":{"ha":404,"x_min":61,"x_max":343,"o":"m 149 -542 l 78 -542 l 61 -800 l 165 -800 l 149 -542 z m 327 -542 l 256 -542 l 239 -800 l 343 -800 l 327 -542 z"},"#":{"ha":507,"x_min":26,"x_max":481,"o":"m 135 0 l 64 0 l 104 -210 l 26 -210 l 26 -282 l 117 -282 l 147 -437 l 49 -437 l 49 -510 l 160 -510 l 200 -714 l 271 -714 l 232 -510 l 333 -510 l 373 -714 l 444 -714 l 404 -510 l 481 -510 l 481 -437 l 391 -437 l 361 -282 l 458 -282 l 458 -210 l 347 -210 l 307 0 l 235 0 l 275 -210 l 175 -210 l 135 0 z m 218 -437 l 189 -282 l 290 -282 l 319 -437 l 218 -437 z"},"%":{"ha":699,"x_min":40,"x_max":659,"o":"m 258 0 l 182 0 l 440 -714 l 516 -714 l 258 0 z m 162 -276 l 162 -276 q 100 -276 70 -335 q 40 -394 40 -499 l 40 -499 q 40 -607 71 -665 q 101 -724 165 -724 l 165 -724 q 228 -724 258 -665 q 288 -607 288 -501 l 288 -501 q 288 -393 258 -334 q 227 -276 162 -276 z m 164 -346 l 164 -346 q 188 -346 199 -383 q 209 -421 209 -500 l 209 -500 q 209 -580 199 -616 q 188 -653 164 -653 l 164 -653 q 140 -653 130 -616 q 119 -579 119 -500 l 119 -500 q 119 -420 130 -383 q 141 -346 164 -346 z m 534 9 l 534 9 q 471 9 442 -49 q 412 -108 412 -214 l 412 -214 q 412 -322 442 -380 q 472 -439 537 -439 l 537 -439 q 599 -439 629 -380 q 659 -322 659 -216 l 659 -216 q 659 -108 629 -49 q 598 9 534 9 z m 536 -61 l 536 -61 q 560 -61 571 -98 q 581 -136 581 -215 l 581 -215 q 581 -295 571 -331 q 560 -368 537 -368 l 537 -368 q 513 -368 503 -331 q 492 -294 492 -215 l 492 -215 q 492 -136 503 -98 q 514 -61 536 -61 z"},"'":{"ha":226,"x_min":61,"x_max":165,"o":"m 149 -542 l 78 -542 l 61 -800 l 165 -800 l 149 -542 z"},"(":{"ha":316,"x_min":46,"x_max":287,"o":"m 46 -275 l 46 -275 q 46 -371 64 -466 q 81 -562 115 -648 q 148 -735 195 -800 l 195 -800 l 287 -800 q 240 -728 207 -643 q 173 -558 156 -465 q 139 -372 139 -276 l 139 -276 q 139 -180 156 -89 q 173 2 206 86 q 238 169 287 244 l 287 244 l 195 244 q 145 174 112 87 q 79 0 63 -93 q 46 -187 46 -275 z"},")":{"ha":316,"x_min":29,"x_max":270,"o":"m 270 -281 l 270 -281 q 270 -186 253 -90 q 235 6 201 92 q 167 178 120 244 l 120 244 l 29 244 q 77 171 110 87 q 143 2 160 -91 q 177 -185 177 -281 l 177 -281 q 177 -378 160 -468 q 143 -559 111 -642 q 78 -726 29 -800 l 29 -800 l 120 -800 q 171 -730 204 -643 q 237 -557 254 -464 q 270 -371 270 -281 z"},"*":{"ha":514,"x_min":36,"x_max":478,"o":"m 208 -800 l 304 -800 l 288 -625 l 463 -674 l 478 -580 l 308 -567 l 417 -423 l 333 -375 l 254 -535 l 184 -375 l 97 -423 l 204 -567 l 36 -581 l 52 -674 l 224 -626 l 208 -800 z"},"+":{"ha":441,"x_min":31,"x_max":409,"o":"m 260 -118 l 180 -118 l 180 -313 l 31 -313 l 31 -392 l 180 -392 l 180 -590 l 260 -590 l 260 -392 l 409 -392 l 409 -313 l 260 -313 l 260 -118 z"},",":{"ha":259,"x_min":43,"x_max":191,"o":"m 86 -114 l 185 -114 l 191 -103 q 182 -59 171 -19 q 159 20 146 58 q 133 95 117 131 l 117 131 l 43 131 q 53 92 62 49 q 70 5 77 -37 q 83 -79 86 -114 l 86 -114 z"},"-":{"ha":309,"x_min":35,"x_max":273,"o":"m 273 -228 l 35 -228 l 35 -312 l 273 -312 l 273 -228 z"},".":{"ha":256,"x_min":67,"x_max":189,"o":"m 128 12 l 128 12 q 100 12 84 -5 q 67 -23 67 -57 l 67 -57 q 67 -91 83 -108 q 99 -126 128 -126 l 128 -126 q 156 -126 173 -109 q 189 -93 189 -57 l 189 -57 q 189 -22 172 -5 q 155 12 128 12 z"},"/":{"ha":392,"x_min":19,"x_max":373,"o":"m 110 244 l 19 244 l 282 -800 l 373 -800 l 110 244 z"},":":{"ha":256,"x_min":68,"x_max":189,"o":"m 128 12 l 128 12 q 99 12 84 -5 q 68 -23 68 -57 l 68 -57 q 68 -91 83 -108 q 98 -126 128 -126 l 128 -126 q 157 -126 173 -109 q 189 -93 189 -57 l 189 -57 q 189 -22 172 -5 q 155 12 128 12 z m 128 -400 l 128 -400 q 99 -400 84 -417 q 68 -435 68 -469 l 68 -469 q 68 -504 83 -521 q 98 -539 128 -539 l 128 -539 q 157 -539 173 -521 q 189 -504 189 -469 l 189 -469 q 189 -435 172 -417 q 155 -400 128 -400 z"},";":{"ha":257,"x_min":43,"x_max":192,"o":"m 87 -114 l 185 -114 l 192 -103 q 183 -59 172 -19 q 160 20 147 58 q 133 95 118 131 l 118 131 l 43 131 q 53 92 62 49 q 71 5 77 -37 q 83 -79 87 -114 l 87 -114 z m 127 -400 l 127 -400 q 98 -400 83 -417 q 67 -435 67 -469 l 67 -469 q 67 -504 82 -521 q 97 -539 127 -539 l 127 -539 q 157 -539 173 -521 q 188 -504 188 -469 l 188 -469 q 188 -435 171 -417 q 154 -400 127 -400 z"},"<":{"ha":441,"x_min":30,"x_max":411,"o":"m 411 -219 l 411 -129 l 30 -329 l 30 -384 l 411 -583 l 411 -494 l 138 -356 l 411 -219 z"},"=":{"ha":441,"x_min":30,"x_max":410,"o":"m 410 -206 l 30 -206 l 30 -285 l 410 -285 l 410 -206 z m 410 -419 l 30 -419 l 30 -498 l 410 -498 l 410 -419 z"},">":{"ha":441,"x_min":30,"x_max":411,"o":"m 411 -329 l 30 -129 l 30 -219 l 302 -356 l 30 -493 l 30 -583 l 411 -385 l 411 -329 z"},"?":{"ha":354,"x_min":32,"x_max":325,"o":"m 169 -724 l 169 -724 q 246 -724 286 -679 q 325 -635 325 -562 l 325 -562 q 325 -519 317 -487 q 308 -456 291 -427 q 273 -399 244 -360 l 244 -360 q 226 -334 215 -314 q 204 -295 200 -275 q 195 -256 195 -234 l 195 -234 l 195 -212 l 113 -212 l 113 -242 q 113 -274 119 -301 q 125 -329 138 -353 q 151 -377 172 -403 l 172 -403 q 194 -432 208 -455 q 221 -478 227 -501 q 232 -524 232 -551 l 232 -551 q 232 -595 211 -617 q 190 -639 153 -639 l 153 -639 q 130 -639 109 -632 q 87 -625 67 -614 l 67 -614 l 32 -688 q 65 -705 97 -714 q 129 -724 169 -724 z m 156 12 l 156 12 q 127 12 111 -5 q 95 -23 95 -57 l 95 -57 q 95 -91 111 -108 q 126 -126 156 -126 l 156 -126 q 184 -126 200 -109 q 216 -93 216 -57 l 216 -57 q 216 -22 200 -5 q 183 12 156 12 z"},"[":{"ha":328,"x_min":73,"x_max":290,"o":"m 290 244 l 73 244 l 73 -800 l 290 -800 l 290 -722 l 164 -722 l 164 166 l 290 166 l 290 244 z"},"\\":{"ha":392,"x_min":19,"x_max":373,"o":"m 373 244 l 282 244 l 19 -800 l 110 -800 l 373 244 z"},"]":{"ha":327,"x_min":38,"x_max":254,"o":"m 254 244 l 38 244 l 38 166 l 163 166 l 163 -722 l 38 -722 l 38 -800 l 254 -800 l 254 244 z"},"^":{"ha":457,"x_min":17,"x_max":440,"o":"m 106 -342 l 17 -342 l 199 -715 l 254 -715 l 440 -342 l 349 -342 l 226 -596 l 106 -342 z"},"_":{"ha":359,"x_min":-2,"x_max":361,"o":"m 361 155 l -2 155 l -2 90 l 361 90 l 361 155 z"},"{":{"ha":367,"x_min":28,"x_max":329,"o":"m 329 167 l 329 244 q 267 243 228 225 q 188 207 169 172 q 149 136 149 85 l 149 85 l 149 -149 q 149 -198 119 -218 q 88 -239 28 -239 l 28 -239 l 28 -318 q 88 -319 119 -339 q 149 -359 149 -407 l 149 -407 l 149 -643 q 149 -693 169 -728 q 188 -764 228 -782 q 267 -800 329 -800 l 329 -800 l 329 -723 q 282 -722 262 -700 q 241 -678 241 -632 l 241 -632 l 241 -396 q 241 -348 216 -319 q 191 -291 137 -282 l 137 -282 l 137 -276 q 191 -267 216 -238 q 241 -209 241 -161 l 241 -161 l 241 77 q 241 107 250 127 q 259 147 279 157 q 298 166 329 167 l 329 167 z"},"|":{"ha":551,"x_min":233,"x_max":318,"o":"m 318 244 l 233 244 l 233 -800 l 318 -800 l 318 244 z"},"}":{"ha":367,"x_min":38,"x_max":338,"o":"m 38 -723 l 38 -800 q 100 -800 140 -781 q 179 -763 198 -727 q 217 -692 217 -641 l 217 -641 l 217 -408 q 217 -359 248 -338 q 279 -318 338 -318 l 338 -318 l 338 -239 q 279 -239 248 -218 q 217 -198 217 -150 l 217 -150 l 217 87 q 217 137 197 173 q 176 208 137 226 q 97 244 38 244 l 38 244 l 38 167 q 85 165 105 144 q 125 122 125 76 l 125 76 l 125 -161 q 125 -209 151 -237 q 177 -266 229 -276 l 229 -276 l 229 -282 q 176 -291 151 -319 q 125 -348 125 -396 l 125 -396 l 125 -633 q 125 -664 116 -683 q 107 -703 88 -712 q 69 -722 38 -723 l 38 -723 z"},"~":{"ha":441,"x_min":30,"x_max":413,"o":"m 210 -315 l 210 -315 q 186 -328 165 -335 q 144 -342 126 -342 l 126 -342 q 102 -342 78 -326 q 53 -311 30 -283 l 30 -283 l 30 -370 q 51 -395 76 -408 q 100 -421 130 -421 l 130 -421 q 158 -421 182 -413 q 206 -405 232 -391 l 232 -391 q 258 -378 278 -371 q 298 -364 317 -364 l 317 -364 q 341 -364 367 -380 q 392 -397 413 -422 l 413 -422 l 413 -335 q 393 -311 368 -298 q 343 -285 313 -285 l 313 -285 q 283 -285 261 -293 q 238 -301 210 -315 z"}," ":{"ha":221,"x_min":0,"x_max":0,"o":""},"­":{"ha":309,"x_min":35,"x_max":273,"o":"m 273 -228 l 35 -228 l 35 -312 l 273 -312 l 273 -228 z"},"–":{"ha":500,"x_min":38,"x_max":462,"o":"m 462 -227 l 38 -227 l 38 -310 l 462 -310 l 462 -227 z"},"—":{"ha":1000,"x_min":38,"x_max":962,"o":"m 962 -227 l 38 -227 l 38 -310 l 962 -310 l 962 -227 z"},"‘":{"ha":228,"x_min":40,"x_max":189,"o":"m 145 -554 l 46 -554 l 40 -565 q 50 -610 61 -649 q 72 -689 86 -726 q 100 -764 115 -800 l 115 -800 l 189 -800 q 179 -760 170 -716 q 161 -672 155 -630 q 149 -589 145 -554 l 145 -554 z"},"’":{"ha":228,"x_min":40,"x_max":189,"o":"m 84 -800 l 182 -800 l 189 -789 q 180 -746 169 -706 q 157 -666 144 -629 q 131 -592 115 -554 l 115 -554 l 40 -554 q 48 -583 55 -615 q 61 -648 67 -681 q 73 -714 78 -744 q 82 -775 84 -800 l 84 -800 z"},"“":{"ha":406,"x_min":40,"x_max":367,"o":"m 323 -554 l 225 -554 l 219 -565 q 228 -610 239 -649 q 250 -689 264 -726 q 278 -764 293 -800 l 293 -800 l 367 -800 q 357 -759 349 -716 q 340 -674 334 -633 q 327 -592 323 -554 l 323 -554 z m 145 -554 l 46 -554 l 40 -565 q 50 -610 61 -649 q 72 -689 86 -726 q 100 -764 115 -800 l 115 -800 l 189 -800 q 179 -760 170 -716 q 161 -673 155 -631 q 149 -590 145 -554 l 145 -554 z"},"”":{"ha":406,"x_min":40,"x_max":367,"o":"m 263 -800 l 360 -800 l 367 -789 q 358 -746 347 -706 q 335 -666 322 -629 q 309 -592 293 -554 l 293 -554 l 218 -554 q 230 -598 238 -640 q 246 -682 253 -722 q 259 -762 263 -800 l 263 -800 z m 84 -800 l 182 -800 l 189 -789 q 180 -746 169 -706 q 157 -666 144 -629 q 131 -592 115 -554 l 115 -554 l 40 -554 q 48 -583 55 -615 q 61 -648 67 -681 q 73 -714 78 -744 q 82 -775 84 -800 l 84 -800 z"},"…":{"ha":729,"x_min":68,"x_max":662,"o":"m 128 12 l 128 12 q 100 12 84 -5 q 68 -23 68 -57 l 68 -57 q 68 -91 84 -108 q 99 -126 128 -126 l 128 -126 q 157 -126 173 -109 q 189 -93 189 -57 l 189 -57 q 189 -22 173 -5 q 156 12 128 12 z m 364 12 l 364 12 q 336 12 320 -5 q 304 -23 304 -57 l 304 -57 q 304 -91 320 -108 q 335 -126 364 -126 l 364 -126 q 393 -126 409 -109 q 425 -93 425 -57 l 425 -57 q 425 -22 409 -5 q 392 12 364 12 z m 601 12 l 601 12 q 573 12 557 -5 q 541 -23 541 -57 l 541 -57 q 541 -91 557 -108 q 572 -126 601 -126 l 601 -126 q 630 -126 646 -109 q 662 -93 662 -57 l 662 -57 q 662 -22 646 -5 q 629 12 601 12 z"},"×":{"ha":441,"x_min":32,"x_max":408,"o":"m 219 -408 l 353 -541 l 408 -488 l 274 -353 l 405 -220 l 352 -166 l 219 -298 l 86 -166 l 33 -220 l 164 -353 l 32 -485 l 86 -540 l 219 -408 z"},"÷":{"ha":441,"x_min":31,"x_max":409,"o":"m 409 -314 l 31 -314 l 31 -392 l 409 -392 l 409 -314 z m 222 -108 l 222 -108 q 195 -108 181 -124 q 166 -141 166 -174 l 166 -174 q 166 -207 181 -223 q 195 -240 222 -240 l 222 -240 q 248 -240 262 -223 q 276 -207 276 -174 l 276 -174 q 276 -141 261 -124 q 246 -108 222 -108 z m 222 -465 l 222 -465 q 195 -465 181 -481 q 166 -498 166 -531 l 166 -531 q 166 -564 181 -580 q 195 -597 222 -597 l 222 -597 q 248 -597 262 -580 q 276 -564 276 -531 l 276 -531 q 276 -498 261 -481 q 246 -465 222 -465 z"},"−":{"ha":441,"x_min":31,"x_max":410,"o":"m 410 -314 l 31 -314 l 31 -392 l 410 -392 l 410 -314 z"},"₹":{"ha":441,"x_min":53,"x_max":392,"o":"m 305 0 l 196 0 l 53 -276 l 65 -354 l 80 -354 q 124 -354 143 -364 q 162 -374 173 -392 l 173 -392 q 185 -411 188 -437 q 191 -463 191 -494 l 191 -494 q 191 -544 186 -568 q 180 -592 164 -611 l 164 -611 q 152 -624 134 -631 q 115 -638 79 -638 l 79 -638 l 53 -638 l 53 -714 l 392 -714 l 392 -638 l 234 -638 q 256 -622 270 -589 q 283 -557 283 -495 l 283 -495 q 283 -431 268 -387 q 252 -343 218 -316 q 184 -290 131 -279 l 131 -279 l 144 -291 l 305 0 z m 392 -462 l 53 -462 l 53 -539 l 392 -539 l 392 -462 z"},"꠰":{"ha":220,"x_min":64,"x_max":157,"o":"m 64 0 l 64 -556 l 157 -556 l 157 0 l 64 0 z"},"꠱":{"ha":382,"x_min":64,"x_max":319,"o":"m 64 0 l 64 -556 l 157 -556 l 157 0 l 64 0 z m 226 0 l 226 -556 l 319 -556 l 319 0 l 226 0 z"},"꠲":{"ha":544,"x_min":64,"x_max":481,"o":"m 64 0 l 64 -556 l 157 -556 l 157 0 l 64 0 z m 226 0 l 226 -556 l 319 -556 l 319 0 l 226 0 z m 388 0 l 388 -556 l 481 -556 l 481 0 l 388 0 z"},"॑":{"ha":0,"x_min":-316,"x_max":-242,"o":"m -316 -653 l -316 -864 l -242 -864 l -242 -653 l -316 -653 z"},"॒":{"ha":0,"x_min":-480,"x_max":-78,"o":"m -78 110 l -78 182 l -480 182 l -480 110 l -78 110 z"},"।":{"ha":292,"x_min":131,"x_max":225,"o":"m 225 49 l 131 49 l 131 -603 l 225 -603 l 225 49 z"},"॥":{"ha":496,"x_min":132,"x_max":429,"o":"m 429 49 l 336 49 l 336 -603 l 429 -603 l 429 49 z m 226 49 l 132 49 l 132 -603 l 226 -603 l 226 49 z"},"᳚":{"ha":0,"x_min":-376,"x_max":-182,"o":"m -376 -653 l -376 -864 l -307 -864 l -307 -653 l -376 -653 z m -251 -653 l -251 -864 l -182 -864 l -182 -653 l -251 -653 z"},"̇":{"ha":0,"x_min":-321,"x_max":-214,"o":"m -321 -701 l -321 -701 q -321 -733 -305 -747 q -290 -762 -267 -762 l -267 -762 q -242 -762 -228 -747 q -214 -733 -214 -701 l -214 -701 q -214 -669 -228 -654 q -243 -640 -267 -640 l -267 -640 q -290 -640 -305 -654 q -321 -669 -321 -701 z"},"̣":{"ha":0,"x_min":-320,"x_max":-214,"o":"m -320 135 l -320 135 q -320 103 -305 89 q -290 74 -267 74 l -267 74 q -242 74 -228 89 q -214 103 -214 135 l -214 135 q -214 166 -228 181 q -243 196 -267 196 l -267 196 q -290 196 -305 181 q -320 166 -320 135 z"},"‐":{"ha":309,"x_min":35,"x_max":273,"o":"m 273 -228 l 35 -228 l 35 -312 l 273 -312 l 273 -228 z"},"​":{"ha":0,"x_min":0,"x_max":0,"o":""},"‌":{"ha":0,"x_min":0,"x_max":0,"o":""},"‍":{"ha":0,"x_min":-161,"x_max":161,"o":"m 29 244 l -29 244 l -29 -565 l -121 -474 l -161 -514 l -40 -631 l -161 -748 l -121 -788 l 0 -669 l 121 -788 l 161 -748 l 40 -631 l 161 -514 l 121 -474 l 29 -565 l 29 244 z"},"◌":{"ha":562,"x_min":57,"x_max":504,"o":"m 89 -231 l 89 -231 q 57 -231 57 -264 l 57 -264 q 57 -295 89 -295 l 89 -295 q 121 -295 121 -264 l 121 -264 q 121 -231 89 -231 z m 138 -95 l 138 -95 q 106 -95 106 -127 l 106 -127 q 106 -158 138 -158 l 138 -158 q 169 -158 169 -127 l 169 -127 q 169 -95 138 -95 z m 281 -40 l 281 -40 q 249 -40 249 -72 l 249 -72 q 249 -104 281 -104 l 281 -104 q 312 -104 312 -72 l 312 -72 q 312 -40 281 -40 z m 138 -369 l 138 -369 q 106 -369 106 -401 l 106 -401 q 106 -432 138 -432 l 138 -432 q 169 -432 169 -401 l 169 -401 q 169 -369 138 -369 z m 423 -95 l 423 -95 q 391 -95 391 -127 l 391 -127 q 391 -158 423 -158 l 423 -158 q 455 -158 455 -127 l 455 -127 q 455 -95 423 -95 z m 281 -424 l 281 -424 q 249 -424 249 -456 l 249 -456 q 249 -487 281 -487 l 281 -487 q 312 -487 312 -456 l 312 -456 q 312 -424 281 -424 z m 472 -231 l 472 -231 q 441 -231 441 -264 l 441 -264 q 441 -295 472 -295 l 472 -295 q 504 -295 504 -264 l 504 -264 q 504 -231 472 -231 z m 423 -369 l 423 -369 q 391 -369 391 -401 l 391 -401 q 391 -432 423 -432 l 423 -432 q 455 -432 455 -401 l 455 -401 q 455 -369 423 -369 z"},"«":{"ha":478,"x_min":33,"x_max":444,"o":"m 33 -260 l 33 -274 l 179 -475 l 247 -440 l 142 -267 l 247 -96 l 179 -59 l 33 -260 z m 231 -260 l 231 -274 l 378 -475 l 444 -440 l 340 -267 l 444 -96 l 378 -59 l 231 -260 z"},"»":{"ha":478,"x_min":35,"x_max":446,"o":"m 446 -274 l 446 -260 l 299 -59 l 233 -96 l 337 -267 l 233 -440 l 299 -475 l 446 -274 z m 248 -274 l 248 -260 l 101 -59 l 35 -96 l 138 -267 l 35 -440 l 101 -475 l 248 -274 z"},"̈":{"ha":0,"x_min":-129,"x_max":130,"o":"m -128 -671 l -128 -671 q -128 -700 -114 -713 q -101 -727 -81 -727 l -81 -727 q -60 -727 -46 -713 q -33 -699 -33 -672 l -33 -672 q -33 -645 -46 -630 q -60 -616 -81 -616 l -81 -616 q -101 -616 -114 -630 q -128 -644 -128 -671 z m 34 -671 l 34 -671 q 34 -700 48 -713 q 62 -727 83 -727 l 83 -727 q 104 -727 118 -713 q 131 -699 131 -672 l 131 -672 q 131 -645 118 -630 q 104 -616 82 -616 l 82 -616 q 61 -616 48 -630 q 34 -645 34 -671 z"},"̀":{"ha":0,"x_min":-394,"x_max":-195,"o":"m -394 -766 l -282 -766 q -272 -744 -256 -716 q -241 -688 -225 -662 q -209 -636 -195 -617 l -195 -617 l -195 -606 l -259 -606 q -274 -619 -293 -638 q -312 -657 -331 -679 q -351 -701 -367 -721 q -384 -742 -394 -757 l -394 -757 l -394 -766 z"},"́":{"ha":0,"x_min":-293,"x_max":-95,"o":"m -94 -766 l -94 -757 q -103 -741 -119 -721 q -136 -702 -155 -680 q -174 -659 -194 -640 q -214 -621 -229 -606 l -229 -606 l -293 -606 l -293 -617 q -275 -644 -258 -669 q -242 -695 -229 -719 q -216 -744 -206 -766 l -206 -766 l -94 -766 z"},"̋":{"ha":0,"x_min":-102,"x_max":216,"o":"m 216 -766 l 216 -757 q 209 -741 195 -720 q 180 -700 162 -678 q 143 -657 125 -638 q 107 -620 93 -606 l 93 -606 l 44 -606 l 44 -617 q 60 -642 76 -671 q 91 -700 104 -726 q 116 -752 121 -766 l 121 -766 l 216 -766 z m 70 -766 l 70 -757 q 61 -740 48 -720 q 34 -701 17 -680 q 0 -660 -19 -641 q -38 -622 -57 -606 l -57 -606 l -102 -606 l -102 -617 q -86 -644 -71 -672 q -56 -700 -43 -725 q -31 -751 -25 -766 l -25 -766 l 70 -766 z"},"̄":{"ha":0,"x_min":-126,"x_max":127,"o":"m -126 -688 l 126 -688 l 126 -615 l -126 -615 l -126 -688 z"},"˙":{"ha":187,"x_min":40,"x_max":147,"o":"m 95 -745 l 95 -745 q 122 -745 135 -729 q 147 -713 147 -683 l 147 -683 q 147 -653 134 -637 q 121 -621 95 -621 l 95 -621 q 69 -621 55 -637 q 40 -653 40 -683 l 40 -683 q 40 -714 54 -729 q 68 -745 95 -745 z"},"°":{"ha":365,"x_min":40,"x_max":325,"o":"m 182 -448 l 182 -448 q 141 -448 109 -465 q 77 -482 59 -513 q 40 -544 40 -586 l 40 -586 q 40 -628 59 -659 q 78 -690 110 -706 q 142 -723 182 -723 l 182 -723 q 223 -723 255 -706 q 287 -689 306 -658 q 325 -628 325 -586 l 325 -586 q 325 -544 306 -513 q 287 -482 255 -465 q 223 -448 182 -448 z m 183 -508 l 183 -508 q 216 -508 237 -529 q 258 -550 258 -586 l 258 -586 q 258 -622 238 -643 q 217 -664 183 -664 l 183 -664 q 147 -664 127 -642 q 107 -620 107 -586 l 107 -586 q 107 -549 129 -528 q 151 -508 183 -508 z"},"A":{"ha":472,"x_min":0,"x_max":472,"o":"m 472 0 l 367 0 l 320 -208 l 153 -208 l 106 0 l 0 0 l 173 -714 l 296 -714 l 472 0 z m 302 -299 l 253 -522 q 249 -543 246 -561 q 242 -579 240 -595 q 237 -612 235 -628 l 235 -628 q 233 -613 230 -595 q 227 -577 224 -559 q 220 -541 216 -523 l 216 -523 l 169 -299 l 302 -299 z"},"Á":{"ha":472,"x_min":0,"x_max":472,"o":"m 472 0 l 367 0 l 320 -208 l 153 -208 l 106 0 l 0 0 l 173 -714 l 296 -714 l 472 0 z m 302 -299 l 253 -522 q 249 -543 246 -561 q 242 -579 240 -595 q 237 -612 235 -628 l 235 -628 q 233 -613 230 -595 q 227 -577 224 -559 q 220 -541 216 -523 l 216 -523 l 169 -299 l 302 -299 z m 373 -940 l 373 -931 q 364 -915 348 -895 q 331 -876 312 -854 q 293 -833 273 -814 q 253 -795 238 -780 l 238 -780 l 174 -780 l 174 -791 q 192 -818 209 -843 q 225 -869 238 -893 q 251 -918 261 -940 l 261 -940 l 373 -940 z"},"Ă":{"ha":472,"x_min":0,"x_max":472,"o":"m 472 0 l 367 0 l 320 -208 l 153 -208 l 106 0 l 0 0 l 173 -714 l 296 -714 l 472 0 z m 302 -299 l 253 -522 q 249 -543 246 -561 q 242 -579 240 -595 q 237 -612 235 -628 l 235 -628 q 233 -613 230 -595 q 227 -577 224 -559 q 220 -541 216 -523 l 216 -523 l 169 -299 l 302 -299 z m 309 -924 l 368 -924 q 368 -881 350 -848 q 332 -815 302 -798 q 272 -781 234 -781 l 234 -781 q 177 -781 142 -817 q 106 -853 104 -924 l 104 -924 l 164 -924 q 166 -900 175 -884 q 184 -869 200 -861 q 216 -853 236 -853 l 236 -853 q 256 -853 272 -860 q 288 -868 298 -884 q 307 -900 309 -924 l 309 -924 z"},"Â":{"ha":472,"x_min":0,"x_max":472,"o":"m 472 0 l 367 0 l 320 -208 l 153 -208 l 106 0 l 0 0 l 173 -714 l 296 -714 l 472 0 z m 302 -299 l 253 -522 q 249 -543 246 -561 q 242 -579 240 -595 q 237 -612 235 -628 l 235 -628 q 233 -613 230 -595 q 227 -577 224 -559 q 220 -541 216 -523 l 216 -523 l 169 -299 l 302 -299 z m 187 -940 l 283 -940 q 294 -918 309 -892 q 323 -866 341 -840 q 359 -814 376 -791 l 376 -791 l 376 -780 l 322 -780 q 302 -799 280 -822 q 257 -845 235 -872 l 235 -872 q 213 -845 190 -820 q 166 -796 149 -780 l 149 -780 l 94 -780 l 94 -791 q 111 -814 129 -841 q 147 -868 163 -894 q 178 -920 187 -940 l 187 -940 z"},"Ä":{"ha":472,"x_min":0,"x_max":472,"o":"m 472 0 l 367 0 l 320 -208 l 153 -208 l 106 0 l 0 0 l 173 -714 l 296 -714 l 472 0 z m 302 -299 l 253 -522 q 249 -543 246 -561 q 242 -579 240 -595 q 237 -612 235 -628 l 235 -628 q 233 -613 230 -595 q 227 -577 224 -559 q 220 -541 216 -523 l 216 -523 l 169 -299 l 302 -299 z m 106 -845 l 106 -845 q 106 -874 120 -887 q 133 -901 153 -901 l 153 -901 q 174 -901 188 -887 q 201 -873 201 -846 l 201 -846 q 201 -819 188 -804 q 174 -790 153 -790 l 153 -790 q 133 -790 120 -804 q 106 -818 106 -845 z m 268 -845 l 268 -845 q 268 -874 282 -887 q 296 -901 317 -901 l 317 -901 q 338 -901 352 -887 q 365 -873 365 -846 l 365 -846 q 365 -819 352 -804 q 338 -790 316 -790 l 316 -790 q 295 -790 282 -804 q 268 -819 268 -845 z"},"À":{"ha":472,"x_min":0,"x_max":472,"o":"m 472 0 l 367 0 l 320 -208 l 153 -208 l 106 0 l 0 0 l 173 -714 l 296 -714 l 472 0 z m 302 -299 l 253 -522 q 249 -543 246 -561 q 242 -579 240 -595 q 237 -612 235 -628 l 235 -628 q 233 -613 230 -595 q 227 -577 224 -559 q 220 -541 216 -523 l 216 -523 l 169 -299 l 302 -299 z m 108 -940 l 220 -940 q 230 -918 246 -890 q 261 -862 277 -836 q 293 -810 307 -791 l 307 -791 l 307 -780 l 243 -780 q 228 -793 209 -812 q 190 -831 171 -853 q 151 -875 135 -895 q 118 -916 108 -931 l 108 -931 l 108 -940 z"},"Ā":{"ha":472,"x_min":0,"x_max":472,"o":"m 472 0 l 367 0 l 320 -208 l 153 -208 l 106 0 l 0 0 l 173 -714 l 296 -714 l 472 0 z m 302 -299 l 253 -522 q 249 -543 246 -561 q 242 -579 240 -595 q 237 -612 235 -628 l 235 -628 q 233 -613 230 -595 q 227 -577 224 -559 q 220 -541 216 -523 l 216 -523 l 169 -299 l 302 -299 z m 109 -862 l 361 -862 l 361 -789 l 109 -789 l 109 -862 z"},"Ą":{"ha":472,"x_min":0,"x_max":472,"o":"m 472 0 l 367 0 l 320 -208 l 153 -208 l 106 0 l 0 0 l 173 -714 l 296 -714 l 472 0 z m 302 -299 l 253 -522 q 249 -543 246 -561 q 242 -579 240 -595 q 237 -612 235 -628 l 235 -628 q 233 -613 230 -595 q 227 -577 224 -559 q 220 -541 216 -523 l 216 -523 l 169 -299 l 302 -299 z m 374 115 l 374 115 q 374 137 385 150 q 396 163 417 163 l 417 163 q 429 163 437 161 q 445 158 450 156 l 450 156 l 450 220 q 442 224 429 227 q 415 229 398 229 l 398 229 q 347 229 322 204 q 297 178 297 131 l 297 131 q 297 105 307 80 q 317 54 336 31 q 355 7 381 -12 l 381 -12 l 434 0 q 400 34 387 61 q 374 87 374 115 z"}}}
